<?xml version="1.0" encoding="iso-8859-1"?>
<!-- Uploaded to: SVG Repo, www.svgrepo.com, Generator: SVG Repo Mixer Tools -->
<svg fill="#B7B7B7" height="20px" width="20px" version="1.1" id="Layer_1" xmlns="http://www.w3.org/2000/svg"
	xmlns:xlink="http://www.w3.org/1999/xlink" viewBox="0 0 496 496" xml:space="preserve">
	<g>
		<g>
			<g>
				<path d="M248,96c26.472,0,48-21.528,48-48S274.472,0,248,0s-48,21.528-48,48S221.528,96,248,96z M248,16
				c17.648,0,32,14.352,32,32s-14.352,32-32,32s-32-14.352-32-32S230.352,16,248,16z" />
				<path d="M408,112c-22.056,0-40,17.944-40,40v72h64v48h-72c-30.872,0-56,25.128-56,56v69.792c0-5.032-1.184-10.056-3.336-14.344
				l-52.16-112.12l13.224-46.28l6.96,6.952H316c15.44,0,28-12.56,28-28s-12.56-28-28-28h-23.72l-12.504-18.752
				c0.072-1.064,0.224-2.12,0.224-3.184v-7.656C280,118.608,257.392,96,229.592,96c-10.56,0-20.696,3.24-29.304,9.392l-28.216,20.16
				C159.496,134.528,152,149.112,152,164.544c0,9,2.52,17.792,7.288,25.408l16.488,26.376l-8.144,40.712l0.16,0.344l-7.44,66.944
				L104.96,379.72c-5.776,5.784-8.96,13.472-8.96,21.656c0,5.32,1.488,10.256,3.888,14.624H40c-22.056,0-40,17.944-40,40
				c0,22.056,17.944,40,40,40h352c22.056,0,40-17.944,40-40c0-22.056-17.944-40-40-40h-72v-88c0-22.056,17.944-40,40-40h72v168v40
				h64V224v-8V112H408z M274.936,178.824L283.72,192H316c6.616,0,12,5.384,12,12c0,6.616-5.384,12-12,12h-40.688l-8.552-8.552
				L274.936,178.824z M304,399.488V416h-4.664C302.232,411.144,304,405.536,304,399.488z M254.008,321.088l32.24,69.304
				c1.152,2.288,1.752,4.84,1.752,7.4v1.696c0,9.104-7.408,16.512-16.52,16.512c-6.344,0-12.192-3.696-14.912-9.416l-35.488-74.52
				L254.008,321.088z M247.224,306.496L214.16,317.52l-29.792-62.56l3.784-18.928C193.504,243.56,202.08,248,211.416,248
				c7.48,0,14.248-2.952,19.344-7.672l8.72,4.36l-7.992,27.984L247.224,306.496z M206.12,337.864l-1.416,2.832l-28.192-16.912
				l4.336-38.984L206.12,337.864z M214.576,356.744l0.272-0.544l27.264,57.264c0.424,0.888,0.944,1.704,1.44,2.536h-88.24
				L214.576,356.744z M209.584,118.416c5.872-4.192,12.8-6.416,20.008-6.416C248.56,112,264,127.44,264,146.408v7.656
				c0,3.2-0.448,6.384-1.328,9.456l-18.712,65.52l-4.968-2.48c0.592-2.304,1.008-4.672,1.008-7.144v-5.712
				c0-5.184-1.408-10.264-4.08-14.712l-17.136-28.568l17.656-11.768l-8.872-13.312l-18.544,12.36l-22.688-22.688L209.584,118.416z
				 M172.848,181.472c-3.168-5.08-4.848-10.936-4.848-16.928c0-6.896,2.288-13.512,6.296-18.944l27.352,27.352l20.56,34.264
				c1.168,1.968,1.792,4.208,1.792,6.488v5.712c0,6.936-5.648,12.584-12.584,12.584c-4.376,0-8.36-2.208-10.68-5.92L172.848,181.472
				z M116.28,391.032l52.96-52.96l25.856,15.512l-58.128,58.136c-2.72,2.72-6.488,4.28-10.344,4.28
				C118.56,416,112,409.44,112,401.376C112,397.52,113.56,393.752,116.28,391.032z M40,480c-13.232,0-24-10.768-24-24
				s10.768-24,24-24s24,10.768,24,24S53.232,480,40,480z M392,432c13.232,0,24,10.768,24,24s-10.768,24-24,24s-24-10.768-24-24
				S378.768,432,392,432z M336,448v-16h24.208c-5.08,6.704-8.208,14.96-8.208,24c0,9.04,3.128,17.296,8.208,24H336v-16h-16v16h-16
				v-16h-16v16h-16v-16h-16v16h-16v-16h-16v16h-16v-16h-16v16h-16v-16h-16v16h-16v-16h-16v16h-16v-16H96v16H71.792
				c5.08-6.704,8.208-14.96,8.208-24c0-9.04-3.128-17.296-8.208-24H96v16h16v-16h16v16h16v-16h16v16h16v-16h16v16h16v-16h16v16h16
				v-16h16v16h16v-16h16v16h16v-16h16v16H336z M480,480h-32V224h32V480z M480,208h-96v-32h96V208z M480,160h-96v-8
				c0-13.232,10.768-24,24-24h72V160z" />
			</g>
		</g>
	</g>
</svg>