<svg width="22" height="27" viewBox="0 0 22 27" fill="none" xmlns="http://www.w3.org/2000/svg">
<path id="Calculator" d="M11.8678 19.91C11.8077 19.8547 11.7421 19.8056 11.6722 19.7633C11.6098 19.715 11.5395 19.6777 11.4644 19.6533C11.3917 19.6161 11.3132 19.5913 11.2322 19.58C10.9981 19.5305 10.7543 19.5562 10.5356 19.6533C10.3839 19.7082 10.2461 19.7958 10.1321 19.9099C10.018 20.0239 9.93045 20.1617 9.87556 20.3133C9.80713 20.4584 9.77365 20.6175 9.77778 20.7778C9.77583 20.9367 9.80489 21.0944 9.86333 21.2422C9.9342 21.3883 10.0247 21.524 10.1322 21.6456C10.2464 21.7588 10.3819 21.8485 10.5308 21.9093C10.6797 21.9701 10.8391 22.0009 11 22C11.1603 22.0041 11.3194 21.9706 11.4644 21.9022C11.6126 21.8403 11.749 21.7535 11.8678 21.6456C11.9811 21.5313 12.0707 21.3959 12.1315 21.247C12.1923 21.0981 12.2232 20.9386 12.2222 20.7778C12.2203 20.6181 12.1871 20.4603 12.1244 20.3133C12.0663 20.1633 11.979 20.0262 11.8678 19.91ZM6.78333 14.8744C6.72094 14.8261 6.65064 14.7889 6.57556 14.7644C6.50437 14.7187 6.4258 14.6856 6.34333 14.6667C6.18654 14.6302 6.02346 14.6302 5.86667 14.6667L5.64667 14.74L5.42667 14.85L5.24333 14.9967C5.0142 15.237 4.88715 15.5568 4.88889 15.8889C4.88796 16.0497 4.91879 16.2092 4.97961 16.3581C5.04044 16.507 5.13006 16.6425 5.24333 16.7567C5.36213 16.8646 5.49855 16.9514 5.64667 17.0133C5.83183 17.0894 6.03285 17.1188 6.23205 17.099C6.43125 17.0792 6.62253 17.0108 6.78909 16.8998C6.95565 16.7887 7.09239 16.6385 7.18729 16.4622C7.28219 16.2859 7.33234 16.0891 7.33333 15.8889C7.32883 15.5653 7.20223 15.2553 6.97889 15.0211L6.78333 14.8744ZM6.97889 19.91C6.86265 19.7987 6.72558 19.7115 6.57556 19.6533C6.35431 19.5507 6.10743 19.5167 5.86667 19.5556L5.64667 19.6289C5.56878 19.6556 5.4948 19.6926 5.42667 19.7389C5.36264 19.784 5.30141 19.833 5.24333 19.8856C5.13206 20.0018 5.04484 20.1389 4.98667 20.2889C4.922 20.4352 4.8886 20.5934 4.8886 20.7533C4.8886 20.9133 4.922 21.0715 4.98667 21.2178C5.04856 21.3659 5.13537 21.5023 5.24333 21.6211C5.3555 21.7388 5.49003 21.8329 5.63904 21.898C5.78805 21.9631 5.94854 21.9977 6.11111 22C6.27144 22.0041 6.4305 21.9706 6.57556 21.9022C6.72367 21.8403 6.86009 21.7535 6.97889 21.6456C7.08685 21.5268 7.17366 21.3903 7.23556 21.2422C7.30022 21.0959 7.33362 20.9377 7.33362 20.7778C7.33362 20.6178 7.30022 20.4596 7.23556 20.3133C7.17738 20.1633 7.09016 20.0262 6.97889 19.91ZM10.5356 14.7644C10.3855 14.8226 10.2485 14.9098 10.1322 15.0211C9.90888 15.2553 9.78228 15.5653 9.77778 15.8889C9.77878 16.0891 9.82893 16.2859 9.92382 16.4622C10.0187 16.6385 10.1555 16.7887 10.322 16.8998C10.4886 17.0108 10.6799 17.0792 10.8791 17.099C11.0783 17.1188 11.2793 17.0894 11.4644 17.0133C11.6126 16.9514 11.749 16.8646 11.8678 16.7567C11.9811 16.6425 12.0707 16.507 12.1315 16.3581C12.1923 16.2092 12.2232 16.0497 12.2222 15.8889C12.2177 15.5653 12.0911 15.2553 11.8678 15.0211C11.6959 14.8515 11.4776 14.7366 11.2406 14.691C11.0035 14.6453 10.7581 14.6708 10.5356 14.7644ZM16.7567 19.91C16.6379 19.802 16.5014 19.7152 16.3533 19.6533C16.1308 19.5597 15.8854 19.5342 15.6483 19.5798C15.4112 19.6255 15.193 19.7404 15.0211 19.91C14.9098 20.0262 14.8226 20.1633 14.7644 20.3133C14.6998 20.4596 14.6664 20.6178 14.6664 20.7778C14.6664 20.9377 14.6998 21.0959 14.7644 21.2422C14.8263 21.3903 14.9132 21.5268 15.0211 21.6456C15.1353 21.7588 15.2708 21.8485 15.4197 21.9093C15.5686 21.9701 15.728 22.0009 15.8889 22C16.0492 22.0041 16.2083 21.9706 16.3533 21.9022C16.5014 21.8403 16.6379 21.7535 16.7567 21.6456C16.9263 21.4737 17.0411 21.2554 17.0868 21.0183C17.1325 20.7812 17.1069 20.5359 17.0133 20.3133C16.9552 20.1633 16.8679 20.0262 16.7567 19.91ZM15.8889 4.88889H6.11111C5.78696 4.88889 5.47608 5.01766 5.24687 5.24687C5.01766 5.47608 4.88889 5.78696 4.88889 6.11111V11C4.88889 11.3242 5.01766 11.635 5.24687 11.8642C5.47608 12.0935 5.78696 12.2222 6.11111 12.2222H15.8889C16.213 12.2222 16.5239 12.0935 16.7531 11.8642C16.9823 11.635 17.1111 11.3242 17.1111 11V6.11111C17.1111 5.78696 16.9823 5.47608 16.7531 5.24687C16.5239 5.01766 16.213 4.88889 15.8889 4.88889ZM14.6667 9.77778H7.33333V7.33333H14.6667V9.77778ZM18.3333 0H3.66667C2.69421 0 1.76158 0.386308 1.07394 1.07394C0.386309 1.76158 0 2.69421 0 3.66667V23.2222C0 24.1947 0.386309 25.1273 1.07394 25.8149C1.76158 26.5026 2.69421 26.8889 3.66667 26.8889H18.3333C19.3058 26.8889 20.2384 26.5026 20.9261 25.8149C21.6137 25.1273 22 24.1947 22 23.2222V3.66667C22 2.69421 21.6137 1.76158 20.9261 1.07394C20.2384 0.386308 19.3058 0 18.3333 0ZM19.5556 23.2222C19.5556 23.5464 19.4268 23.8573 19.1976 24.0865C18.9684 24.3157 18.6575 24.4444 18.3333 24.4444H3.66667C3.34251 24.4444 3.03164 24.3157 2.80243 24.0865C2.57321 23.8573 2.44444 23.5464 2.44444 23.2222V3.66667C2.44444 3.34251 2.57321 3.03164 2.80243 2.80242C3.03164 2.57321 3.34251 2.44444 3.66667 2.44444H18.3333C18.6575 2.44444 18.9684 2.57321 19.1976 2.80242C19.4268 3.03164 19.5556 3.34251 19.5556 3.66667V23.2222ZM16.5611 14.8744C16.4987 14.8261 16.4284 14.7889 16.3533 14.7644C16.2806 14.7272 16.2021 14.7024 16.1211 14.6911C15.9643 14.6546 15.8012 14.6546 15.6444 14.6911L15.4244 14.7644L15.2044 14.8744L15.0211 15.0211C14.7978 15.2553 14.6712 15.5653 14.6667 15.8889C14.6677 16.0891 14.7178 16.2859 14.8127 16.4622C14.9076 16.6385 15.0443 16.7887 15.2109 16.8998C15.3775 17.0108 15.5688 17.0792 15.768 17.099C15.9672 17.1188 16.1682 17.0894 16.3533 17.0133C16.5014 16.9514 16.6379 16.8646 16.7567 16.7567C16.8699 16.6425 16.9596 16.507 17.0204 16.3581C17.0812 16.2092 17.112 16.0497 17.1111 15.8889C17.1066 15.5653 16.98 15.2553 16.7567 15.0211L16.5611 14.8744Z" fill="#ACB1C6"/>
</svg>
