<svg width="20" height="20" viewBox="0 0 22 22" fill="none" xmlns="http://www.w3.org/2000/svg">
<path id="ChatBot" d="M4.4 13.2H13.2V11H4.4V13.2ZM4.4 9.9H17.6V7.7H4.4V9.9ZM4.4 6.6H17.6V4.4H4.4V6.6ZM0 22V2.2C0 1.595 0.2156 1.0769 0.6468 0.645702C1.078 0.214502 1.59573 -0.000731466 2.2 1.86757e-06H19.8C20.405 1.86757e-06 20.9231 0.215602 21.3543 0.646802C21.7855 1.078 22.0007 1.59574 22 2.2V15.4C22 16.005 21.7844 16.5231 21.3532 16.9543C20.922 17.3855 20.4043 17.6007 19.8 17.6H4.4L0 22ZM3.465 15.4H19.8V2.2H2.2V16.6375L3.465 15.4Z" fill="#ACB1C6"/>
</svg>
