<svg width="22" height="25" viewBox="0 0 22 25" fill="none" xmlns="http://www.w3.org/2000/svg">
<path id="Home" d="M21.2911 9.99258L11.8678 0.361529C11.7542 0.246973 11.619 0.156047 11.4701 0.0939967C11.3212 0.0319465 11.1614 0 11.0001 0C10.8387 0 10.679 0.0319465 10.53 0.0939967C10.3811 0.156047 10.2459 0.246973 10.1323 0.361529L0.709025 10.0048C0.481005 10.2347 0.300921 10.5075 0.17923 10.8076C0.057538 11.1076 -0.00333637 11.4288 0.000141 11.7526V21.9947C-0.000806001 22.6204 0.238196 23.2226 0.667928 23.6773C1.09766 24.1321 1.6854 24.4047 2.31013 24.4391H19.69C20.3147 24.4047 20.9025 24.1321 21.3322 23.6773C21.7619 23.2226 22.0009 22.6204 22 21.9947V11.7526C22.001 11.0962 21.7468 10.4651 21.2911 9.99258ZM8.55564 21.9947V14.6614H13.4445V21.9947H8.55564ZM19.5556 21.9947H15.8889V13.4392C15.8889 13.1151 15.7602 12.8042 15.5309 12.575C15.3017 12.3458 14.9909 12.217 14.6667 12.217H7.33343C7.00927 12.217 6.6984 12.3458 6.46919 12.575C6.23998 12.8042 6.11121 13.1151 6.11121 13.4392V21.9947H2.44457V11.7037L11.0001 2.96484L19.5556 11.7526V21.9947Z" fill="white"/>
</svg>
