<svg width="20" height="20" viewBox="0 0 20 20" fill="none" xmlns="http://www.w3.org/2000/svg">
<path id="Login" d="M10 1C11.0609 1 12.0783 1.42143 12.8284 2.17157C13.5786 2.92172 14 3.93913 14 5C14 6.06087 13.5786 7.07828 12.8284 7.82843C12.0783 8.57857 11.0609 9 10 9C8.93913 9 7.92172 8.57857 7.17157 7.82843C6.42143 7.07828 6 6.06087 6 5C6 3.93913 6.42143 2.92172 7.17157 2.17157C7.92172 1.42143 8.93913 1 10 1ZM10 13.5C12.641 13.5 14.9815 14.0369 16.6247 14.8585C18.3274 15.7098 19 16.7013 19 17.5V19H1V17.5C1 16.7013 1.67262 15.7098 3.37534 14.8585C5.0185 14.0369 7.35896 13.5 10 13.5Z" stroke="#ACB1C6" stroke-width="2"/>
</svg>
