<svg width="20" height="20" viewBox="0 0 24 23" fill="none" xmlns="http://www.w3.org/2000/svg">
  <path id="Muscle"
    d="M10.3045 1.07052C9.41995 1.22509 6.29937 2.01144 5.24451 4.40546C4.64657 5.76494 3.11392 8.18265 2.195 10.7267C1.65815 12.304 1.26303 13.926 1.01435 15.5734C0.978724 15.7939 1.00979 16.0201 1.10356 16.2228C1.19734 16.4255 1.34954 16.5956 1.54065 16.7112C3.64111 17.9005 6.02414 18.4995 8.4373 18.4447C13.3545 18.4447 14.6802 17.3972 14.6802 17.3972C14.7659 17.8676 16.9253 21.6516 16.9253 21.6516C21.9705 18.9146 23.4456 13.1642 22.8894 9.65776C21.35 10.1068 20.1959 11.7957 20.1959 11.7957C20.1959 11.7957 18.4427 10.3629 16.9467 10.3629C15.4507 10.3629 11.9561 12.309 11.9561 12.309C11.749 12.078 11.4921 11.897 11.2048 11.7797C10.9175 11.6624 10.6073 11.612 10.2977 11.6321C9.12888 11.6321 7.11957 12.9927 7.11957 12.9927C6.78766 11.5489 6.59424 10.0767 6.54193 8.59613C6.62861 7.25034 7.08219 5.95398 7.85346 4.84771C7.85346 4.84771 9.73472 5.10438 10.2475 4.7191C10.4484 4.58711 10.6348 4.43434 10.8037 4.26331C10.8037 4.26331 12.2574 5.2894 12.4283 4.23511C12.4691 4.08894 12.4651 3.93388 12.4167 3.79004C12.3683 3.64619 12.2778 3.52022 12.1569 3.42845C12.1569 3.42845 12.813 3.00876 12.0723 1.91103C11.3317 0.813296 10.8748 0.970679 10.3045 1.07052Z"
    stroke="#ACB1C6" stroke-width="2" stroke-linecap="round" stroke-linejoin="round" />
</svg>