<svg width="20" height="20" viewBox="0 0 24 25" fill="none" xmlns="http://www.w3.org/2000/svg">
  <g id="Register">
    <path id="Vector"
      d="M10.9229 3.23267H4.05321C3.24345 3.23267 2.46685 3.55434 1.89426 4.12693C1.32168 4.69952 1 5.47611 1 6.28588V20.0253C1 20.8351 1.32168 21.6117 1.89426 22.1843C2.46685 22.7568 3.24345 23.0785 4.05321 23.0785H19.3193C20.129 23.0785 20.9056 22.7568 21.4782 22.1843C22.0508 21.6117 22.3725 20.8351 22.3725 20.0253V13.1556"
      stroke="#ACB1C6" stroke-width="2" stroke-linecap="round" stroke-linejoin="round" />
    <path id="Vector_2"
      d="M19.3193 4.75929L20.7741 6.28589M22.3725 1.6557C22.7795 2.07652 23.0048 2.64039 22.9999 3.22578C22.9951 3.81118 22.7604 4.37123 22.3465 4.78524L11.6863 15.4455L7.10645 16.9721L8.63305 12.3923L19.2994 1.63586C19.6744 1.25799 20.1762 1.03259 20.7077 1.00327C21.2393 0.973942 21.7628 1.14277 22.1771 1.47709L22.3725 1.6557Z"
      stroke="#ACB1C6" stroke-width="2" stroke-linecap="round" stroke-linejoin="round" />
  </g>
</svg>