<svg width="22" height="22" viewBox="0 0 22 22" fill="none" xmlns="http://www.w3.org/2000/svg">
<g id="Vector">
<mask id="path-1-inside-1_103_442" fill="white">
<path d="M20.1393 7.76798L19.2882 6.91683L19.882 6.29084C20.0412 6.13166 20.1208 5.9531 20.1208 5.75516C20.1208 5.55722 20.0412 5.37866 19.882 5.21948L16.7805 2.11798C16.6213 1.9588 16.4428 1.87921 16.2448 1.87921C16.0469 1.87921 15.8683 1.9588 15.7092 2.11798L15.0832 2.7118L14.2011 1.82972L14.8914 1.10847C15.2543 0.745581 15.6993 0.569083 16.2263 0.57898C16.7525 0.589702 17.197 0.77651 17.5599 1.1394L20.8606 4.44008C21.2235 4.80298 21.4049 5.24257 21.4049 5.75887C21.4049 6.27517 21.2235 6.71477 20.8606 7.07766L20.1393 7.76798ZM7.07766 20.8606C6.71476 21.2235 6.27517 21.4049 5.75887 21.4049C5.24257 21.4049 4.80298 21.2235 4.44008 20.8606L1.2359 17.6564C0.856511 17.277 0.666817 16.8053 0.666817 16.2411C0.666817 15.677 0.856511 15.2056 1.2359 14.8271L1.82972 14.232L2.7118 15.1141L2.11056 15.7092C1.9522 15.8683 1.87303 16.0469 1.87303 16.2448C1.87303 16.4428 1.9522 16.6213 2.11056 16.7805L5.21948 19.8894C5.37866 20.0478 5.55722 20.127 5.75516 20.127C5.9531 20.127 6.13166 20.0478 6.29084 19.8894L6.88466 19.2882L7.76798 20.1703L7.07766 20.8606ZM19.1187 12.4431L20.5253 11.0365C20.6837 10.8781 20.7629 10.6959 20.7629 10.4897C20.7629 10.2835 20.6837 10.1012 20.5253 9.94287L12.0571 1.47467C11.8988 1.31631 11.7165 1.23714 11.5103 1.23714C11.3041 1.23714 11.1219 1.31631 10.9635 1.47467L9.55688 2.88129C9.39853 3.03964 9.31935 3.2182 9.31935 3.41697C9.31935 3.61491 9.39853 3.79306 9.55688 3.95141L18.0486 12.4431C18.2069 12.6015 18.3851 12.6807 18.583 12.6807C18.781 12.6807 18.9595 12.6015 19.1187 12.4431ZM11.0056 20.5563L12.4122 19.1422C12.5705 18.9839 12.6497 18.8057 12.6497 18.6078C12.6497 18.4098 12.5705 18.2313 12.4122 18.0721L3.92791 9.58781C3.76956 9.42946 3.591 9.35028 3.39223 9.35028C3.19429 9.35028 3.01614 9.42946 2.85779 9.58781L1.44374 10.9944C1.28538 11.1528 1.20621 11.3351 1.20621 11.5412C1.20621 11.7474 1.28538 11.9297 1.44374 12.0881L9.91194 20.5563C10.0703 20.7146 10.2526 20.7938 10.4588 20.7938C10.6649 20.7938 10.8472 20.7146 11.0056 20.5563ZM10.1309 14.0316L14.0081 10.1618L11.8382 7.9919L7.9684 11.8691L10.1309 14.0316ZM11.8654 21.4309C11.486 21.8103 11.0171 22 10.4588 22C9.90039 22 9.43152 21.8103 9.05213 21.4309L0.569083 12.9479C0.189694 12.5685 0 12.0996 0 11.5412C0 10.9829 0.189694 10.514 0.569083 10.1346L1.97447 8.70573C2.35386 8.32634 2.82562 8.13665 3.38975 8.13665C3.95389 8.13665 4.42524 8.32634 4.8038 8.70573L7.08508 10.987L10.9635 7.10859L8.68099 4.83473C8.3016 4.45534 8.1119 3.98275 8.1119 3.41697C8.1119 2.85036 8.3016 2.37778 8.68099 1.99921L10.1111 0.569083C10.4905 0.189694 10.9623 0 11.5264 0C12.0905 0 12.5619 0.189694 12.9404 0.569083L21.4309 9.05955C21.8103 9.43894 22 9.9107 22 10.4748C22 11.039 21.8103 11.5103 21.4309 11.8889L20.0008 13.319C19.6214 13.6984 19.1488 13.8881 18.583 13.8881C18.0172 13.8881 17.5447 13.6984 17.1653 13.319L14.8914 11.0365L11.013 14.9149L13.2943 17.1962C13.6737 17.5756 13.8634 18.0469 13.8634 18.6102C13.8634 19.1736 13.6737 19.6453 13.2943 20.0255L11.8654 21.4309Z"/>
</mask>
<path d="M20.1393 7.76798L19.2882 6.91683L19.882 6.29084C20.0412 6.13166 20.1208 5.9531 20.1208 5.75516C20.1208 5.55722 20.0412 5.37866 19.882 5.21948L16.7805 2.11798C16.6213 1.9588 16.4428 1.87921 16.2448 1.87921C16.0469 1.87921 15.8683 1.9588 15.7092 2.11798L15.0832 2.7118L14.2011 1.82972L14.8914 1.10847C15.2543 0.745581 15.6993 0.569083 16.2263 0.57898C16.7525 0.589702 17.197 0.77651 17.5599 1.1394L20.8606 4.44008C21.2235 4.80298 21.4049 5.24257 21.4049 5.75887C21.4049 6.27517 21.2235 6.71477 20.8606 7.07766L20.1393 7.76798ZM7.07766 20.8606C6.71476 21.2235 6.27517 21.4049 5.75887 21.4049C5.24257 21.4049 4.80298 21.2235 4.44008 20.8606L1.2359 17.6564C0.856511 17.277 0.666817 16.8053 0.666817 16.2411C0.666817 15.677 0.856511 15.2056 1.2359 14.8271L1.82972 14.232L2.7118 15.1141L2.11056 15.7092C1.9522 15.8683 1.87303 16.0469 1.87303 16.2448C1.87303 16.4428 1.9522 16.6213 2.11056 16.7805L5.21948 19.8894C5.37866 20.0478 5.55722 20.127 5.75516 20.127C5.9531 20.127 6.13166 20.0478 6.29084 19.8894L6.88466 19.2882L7.76798 20.1703L7.07766 20.8606ZM19.1187 12.4431L20.5253 11.0365C20.6837 10.8781 20.7629 10.6959 20.7629 10.4897C20.7629 10.2835 20.6837 10.1012 20.5253 9.94287L12.0571 1.47467C11.8988 1.31631 11.7165 1.23714 11.5103 1.23714C11.3041 1.23714 11.1219 1.31631 10.9635 1.47467L9.55688 2.88129C9.39853 3.03964 9.31935 3.2182 9.31935 3.41697C9.31935 3.61491 9.39853 3.79306 9.55688 3.95141L18.0486 12.4431C18.2069 12.6015 18.3851 12.6807 18.583 12.6807C18.781 12.6807 18.9595 12.6015 19.1187 12.4431ZM11.0056 20.5563L12.4122 19.1422C12.5705 18.9839 12.6497 18.8057 12.6497 18.6078C12.6497 18.4098 12.5705 18.2313 12.4122 18.0721L3.92791 9.58781C3.76956 9.42946 3.591 9.35028 3.39223 9.35028C3.19429 9.35028 3.01614 9.42946 2.85779 9.58781L1.44374 10.9944C1.28538 11.1528 1.20621 11.3351 1.20621 11.5412C1.20621 11.7474 1.28538 11.9297 1.44374 12.0881L9.91194 20.5563C10.0703 20.7146 10.2526 20.7938 10.4588 20.7938C10.6649 20.7938 10.8472 20.7146 11.0056 20.5563ZM10.1309 14.0316L14.0081 10.1618L11.8382 7.9919L7.9684 11.8691L10.1309 14.0316ZM11.8654 21.4309C11.486 21.8103 11.0171 22 10.4588 22C9.90039 22 9.43152 21.8103 9.05213 21.4309L0.569083 12.9479C0.189694 12.5685 0 12.0996 0 11.5412C0 10.9829 0.189694 10.514 0.569083 10.1346L1.97447 8.70573C2.35386 8.32634 2.82562 8.13665 3.38975 8.13665C3.95389 8.13665 4.42524 8.32634 4.8038 8.70573L7.08508 10.987L10.9635 7.10859L8.68099 4.83473C8.3016 4.45534 8.1119 3.98275 8.1119 3.41697C8.1119 2.85036 8.3016 2.37778 8.68099 1.99921L10.1111 0.569083C10.4905 0.189694 10.9623 0 11.5264 0C12.0905 0 12.5619 0.189694 12.9404 0.569083L21.4309 9.05955C21.8103 9.43894 22 9.9107 22 10.4748C22 11.039 21.8103 11.5103 21.4309 11.8889L20.0008 13.319C19.6214 13.6984 19.1488 13.8881 18.583 13.8881C18.0172 13.8881 17.5447 13.6984 17.1653 13.319L14.8914 11.0365L11.013 14.9149L13.2943 17.1962C13.6737 17.5756 13.8634 18.0469 13.8634 18.6102C13.8634 19.1736 13.6737 19.6453 13.2943 20.0255L11.8654 21.4309Z" fill="#ACB1C6"/>
<path d="M20.1393 7.76798L18.7251 9.18219L20.1087 10.5658L21.5222 9.21283L20.1393 7.76798ZM19.2882 6.91683L17.8372 5.54039L16.4966 6.95363L17.874 8.33104L19.2882 6.91683ZM19.882 6.29084L18.4678 4.87663L18.4492 4.89527L18.431 4.9144L19.882 6.29084ZM19.882 5.21948L21.2962 3.80527L21.2962 3.80527L19.882 5.21948ZM16.7805 2.11798L15.3663 3.53219L15.3663 3.53219L16.7805 2.11798ZM15.7092 2.11798L17.0856 3.56898L17.1047 3.55083L17.1234 3.53219L15.7092 2.11798ZM15.0832 2.7118L13.669 4.12602L15.0464 5.50343L16.4596 4.16281L15.0832 2.7118ZM14.2011 1.82972L12.7562 0.44683L11.4033 1.86037L12.7869 3.24394L14.2011 1.82972ZM14.8914 1.10847L13.4772 -0.305739L13.4617 -0.290248L13.4466 -0.274421L14.8914 1.10847ZM16.2263 0.57898L16.267 -1.42061L16.2638 -1.42067L16.2263 0.57898ZM17.5599 1.1394L18.9741 -0.27481L18.9741 -0.27481L17.5599 1.1394ZM20.8606 4.44008L19.4464 5.8543L19.4464 5.8543L20.8606 4.44008ZM20.8606 7.07766L22.2435 8.52251L22.2593 8.50736L22.2748 8.49187L20.8606 7.07766ZM7.07766 20.8606L8.49187 22.2748L8.49187 22.2748L7.07766 20.8606ZM4.44008 20.8606L5.8543 19.4464L5.8543 19.4464L4.44008 20.8606ZM1.2359 17.6564L-0.178314 19.0706L-0.178314 19.0706L1.2359 17.6564ZM1.2359 14.8271L2.64858 16.2428L2.65158 16.2398L1.2359 14.8271ZM1.82972 14.232L3.24394 12.8178L1.82825 11.4021L0.414041 12.8193L1.82972 14.232ZM2.7118 15.1141L4.11869 16.5356L5.54756 15.1214L4.12602 13.6999L2.7118 15.1141ZM2.11056 15.7092L0.703673 14.2877L0.698152 14.2931L0.692673 14.2986L2.11056 15.7092ZM2.11056 16.7805L0.692668 18.1911L0.696342 18.1947L2.11056 16.7805ZM5.21948 19.8894L3.80526 21.3037L3.80894 21.3073L5.21948 19.8894ZM6.29084 19.8894L7.70138 21.3073L7.70762 21.3011L7.71381 21.2948L6.29084 19.8894ZM6.88466 19.2882L8.29789 17.873L6.87486 16.452L5.4617 17.8828L6.88466 19.2882ZM7.76798 20.1703L9.18219 21.5845L10.5974 20.1693L9.1812 18.7551L7.76798 20.1703ZM19.1187 12.4431L20.5292 13.861L20.5329 13.8573L19.1187 12.4431ZM20.5253 11.0365L19.1111 9.62228L19.1111 9.62228L20.5253 11.0365ZM20.5253 9.94287L19.1111 11.3571L20.5253 9.94287ZM12.0571 1.47467L13.4713 0.0604535L12.0571 1.47467ZM9.55688 3.95141L10.9711 2.5372L10.9711 2.5372L9.55688 3.95141ZM18.0486 12.4431L16.6344 13.8573L16.6344 13.8573L18.0486 12.4431ZM11.0056 20.5563L12.4198 21.9705L12.4235 21.9667L11.0056 20.5563ZM12.4122 19.1422L10.998 17.728L10.9943 17.7317L12.4122 19.1422ZM12.4122 18.0721L13.8301 16.6616L13.8264 16.6579L12.4122 18.0721ZM3.92791 9.58781L5.34212 8.1736L5.34212 8.1736L3.92791 9.58781ZM2.85779 9.58781L4.26828 11.0057L4.272 11.002L2.85779 9.58781ZM1.44374 10.9944L0.0332466 9.5765L0.0295249 9.58022L1.44374 10.9944ZM1.44374 12.0881L0.0295249 13.5023L0.029525 13.5023L1.44374 12.0881ZM9.91194 20.5563L11.3262 19.142L11.3262 19.142L9.91194 20.5563ZM10.1309 14.0316L8.7167 15.4458L10.1296 16.8587L11.5438 15.4472L10.1309 14.0316ZM14.0081 10.1618L15.421 11.5774L16.8379 10.1632L15.4223 8.74763L14.0081 10.1618ZM11.8382 7.9919L13.2524 6.57769L11.8368 5.16212L10.4226 6.57904L11.8382 7.9919ZM7.9684 11.8691L6.55283 10.4562L5.14132 11.8704L6.55418 13.2833L7.9684 11.8691ZM11.8654 21.4309L10.4629 20.005L10.457 20.0108L10.4512 20.0167L11.8654 21.4309ZM0.569083 10.1346L1.9833 11.5488L1.98916 11.543L1.99498 11.5371L0.569083 10.1346ZM1.97447 8.70573L0.560256 7.29152L0.554392 7.29738L0.548577 7.30329L1.97447 8.70573ZM4.8038 8.70573L3.38805 10.1184L3.38959 10.1199L4.8038 8.70573ZM7.08508 10.987L5.67087 12.4012L7.08508 13.8154L8.49929 12.4012L7.08508 10.987ZM10.9635 7.10859L12.3777 8.5228L13.7946 7.1059L12.375 5.69169L10.9635 7.10859ZM8.68099 4.83473L7.26677 6.24895L7.26946 6.25163L8.68099 4.83473ZM8.68099 1.99921L10.0937 3.41497L10.0952 3.41343L8.68099 1.99921ZM10.1111 0.569083L11.5253 1.9833L11.5253 1.9833L10.1111 0.569083ZM12.9404 0.569083L11.5247 1.98176L11.5262 1.9833L12.9404 0.569083ZM21.4309 11.8889L20.0182 10.4731L20.0167 10.4747L21.4309 11.8889ZM17.1653 13.319L15.7484 14.7305L15.7511 14.7332L17.1653 13.319ZM14.8914 11.0365L16.3083 9.62497L14.8941 8.20538L13.4772 9.62228L14.8914 11.0365ZM11.013 14.9149L9.59878 13.5007L8.18456 14.9149L9.59878 16.3291L11.013 14.9149ZM13.2943 20.0255L14.6967 21.4514L14.7034 21.4448L14.71 21.4382L13.2943 20.0255ZM21.5536 6.35377L20.7024 5.50262L17.874 8.33104L18.7251 9.18219L21.5536 6.35377ZM20.7392 8.29327L21.333 7.66728L18.431 4.9144L17.8372 5.54039L20.7392 8.29327ZM21.2962 7.70505C21.7745 7.22683 22.1208 6.55784 22.1208 5.75516H18.1208C18.1208 5.57719 18.1585 5.39356 18.2343 5.2233C18.3081 5.05788 18.4002 4.94422 18.4678 4.87663L21.2962 7.70505ZM22.1208 5.75516C22.1208 4.95249 21.7745 4.28349 21.2962 3.80527L18.4678 6.63369C18.4002 6.56609 18.3081 6.45244 18.2343 6.28702C18.1585 6.11676 18.1208 5.93313 18.1208 5.75516H22.1208ZM21.2962 3.80527L18.1947 0.703764L15.3663 3.53219L18.4678 6.63369L21.2962 3.80527ZM18.1947 0.703764C17.7165 0.225538 17.0475 -0.12079 16.2448 -0.12079V3.87921C16.0669 3.87921 15.8832 3.84154 15.713 3.76565C15.5476 3.69192 15.4339 3.59979 15.3663 3.53219L18.1947 0.703764ZM16.2448 -0.12079C15.4422 -0.12079 14.7732 0.225532 14.2949 0.703764L17.1234 3.53219C17.0558 3.59979 16.9421 3.69192 16.7767 3.76565C16.6064 3.84154 16.4228 3.87921 16.2448 3.87921V-0.12079ZM14.3327 0.666977L13.7067 1.2608L16.4596 4.16281L17.0856 3.56898L14.3327 0.666977ZM16.4974 1.29759L15.6153 0.415512L12.7869 3.24394L13.669 4.12602L16.4974 1.29759ZM15.6459 3.21262L16.3363 2.49137L13.4466 -0.274421L12.7562 0.44683L15.6459 3.21262ZM16.3056 2.52269C16.3088 2.51954 16.3037 2.52513 16.2895 2.53457C16.2751 2.54421 16.2563 2.55445 16.2347 2.56301C16.2132 2.57155 16.1954 2.57586 16.1843 2.57776C16.1736 2.57959 16.1741 2.57835 16.1887 2.57863L16.2638 -1.42067C15.21 -1.44046 14.2359 -1.06448 13.4772 -0.305739L16.3056 2.52269ZM16.1855 2.57856C16.2042 2.57895 16.2105 2.58062 16.2068 2.57987C16.2028 2.57906 16.1929 2.57655 16.1795 2.57094C16.1661 2.56531 16.1548 2.55887 16.1469 2.55349C16.1392 2.54827 16.139 2.54696 16.1457 2.55362L18.9741 -0.27481C18.2359 -1.01304 17.2948 -1.39966 16.267 -1.42061L16.1855 2.57856ZM16.1457 2.55362L19.4464 5.8543L22.2748 3.02587L18.9741 -0.27481L16.1457 2.55362ZM19.4464 5.8543C19.453 5.86087 19.4505 5.85949 19.4436 5.84935C19.4365 5.83891 19.4279 5.82374 19.4201 5.80502C19.4124 5.78632 19.4081 5.77009 19.406 5.75901C19.404 5.74829 19.4049 5.74734 19.4049 5.75887H23.4049C23.4049 4.71573 23.0153 3.76637 22.2748 3.02587L19.4464 5.8543ZM19.4049 5.75887C19.4049 5.7704 19.404 5.76945 19.406 5.75873C19.4081 5.74765 19.4124 5.73142 19.4201 5.71272C19.4279 5.69401 19.4365 5.67884 19.4436 5.6684C19.4505 5.65825 19.453 5.65688 19.4464 5.66345L22.2748 8.49187C23.0153 7.75137 23.4049 6.80201 23.4049 5.75887H19.4049ZM19.4777 5.63281L18.7565 6.32313L21.5222 9.21283L22.2435 8.52251L19.4777 5.63281ZM5.66344 19.4464C5.65688 19.453 5.65825 19.4505 5.66839 19.4436C5.67883 19.4365 5.694 19.4279 5.71272 19.4201C5.73142 19.4124 5.74765 19.4081 5.75873 19.406C5.76945 19.404 5.7704 19.4049 5.75887 19.4049V23.4049C6.80201 23.4049 7.75137 23.0153 8.49187 22.2748L5.66344 19.4464ZM5.75887 19.4049C5.74734 19.4049 5.74829 19.404 5.75901 19.406C5.77009 19.4081 5.78632 19.4124 5.80502 19.4201C5.82374 19.4279 5.83891 19.4365 5.84935 19.4436C5.85949 19.4505 5.86087 19.453 5.8543 19.4464L3.02587 22.2748C3.76637 23.0153 4.71573 23.4049 5.75887 23.4049V19.4049ZM5.8543 19.4464L2.65011 16.2422L-0.178314 19.0706L3.02587 22.2748L5.8543 19.4464ZM2.65011 16.2422C2.64334 16.2354 2.64457 16.2355 2.64954 16.2429C2.65187 16.2464 2.65458 16.2509 2.65736 16.2561C2.66015 16.2614 2.66262 16.2668 2.6647 16.2719C2.66677 16.2771 2.66814 16.2813 2.66898 16.2842C2.66981 16.2871 2.66992 16.288 2.66967 16.2867C2.66921 16.2841 2.66682 16.2699 2.66682 16.2411H-1.33318C-1.33318 17.3053 -0.953706 18.2952 -0.178314 19.0706L2.65011 16.2422ZM2.66682 16.2411C2.66682 16.2124 2.66921 16.1982 2.66965 16.1958C2.66989 16.1945 2.66976 16.1956 2.66889 16.1986C2.66802 16.2016 2.6666 16.2059 2.66447 16.2112C2.66234 16.2165 2.65979 16.222 2.65692 16.2275C2.65405 16.2329 2.65124 16.2375 2.64879 16.2411C2.64359 16.2489 2.64209 16.2493 2.64857 16.2428L-0.176775 13.4113C-0.953618 14.1865 -1.33318 15.1769 -1.33318 16.2411H2.66682ZM2.65158 16.2398L3.24541 15.6448L0.414041 12.8193L-0.179785 13.4143L2.65158 16.2398ZM0.415512 15.6462L1.29759 16.5283L4.12602 13.6999L3.24394 12.8178L0.415512 15.6462ZM1.30492 13.6926L0.703673 14.2877L3.51744 17.1307L4.11869 16.5356L1.30492 13.6926ZM0.692673 14.2986C0.215979 14.7778 -0.126975 15.4457 -0.126975 16.2448H3.87303C3.87303 16.4213 3.83589 16.6037 3.76073 16.7732C3.68765 16.938 3.59613 17.0517 3.52844 17.1197L0.692673 14.2986ZM-0.126975 16.2448C-0.126975 17.044 0.215976 17.7119 0.692673 18.1911L3.52844 15.37C3.59613 15.438 3.68765 15.5517 3.76073 15.7165C3.83589 15.886 3.87303 16.0684 3.87303 16.2448H-0.126975ZM0.696342 18.1947L3.80527 21.3037L6.63369 18.4752L3.52477 15.3663L0.696342 18.1947ZM3.80894 21.3073C4.28812 21.784 4.95604 22.127 5.75516 22.127V18.127C5.93159 18.127 6.11399 18.1641 6.28349 18.2393C6.44829 18.3123 6.56197 18.4039 6.63001 18.4716L3.80894 21.3073ZM5.75516 22.127C6.55427 22.127 7.22219 21.784 7.70138 21.3073L4.8803 18.4716C4.94835 18.4039 5.06203 18.3123 5.22683 18.2393C5.39633 18.1641 5.57872 18.127 5.75516 18.127V22.127ZM7.71381 21.2948L8.30763 20.6936L5.4617 17.8828L4.86787 18.484L7.71381 21.2948ZM5.47144 20.7034L6.35476 21.5855L9.1812 18.7551L8.29789 17.873L5.47144 20.7034ZM6.35377 18.7561L5.66344 19.4464L8.49187 22.2748L9.18219 21.5845L6.35377 18.7561ZM20.5329 13.8573L21.9395 12.4507L19.1111 9.62228L17.7045 11.0289L20.5329 13.8573ZM21.9395 12.4507C22.4374 11.9529 22.7629 11.2746 22.7629 10.4897H18.7629C18.7629 10.3292 18.7953 10.154 18.8691 9.98419C18.9414 9.81759 19.0351 9.69828 19.1111 9.62228L21.9395 12.4507ZM22.7629 10.4897C22.7629 9.70473 22.4374 9.02647 21.9395 8.52865L19.1111 11.3571C19.0351 11.2811 18.9414 11.1618 18.8691 10.9952C18.7953 10.8254 18.7629 10.6502 18.7629 10.4897H22.7629ZM21.9395 8.52865L13.4713 0.0604535L10.6429 2.88888L19.1111 11.3571L21.9395 8.52865ZM13.4713 0.0604535C12.9735 -0.437358 12.2953 -0.762863 11.5103 -0.762863V3.23714C11.3498 3.23714 11.1746 3.20468 11.0048 3.13092C10.8382 3.05855 10.7189 2.96487 10.6429 2.88888L13.4713 0.0604535ZM11.5103 -0.762863C10.7254 -0.762863 10.0471 -0.437361 9.54929 0.0604535L12.3777 2.88888C12.3017 2.96488 12.1824 3.05856 12.0158 3.13092C11.846 3.20468 11.6709 3.23714 11.5103 3.23714V-0.762863ZM9.54929 0.0604535L8.14267 1.46708L10.9711 4.2955L12.3777 2.88888L9.54929 0.0604535ZM8.14267 1.46708C7.66108 1.94867 7.31935 2.6187 7.31935 3.41697H11.3194C11.3194 3.59178 11.2827 3.77409 11.2071 3.94468C11.1334 4.11076 11.0407 4.22589 10.9711 4.2955L8.14267 1.46708ZM7.31935 3.41697C7.31935 4.21674 7.66293 4.88589 8.14267 5.36563L10.9711 2.5372C11.04 2.6061 11.1326 2.72077 11.2064 2.88676C11.2822 3.05742 11.3194 3.24053 11.3194 3.41697H7.31935ZM8.14267 5.36563L16.6344 13.8573L19.4628 11.0289L10.9711 2.5372L8.14267 5.36563ZM16.6344 13.8573C17.1141 14.3371 17.7833 14.6807 18.583 14.6807V10.6807C18.7595 10.6807 18.9426 10.7178 19.1132 10.7936C19.2792 10.8674 19.3939 10.96 19.4628 11.0289L16.6344 13.8573ZM18.583 14.6807C19.3821 14.6807 20.0501 14.3377 20.5292 13.861L17.7082 11.0252C17.7762 10.9575 17.8899 10.866 18.0547 10.7929C18.2242 10.7178 18.4066 10.6807 18.583 10.6807V14.6807ZM12.4235 21.9667L13.8301 20.5527L10.9943 17.7317L9.58764 19.1458L12.4235 21.9667ZM13.8264 20.5564C14.3061 20.0767 14.6497 19.4075 14.6497 18.6078H10.6497C10.6497 18.4313 10.6869 18.2482 10.7627 18.0776C10.8365 17.9116 10.9291 17.7969 10.998 17.728L13.8264 20.5564ZM14.6497 18.6078C14.6497 17.8087 14.3068 17.1407 13.8301 16.6616L10.9943 19.4826C10.9266 19.4146 10.8351 19.3009 10.762 19.1361C10.6869 18.9666 10.6497 18.7842 10.6497 18.6078H14.6497ZM13.8264 16.6579L5.34212 8.1736L2.5137 11.002L10.998 19.4863L13.8264 16.6579ZM5.34212 8.1736C4.86053 7.69201 4.1905 7.35028 3.39223 7.35028V11.3503C3.21742 11.3503 3.03511 11.3136 2.86452 11.238C2.69844 11.1643 2.58331 11.0716 2.5137 11.002L5.34212 8.1736ZM3.39223 7.35028C2.59246 7.35028 1.92331 7.69386 1.44357 8.1736L4.272 11.002C4.2031 11.0709 4.08843 11.1635 3.92244 11.2373C3.75178 11.3131 3.56867 11.3503 3.39223 11.3503V7.35028ZM1.4473 8.16988L0.0332514 9.5765L2.85423 12.4124L4.26827 11.0057L1.4473 8.16988ZM0.0295249 9.58022C-0.468289 10.078 -0.793792 10.7563 -0.793792 11.5412H3.20621C3.20621 11.7018 3.17376 11.8769 3.1 12.0467C3.02763 12.2133 2.93395 12.3327 2.85795 12.4086L0.0295249 9.58022ZM-0.793792 11.5412C-0.793792 12.3262 -0.468287 13.0045 0.0295249 13.5023L2.85795 10.6738C2.93394 10.7498 3.02763 10.8691 3.09999 11.0357C3.17376 11.2056 3.20621 11.3807 3.20621 11.5412H-0.793792ZM0.029525 13.5023L8.49773 21.9705L11.3262 19.142L2.85795 10.6738L0.029525 13.5023ZM8.49772 21.9705C8.99554 22.4683 9.6738 22.7938 10.4588 22.7938V18.7938C10.6193 18.7938 10.7944 18.8262 10.9643 18.9C11.1308 18.9724 11.2502 19.0661 11.3262 19.142L8.49772 21.9705ZM10.4588 22.7938C11.2437 22.7938 11.922 22.4683 12.4198 21.9705L9.59135 19.142C9.66735 19.0661 9.78666 18.9724 9.95326 18.9C10.1231 18.8262 10.2982 18.7938 10.4588 18.7938V22.7938ZM11.5438 15.4472L15.421 11.5774L12.5952 8.74627L8.71805 12.616L11.5438 15.4472ZM15.4223 8.74763L13.2524 6.57769L10.4239 9.40612L12.5939 11.5761L15.4223 8.74763ZM10.4226 6.57904L6.55283 10.4562L9.38396 13.2819L13.2537 9.40476L10.4226 6.57904ZM6.55418 13.2833L8.7167 15.4458L11.5451 12.6174L9.38261 10.4549L6.55418 13.2833ZM10.4512 20.0167C10.4435 20.0244 10.4428 20.0237 10.4498 20.019C10.4531 20.0168 10.4575 20.0141 10.4628 20.0113C10.4681 20.0085 10.4736 20.0059 10.4791 20.0037C10.4846 20.0015 10.4893 19.9999 10.4928 19.9989C10.4963 19.9979 10.498 19.9976 10.4976 19.9977C10.4969 19.9978 10.4848 20 10.4588 20V24C11.5235 24 12.5084 23.6163 13.2796 22.8451L10.4512 20.0167ZM10.4588 20C10.4327 20 10.4206 19.9978 10.4199 19.9977C10.4195 19.9976 10.4212 19.9979 10.4247 19.9989C10.4282 19.9999 10.4329 20.0015 10.4384 20.0037C10.4439 20.0059 10.4494 20.0085 10.4547 20.0113C10.46 20.0141 10.4644 20.0168 10.4677 20.019C10.4747 20.0237 10.474 20.0244 10.4663 20.0167L7.63791 22.8451C8.40906 23.6163 9.39403 24 10.4588 24V20ZM10.4663 20.0167L1.9833 11.5337L-0.845131 14.3621L7.63791 22.8451L10.4663 20.0167ZM1.9833 11.5337C1.97559 11.526 1.97627 11.5253 1.98097 11.5323C1.98318 11.5356 1.98586 11.54 1.98867 11.5453C1.99149 11.5506 1.99407 11.5561 1.99629 11.5616C1.9985 11.5671 2.00006 11.5718 2.00108 11.5753C2.0021 11.5788 2.0024 11.5805 2.00231 11.5801C2.00219 11.5794 2 11.5673 2 11.5412H-2C-2 12.606 -1.61627 13.5909 -0.845131 14.3621L1.9833 11.5337ZM2 11.5412C2 11.5152 2.00219 11.5031 2.00231 11.5024C2.0024 11.502 2.0021 11.5037 2.00108 11.5072C2.00006 11.5107 1.9985 11.5154 1.99629 11.5209C1.99407 11.5264 1.99149 11.5319 1.98867 11.5372C1.98586 11.5425 1.98318 11.5469 1.98097 11.5502C1.97627 11.5572 1.97559 11.5565 1.9833 11.5488L-0.845131 8.72041C-1.61627 9.49155 -2 10.4765 -2 11.5412H2ZM1.99498 11.5371L3.40036 10.1082L0.548577 7.30329L-0.85681 8.73219L1.99498 11.5371ZM3.38868 10.1199C3.39546 10.1132 3.39539 10.1144 3.38796 10.1194C3.38448 10.1217 3.38003 10.1244 3.37476 10.1272C3.36949 10.13 3.36413 10.1325 3.35897 10.1345C3.35381 10.1366 3.3496 10.138 3.34669 10.1388C3.34379 10.1396 3.34285 10.1398 3.34423 10.1395C3.34677 10.139 3.36103 10.1366 3.38975 10.1366V6.13665C2.32554 6.13665 1.33565 6.51613 0.560256 7.29152L3.38868 10.1199ZM3.38975 10.1366C3.41849 10.1366 3.43267 10.139 3.43507 10.1395C3.43637 10.1397 3.43533 10.1396 3.43233 10.1387C3.4293 10.1379 3.42496 10.1364 3.41967 10.1343C3.41436 10.1322 3.40886 10.1296 3.40343 10.1267C3.398 10.1239 3.39339 10.1211 3.38973 10.1186C3.38197 10.1134 3.38158 10.1119 3.38805 10.1184L6.21955 7.29306C5.4444 6.51622 4.454 6.13665 3.38975 6.13665V10.1366ZM3.38959 10.1199L5.67087 12.4012L8.49929 9.5728L6.21802 7.29152L3.38959 10.1199ZM8.49929 12.4012L12.3777 8.5228L9.54929 5.69437L5.67087 9.5728L8.49929 12.4012ZM12.375 5.69169L10.0925 3.41783L7.26946 6.25163L9.55198 8.52549L12.375 5.69169ZM10.0952 3.42052C10.0887 3.41401 10.0901 3.41428 10.0951 3.42183C10.0975 3.42537 10.1002 3.42985 10.103 3.4351C10.1058 3.44036 10.1082 3.44567 10.1102 3.45074C10.1123 3.4558 10.1136 3.45987 10.1144 3.46261C10.1152 3.46532 10.1152 3.46605 10.1149 3.46442C10.1144 3.46135 10.1119 3.44645 10.1119 3.41697H6.1119C6.1119 4.48104 6.49018 5.47235 7.26677 6.24894L10.0952 3.42052ZM10.1119 3.41697C10.1119 3.38711 10.1144 3.37197 10.115 3.36879C10.1153 3.36709 10.1152 3.36781 10.1144 3.37054C10.1136 3.3733 10.1123 3.37743 10.1102 3.38259C10.1082 3.38775 10.1057 3.39318 10.1028 3.3986C10.0999 3.40401 10.0971 3.40866 10.0946 3.41239C10.0893 3.42034 10.0876 3.42104 10.0937 3.41496L7.26831 0.583461C6.48966 1.36042 6.1119 2.35294 6.1119 3.41697H10.1119ZM10.0952 3.41343L11.5253 1.9833L8.6969 -0.845131L7.26677 0.584999L10.0952 3.41343ZM11.5253 1.9833C11.5321 1.97652 11.532 1.97776 11.5246 1.98272C11.5211 1.98505 11.5167 1.98776 11.5114 1.99055C11.5061 1.99333 11.5008 1.9958 11.4956 1.99788C11.4905 1.99995 11.4862 2.00133 11.4833 2.00217C11.4804 2.003 11.4795 2.00311 11.4809 2.00285C11.4834 2.00239 11.4977 2 11.5264 2V-2C10.4622 -2 9.47229 -1.62052 8.6969 -0.845131L11.5253 1.9833ZM11.5264 2C11.5551 2 11.5693 2.00239 11.5717 2.00283C11.573 2.00307 11.572 2.00294 11.569 2.00207C11.5659 2.0012 11.5616 1.99978 11.5563 1.99765C11.551 1.99552 11.5455 1.99298 11.5401 1.9901C11.5346 1.98723 11.53 1.98442 11.5264 1.98197C11.5186 1.97678 11.5182 1.97527 11.5247 1.98176L14.3562 -0.843591C13.581 -1.62043 12.5906 -2 11.5264 -2V2ZM11.5262 1.9833L20.0167 10.4738L22.8451 7.64534L14.3547 -0.845131L11.5262 1.9833ZM20.0167 10.4738C20.0235 10.4805 20.0222 10.4805 20.0173 10.473C20.0149 10.4696 20.0122 10.4651 20.0095 10.4598C20.0067 10.4546 20.0042 10.4492 20.0021 10.444C20 10.4389 19.9987 10.4347 19.9978 10.4318C19.997 10.4289 19.9969 10.4279 19.9971 10.4293C19.9976 10.4318 20 10.4461 20 10.4748H24C24 9.41062 23.6205 8.42073 22.8451 7.64534L20.0167 10.4738ZM20 10.4748C20 10.5036 19.9976 10.5178 19.9972 10.5202C19.9969 10.5215 19.9971 10.5204 19.9979 10.5174C19.9988 10.5144 20.0002 10.51 20.0023 10.5048C20.0045 10.4994 20.007 10.4939 20.0099 10.4885C20.0128 10.4831 20.0156 10.4785 20.018 10.4748C20.0232 10.4671 20.0247 10.4667 20.0182 10.4731L22.8436 13.3046C23.6204 12.5295 24 11.5391 24 10.4748H20ZM20.0167 10.4747L18.5866 11.9048L21.415 14.7332L22.8451 13.3031L20.0167 10.4747ZM18.5866 11.9048C18.5801 11.9113 18.5803 11.9099 18.5879 11.9049C18.5914 11.9025 18.5959 11.8998 18.6012 11.897C18.6064 11.8942 18.6117 11.8918 18.6168 11.8898C18.6219 11.8877 18.6259 11.8864 18.6287 11.8856C18.6314 11.8848 18.6321 11.8848 18.6305 11.8851C18.6274 11.8856 18.6125 11.8881 18.583 11.8881V15.8881C19.6471 15.8881 20.6384 15.5098 21.415 14.7332L18.5866 11.9048ZM18.583 11.8881C18.5535 11.8881 18.5387 11.8856 18.5356 11.8851C18.5339 11.8848 18.5347 11.8848 18.5374 11.8856C18.5401 11.8864 18.5442 11.8877 18.5493 11.8898C18.5543 11.8918 18.5596 11.8942 18.5649 11.897C18.5702 11.8998 18.5746 11.9025 18.5782 11.9049C18.5857 11.9099 18.586 11.9113 18.5795 11.9048L15.7511 14.7332C16.5277 15.5098 17.519 15.8881 18.583 15.8881V11.8881ZM18.5822 11.9075L16.3083 9.62497L13.4745 12.448L15.7484 14.7305L18.5822 11.9075ZM13.4772 9.62228L9.59878 13.5007L12.4272 16.3291L16.3056 12.4507L13.4772 9.62228ZM9.59878 16.3291L11.8801 18.6104L14.7085 15.782L12.4272 13.5007L9.59878 16.3291ZM11.8801 18.6104C11.887 18.6173 11.8858 18.6174 11.8809 18.61C11.8786 18.6065 11.8759 18.6021 11.8731 18.5968C11.8703 18.5915 11.8678 18.5862 11.8657 18.581C11.8636 18.5757 11.8622 18.5715 11.8613 18.5685C11.8605 18.5655 11.8603 18.5644 11.8606 18.5657C11.861 18.568 11.8634 18.5819 11.8634 18.6102H15.8634C15.8634 17.546 15.4833 16.5568 14.7085 15.782L11.8801 18.6104ZM11.8634 18.6102C11.8634 18.6386 11.861 18.6526 11.8605 18.655C11.8603 18.6564 11.8604 18.6554 11.8612 18.6525C11.8621 18.6496 11.8634 18.6455 11.8655 18.6404C11.8675 18.6353 11.8699 18.6301 11.8726 18.625C11.8753 18.6199 11.8779 18.6156 11.8801 18.6123C11.8848 18.6053 11.8857 18.6056 11.8785 18.6129L14.71 21.4382C15.4834 20.6632 15.8634 19.6745 15.8634 18.6102H11.8634ZM11.8918 18.5996L10.4629 20.005L13.2678 22.8568L14.6967 21.4514L11.8918 18.5996Z" fill="#ACB1C6" mask="url(#path-1-inside-1_103_442)"/>
</g>
</svg>
