<svg version="1.1" width="248.333px" height="557.994px" viewBox="0 0 248.333 557.994" x="0px"
  xmlns="http://www.w3.org/2000/svg" y="0px" id="rd-map">

  <style type="text/css">
    .g {
      stroke: red;
      stroke-width: 3;

    }
  </style>
  <!--                            <rect width="600" height="600" style="fill:#8d969b;stroke-width:2;stroke:rgb(0,0,0)" />-->
  <linearGradient gradientUnits="userSpaceOnUse" id="SVGID_1_" x1="11.5801" x2="241.1274" y1="277.9492" y2="277.9492">
    <stop offset="0" style="stop-color: rgb(66, 186, 191);"></stop>
    <stop offset="1" style="stop-color: rgb(149, 206, 189);"></stop>
  </linearGradient>
  <linearGradient gradientTransform="rotate(90)" id="grad">
    <stop offset="5%" stop-color="#C70D6C"></stop>
    <stop offset="95%" stop-color="#BB1817"></stop>
  </linearGradient>
  <path transform="translate(0, 0)"
    d="M202.103,152.582c0.303,1.112,3.78,33.957,4.329,37.677 c0.047,3.624,0.172,6.366,0.421,7.24c0.692,2.422,2.343,3.895,5.449,15.839c0.186,2.286,0.242,4.168,0.176,5.286 c-0.216,3.675,0.502,35.751,0.701,44.371c0,0,0.002,1.364,0.018,1.723c0,0,0.656,9.906,1.781,11.906c0,0,5.625,4,7.125,5.125 s7.25,6,7.625,6.625s1.5,5,2.5,6.75s6.375,7.875,8.375,8.875c0,0-0.125,1.625-1.125,2.375s-3.875,0.5-6-0.25s-4.875-3.875-5-4.875 s-2.25-4.625-3.25-5.25s-1.625,0.625-1.625,0.625l0.625,10.5v22.125c0,0-0.75,2.25-1.375,2.5s-2.25,1-3.875-1.375 c0,0-0.125,4.125-0.375,5.25s-1.5,1.75-2.5,1.75s-2.125-0.625-2.375-1.75s-0.875-5.5-0.875-5.5s0.125,4-0.25,4.375 s-3.125,1.625-4.375-2s-3.125-16.625-3.125-16.625l-0.375-1.75l0.375,11.75c0,0-0.625,2-1.625,2.25s-2.25,0.125-2.875-4.25 s-1.75-11.125-1.75-11.125l-1.625-6.25c0,0-0.875-7.25-1.125-9.875s-0.375-11-0.125-12.75s0.875-5.375,0.875-6 c0,0,0.083-4.708-0.406-7.641c0,0-8.469-28.859-11.719-35.234s-3-21.781-3-21.781c-0.063-0.625-0.208-1.51-0.208-1.51l-0.25-8.462 v-1.333c-0.1-0.697-0.553-3.751-1.104-5.789c-0.625-2.313-4.5-18.75-4.5-18.75s-1.396-4.125-1.479-8.125 c-0.032-1.514-0.445-1.856-0.947-1.699c-0.528,7.47-2.761,9.245-2.761,9.245c0,2.153-0.75,4.904-0.75,4.904 c-0.042,0.065-0.091,0.121-0.134,0.185c-0.062,0.521-0.151,1.24-0.26,2.016c-0.429,7.972-3.231,13.347-3.231,13.347 c-1.25,4.186-1.75,13.754-1.75,13.754c1.5,3.404,1.844,7.466,1.844,7.466c0.229,1.42,0.98,9.173,1,11c0,0,1.549,4.269,2.134,6.994 c1.232,2.686,6.798,16.267,10.963,50.552c6,49.395-8.423,84.298-9.66,87.502c-1.236,3.206-1.941,7.397-2.249,8.24 c-0.071,0.195-0.138,0.572-0.219,0.993c-0.098,3.282-0.23,7.849-0.23,8.583c0,1.167-1.333,18.167-1.333,18.167l0.007,0.283 c1.423,11.159,1.383,33.524,0.814,38.618c-0.589,5.271-8.105,37.515-8.105,37.515s-1.788,8.211-3.465,15.297 c-0.867,5.154-1.626,10.25-1.626,12.287c0,4.75,0,10.375-0.625,12.375c0,0-0.5,6.625,0.625,9.125s4.75,7.625,4.25,11 s-1.625,3.625-1.625,3.625s-0.375,0.75-1.75,0.75s-3-0.25-3-0.25s-2.75,0.625-3.875,0.125c0,0-2.5,0.375-3.875-0.375 c0,0-2.875,1.125-5.375,0.125c0,0-2.75,1.75-9.25,0.375c0,0-1.125-0.625-1.625-2.75c0,0-1.125-0.625-0.875-3.375 s4.25-8.25,4.875-15.25s1.5-12.25,1.5-12.25s1.125-3.75,1.625-5.375s1.579-8.785,1.727-12.518c0,0-2.721-31.682-3.67-38.156 c-0.949-6.474-0.873-28.486,3.786-47.888c0.227-1.593,0.233-4.635,0.233-4.635s-3.24-20.035-3.23-23.787 c0.022-8.016-3.674-42.407-4.146-49.646c-0.472-7.239-0.361-45.337-0.361-45.337c-0.412-0.104-0.401-0.533-2.151-0.971 c-1.209-0.167-2.124,0-2.124,0c-1.75,0.438-1.739,0.867-2.151,0.971c0,0,0.111,38.098-0.361,45.337 c-0.472,7.239-4.168,41.631-4.146,49.646c0.01,3.752-3.23,23.787-3.23,23.787s-0.047,3.198,0.233,4.635 c4.658,19.401,4.734,41.414,3.786,47.888c-0.949,6.475-3.67,38.156-3.67,38.156c0.148,3.732,1.227,10.893,1.727,12.518 s1.625,5.375,1.625,5.375s0.875,5.25,1.5,12.25s4.625,12.5,4.875,15.25s-0.875,3.375-0.875,3.375c-0.5,2.125-1.625,2.75-1.625,2.75 c-6.5,1.375-9.25-0.375-9.25-0.375c-2.5,1-5.375-0.125-5.375-0.125c-1.375,0.75-3.875,0.375-3.875,0.375 c-1.125,0.5-3.875-0.125-3.875-0.125s-1.625,0.25-3,0.25s-1.75-0.75-1.75-0.75s-1.125-0.25-1.625-3.625s3.125-8.5,4.25-11 s0.625-9.125,0.625-9.125c-0.625-2-0.625-7.625-0.625-12.375c0-2.037-0.759-7.133-1.626-12.287 c-1.678-7.086-3.465-15.297-3.465-15.297s-7.516-32.244-8.105-37.515c-0.569-5.094-0.609-27.459,0.814-38.618l0.007-0.283 c0,0-1.333-17-1.333-18.167c0-0.734-0.132-5.301-0.23-8.583c-0.081-0.421-0.148-0.798-0.219-0.993 c-0.308-0.843-1.013-5.034-2.249-8.24c-1.236-3.204-15.66-38.107-9.66-87.502c4.165-34.285,9.73-47.866,10.963-50.552 c0.585-2.725,2.134-6.994,2.134-6.994c0.02-1.827,0.771-9.58,1-11c0,0,0.344-4.063,1.844-7.466c0,0-0.5-9.568-1.75-13.754 c0,0-2.802-5.375-3.231-13.347c-0.109-0.776-0.199-1.496-0.26-2.016c-0.043-0.064-0.092-0.12-0.134-0.185 c0,0-0.75-2.751-0.75-4.904c0,0-2.233-1.775-2.761-9.245c-0.502-0.157-0.916,0.185-0.947,1.699c-0.083,4-1.479,8.125-1.479,8.125 s-3.875,16.438-4.5,18.75c-0.551,2.038-1.004,5.092-1.104,5.789v1.333l-0.25,8.462c0,0-0.146,0.885-0.208,1.51 c0,0,0.25,15.406-3,21.781s-11.719,35.234-11.719,35.234c-0.489,2.932-0.406,7.641-0.406,7.641c0,0.625,0.625,4.25,0.875,6 s0.125,10.125-0.125,12.75s-1.125,9.875-1.125,9.875l-1.625,6.25c0,0-1.125,6.75-1.75,11.125s-1.875,4.5-2.875,4.25 s-1.625-2.25-1.625-2.25l0.375-11.75l-0.375,1.75c0,0-1.875,13-3.125,16.625s-4,2.375-4.375,2s-0.25-4.375-0.25-4.375 s-0.625,4.375-0.875,5.5s-1.375,1.75-2.375,1.75s-2.25-0.625-2.5-1.75s-0.375-5.25-0.375-5.25c-1.625,2.375-3.25,1.625-3.875,1.375 s-1.375-2.5-1.375-2.5v-22.125l0.625-10.5c0,0-0.625-1.25-1.625-0.625s-3.125,4.25-3.25,5.25s-2.875,4.125-5,4.875s-5,1-6,0.25 s-1.125-2.375-1.125-2.375c2-1,7.375-7.125,8.375-8.875s2.125-6.125,2.5-6.75s6.125-5.5,7.625-6.625s7.125-5.125,7.125-5.125 c1.125-2,1.781-11.906,1.781-11.906c0.016-0.359,0.018-1.723,0.018-1.723c0.199-8.62,0.917-40.696,0.701-44.371 c-0.066-1.118-0.009-3,0.176-5.286c3.105-11.944,4.757-13.417,5.449-15.839c0.25-0.874,0.375-3.616,0.421-7.24 c0.549-3.72,4.025-36.565,4.329-37.677c0.104-0.354,0.583-2.864,0.583-2.864c-0.398-5.504-0.652-18.646,0.25-24.057 c0.88-5.277,6.167-17.667,13.833-20.25c0,0,0.16-0.042,0.445-0.098c3.208-3.555,7.389-4.439,7.389-4.439s2.875-1.625,5.75-3.375 s7.974-5.939,9.5-7c8.85-6.151,14.032-8.67,17.354-10.402c0.618-0.784,1.163-1.704,1.438-2.723 c0.875-3.25-0.375-14.625-0.375-14.625c-0.75-1.375-1.25-7.625-1.25-7.625s-0.563-6.25-1-8.375 c-0.767-3.724-1.275-7.435-1.375-8.563c-0.438-4.938-0.563-8.875-0.375-11.938c0.183-2.995,1.375-9.125,8-15.75 c6.29-6.29,14.706-6.495,15.542-6.5c0,0,0.03,0,0.042,0s0.042,0,0.042,0c0.835,0.005,9.251,0.209,15.542,6.5 c6.625,6.625,7.817,12.755,8,15.75c0.188,3.063,0.063,7-0.375,11.938c-0.1,1.127-0.608,4.839-1.375,8.563 c-0.438,2.125-1,8.375-1,8.375s-0.5,6.25-1.25,7.625c0,0-1.25,11.375-0.375,14.625c0.238,0.883,0.681,1.688,1.196,2.398 c3.476,2.045,9.207,5.134,17.594,10.727c1.546,1.031,6.625,5.25,9.5,7s5.75,3.375,5.75,3.375s4.181,0.884,7.389,4.439 c0.285,0.057,0.445,0.098,0.445,0.098c7.667,2.583,12.953,14.973,13.833,20.25c0.902,5.411,0.648,18.553,0.25,24.057 C201.52,149.717,201.769,151.665,202.103,152.582z"
    fill="#FFFFFF" stroke="url(#SVGID_1_)" stroke-miterlimit="10"></path>


  <g id="in_layer" transform="translate(0, 0)">

    <g id="pectoralis_major" class="muscle">
      <linearGradient gradientUnits="userSpaceOnUse" id="SVGID_2_" x1="77.5273" x2="124.5156" y1="133.0034"
        y2="133.0034">
        <stop offset="0" style="stop-color: rgb(177,131,131);"></stop>
        <stop offset="1" style="stop-color: rgb(183,117,118);"></stop>
      </linearGradient>
      <path data-tooltip-text="Pectoralis Major" class="tooltip-trigger"
        d="M78.042,136.525c6,25.647,24.167,21.4,24.167,21.4c13.833-1.595,19.667-5.427,19.667-5.427 c6.333-3.834-0.5-35-2.167-39.058c-0.367-0.894-1-2.404-1.85-3.709c-0.888-1.362-1.012-1.378-3.024-1.695 c-1.389-0.218-2.768-0.236-4.173-0.207c-6.632,0.145-14.23,0.646-19.838,4.125c-2.681,1.662-5.348,3.706-7.419,6.056 c-1.64,1.861-2.822,3.355-4.112,5.45C79.291,123.46,76.375,131.395,78.042,136.525z M174.766,136.525c-6,25.647-24.167,21.4-24.167,21.4c-13.833-1.595-19.667-5.427-19.667-5.427 c-6.333-3.834,0.5-35,2.167-39.058c0.367-0.894,1-2.404,1.85-3.709c0.888-1.362,1.012-1.378,3.024-1.695 c1.389-0.218,2.768-0.236,4.173-0.207c6.632,0.145,14.23,0.646,19.838,4.125c2.681,1.662,5.348,3.706,7.419,6.056 c1.64,1.861,2.822,3.355,4.112,5.45C173.517,123.46,176.433,131.395,174.766,136.525z"
        fill="url(#SVGID_2_)" id="muscle-0"></path>
    </g>
    <g id="finger_flexors" class="muscle">
      <linearGradient gradientUnits="userSpaceOnUse" id="SVGID_6_" x1="39.958" x2="71.0874" y1="238.0996" y2="238.0996">
        <stop offset="0" style="stop-color: rgb(177,200,135);"></stop>
        <stop offset="1" style="stop-color: rgb(166,196,106);"></stop>
      </linearGradient>
      <path data-tooltip-text="Finger Flexors" class="tooltip-trigger"
        d="M52.708,210.727c0,0,0.459-1.699,2-2.5c1.563-0.813,5-4.188,5-4.188s3.75,5.5,11.375,9.375 c0,0,0.25,15.875-3,22.25s-11.729,35.25-11.729,35.25s-7.082,1.615-11.563,1.167c-3.333-0.333-4.833-1.167-4.833-1.167 s2-12.5,3.5-17S54.833,225.477,52.708,210.727z M200.1,210.727c0,0-0.459-1.699-2-2.5c-1.563-0.813-5-4.188-5-4.188s-3.75,5.5-11.375,9.375 c0,0-0.25,15.875,3,22.25s11.729,35.25,11.729,35.25s7.082,1.615,11.563,1.167c3.333-0.333,4.833-1.167,4.833-1.167s-2-12.5-3.5-17 S197.975,225.477,200.1,210.727z"
        fill="url(#SVGID_6_)" id="muscle-6" style=""></path>
    </g>
    <g id="deltoid" class="muscle">
      <linearGradient gradientUnits="userSpaceOnUse" id="SVGID_3_" x1="50.9287" x2="98.958" y1="137.3198" y2="137.3198">
        <stop offset="0" style="stop-color: rgb(181,98,69);"></stop>
        <stop offset="1" style="stop-color: rgb(183,82,44);"></stop>
      </linearGradient>
      <path data-tooltip-text="Deltoid" class="tooltip-trigger"
        d="M65.375,106.077c0,0,4.083-1.083,8.75,0.255c0,0,21.5-0.25,24.833-0.667 c0,0-21.333,6.5-24.333,26.667c0,0-0.833,5.916-2,7.833s-10.208,8.062-19.792,28.813c0,0-0.792-14.15-1.292-16.317 c-0.5-2.167-1.083-19.833,0-26.333C52.421,121.05,57.708,108.66,65.375,106.077z M187.433,106.077c0,0-4.083-1.083-8.75,0.255c0,0-21.5-0.25-24.833-0.667 c0,0,21.333,6.5,24.333,26.667c0,0,0.833,5.916,2,7.833s10.208,8.062,19.792,28.813c0,0,0.792-14.15,1.292-16.317 c0.5-2.167,1.083-19.833,0-26.333C200.386,121.05,195.1,108.66,187.433,106.077z"
        fill="url(#SVGID_3_)" id="muscle-3" style=""></path>
    </g>
    <g id="triceps" class="muscle">
      <linearGradient gradientUnits="userSpaceOnUse" id="SVGID_4_" x1="46.2803" x2="52.0415" y1="175.665" y2="175.665">
        <stop offset="0" style="stop-color: rgb(159,145,116);"></stop>
        <stop offset="1" style="stop-color: rgb(161,144,90);"></stop>
      </linearGradient>
      <path data-tooltip-text="Triceps" class="tooltip-trigger"
        d="M50.708,153.249c0,0,1.083,16.499,1.333,17.582c0,0-0.875,0.959-1,1.793 c-0.125,0.833-2.333,13.334-3.333,25.458c0,0-1.75-4.917-1.375-6.854S50.396,154.394,50.708,153.249z M71.521,202.727c0,0-4.5-4.188-4.313-7.125c0,0-0.25-0.563,0.625-1.875s8.563-13.375,9.313-15.688 c0,0-3.875,16.438-4.5,18.75S71.521,202.727,71.521,202.727z M202.1,153.249c0,0-1.083,16.499-1.333,17.582c0,0,0.875,0.959,1,1.793 c0.125,0.833,2.333,13.334,3.333,25.458c0,0,1.75-4.917,1.375-6.854S202.412,154.394,202.1,153.249z M181.287,202.727c0,0,4.5-4.188,4.313-7.125c0,0,0.25-0.563-0.625-1.875 s-8.563-13.375-9.313-15.688c0,0,3.875,16.438,4.5,18.75S181.287,202.727,181.287,202.727z"
        fill="url(#SVGID_4_)" id="muscle-4" style=""></path>
    </g>
    <g id="abdominals" class="muscle">
      <linearGradient gradientUnits="userSpaceOnUse" id="SVGID_10_" x1="99.6724" x2="125.583" y1="171.4102"
        y2="171.4102">
        <stop offset="0" style="stop-color: rgb(94,100,75);"></stop>
        <stop offset="1" style="stop-color: rgb(95,103,55);"></stop>
      </linearGradient>
      <path data-tooltip-text="Abdominals" class="tooltip-trigger"
        d="M124.208,158.922c0,0,1.375,2.033,1.375,3.35c0,1.315,0,9.09,0,9.09s-0.125,1.913-2.25,3.229 c-2.125,1.316-17.25,7.774-18.25,8.73c-1,0.957-3.125,1.675-3.875,0.838c-0.75-0.838-1.5-2.631-1.5-5.98 c0-3.349-0.75-11.84,4.625-16.146S121.708,157.846,124.208,158.922z M124.458,179.853c0,0-0.375-2.153-2.375-2.512s-6.5,2.392-6.5,2.392l-12.125,6.698 c0,0-1,0.358-1.5,0.358s-0.375,5.143-0.375,5.861c0,0.717,0,3.229,0.875,4.425s4.875-1.196,6.5-1.794s9.625-2.393,13-2.033 c3.375,0.358,3.125-2.751,3.125-2.751S125.333,182.125,124.458,179.853z M120.083,194.922c0,0,4.375-0.358,5,2.033c0.625,2.393,0.25,8.253,0.125,9.329 c-0.125,1.077-2.5,4.784-5,5.741s-8.875,0-14.125,1.076c0,0-2.75,0.838-2.875-1.674s-1-10.166-0.25-11.123 S113.458,195.401,120.083,194.922z M119.458,213.94c0,0,4.875,2.832,5,5.225s0.25,22.555,0.25,29.125c0,5,0.583,30.6-0.25,31.875 c0,0-3.5-0.479-5-0.797c-1.5-0.32-4.159-3.979-4.625-4.953c-1.375-2.875-7.25-16.375-9.875-28.5 c-0.739-3.416-2.875-20.497-1.875-24.324s1.667-7.017,3.5-7.176S117.5,214.581,119.458,213.94z M128.6,158.922c0,0-1.375,2.033-1.375,3.35c0,1.315,0,9.09,0,9.09s0.125,1.913,2.25,3.229 c2.125,1.316,17.25,7.774,18.25,8.73c1,0.957,3.125,1.675,3.875,0.838c0.75-0.838,1.5-2.631,1.5-5.98 c0-3.349,0.75-11.84-4.625-16.146S131.1,157.846,128.6,158.922z M128.35,179.853c0,0,0.375-2.153,2.375-2.512s6.5,2.392,6.5,2.392l12.125,6.698 c0,0,1,0.358,1.5,0.358s0.375,5.143,0.375,5.861c0,0.717,0,3.229-0.875,4.425s-4.875-1.196-6.5-1.794s-9.625-2.393-13-2.033 c-3.375,0.358-3.125-2.751-3.125-2.751S127.475,182.125,128.35,179.853z M132.725,194.922c0,0-4.375-0.358-5,2.033c-0.625,2.393-0.25,8.253-0.125,9.329 c0.125,1.077,2.5,4.784,5,5.741s8.875,0,14.125,1.076c0,0,2.75,0.838,2.875-1.674s1-10.166,0.25-11.123 S139.35,195.401,132.725,194.922z M133.35,213.94c0,0-4.875,2.832-5,5.225s-0.25,22.555-0.25,29.125c0,5-0.583,30.6,0.25,31.875 c0,0,3.5-0.479,5-0.797c1.5-0.32,4.159-3.979,4.625-4.953c1.375-2.875,7.25-16.375,9.875-28.5 c0.739-3.416,2.875-20.497,1.875-24.324s-1.667-7.017-3.5-7.176S135.308,214.581,133.35,213.94z"
        fill="url(#SVGID_10_)" id="muscle-10" style=""></path>
    </g>
    <g id="gastrocnemius" class="muscle">
      <linearGradient gradientUnits="userSpaceOnUse" id="SVGID_14_" x1="105.1758" x2="120.0073" y1="457.5" y2="457.5">
        <stop offset="0" style="stop-color: rgb(129,109,152);"></stop>
        <stop offset="1" style="stop-color: rgb(116,80,154);"></stop>
      </linearGradient>
      <path data-tooltip-text="Gastrocnemius" class="tooltip-trigger"
        d="M115.74,414.479c0,0-0.176,5.746-3.032,9.16c-2.856,3.414-6.375,7.025-7.375,15.275 c-1.065,8.789,3.375,42.875,10.523,61.607c0,0,2.721-31.682,3.67-38.156C120.475,455.893,120.398,433.879,115.74,414.479z M137.067,414.479c0,0,0.176,5.746,3.032,9.16c2.856,3.414,6.375,7.025,7.375,15.275 c1.065,8.789-3.375,42.875-10.523,61.607c0,0-2.721-31.682-3.67-38.156C132.333,455.893,132.409,433.879,137.067,414.479z"
        fill="url(#SVGID_14_)" id="muscle-14" style=""></path>
    </g>
    <g id="sartorius_abductors" class="muscle">
      <linearGradient gradientUnits="userSpaceOnUse" id="SVGID_20_" x1="84.5298" x2="123.063" y1="322.0869"
        y2="322.0869">
        <stop offset="0" style="stop-color: rgb(73,79,117);"></stop>
        <stop offset="1" style="stop-color: rgb(50,55,125);"></stop>
      </linearGradient>
      <path data-tooltip-text="Sartorius &amp; Abductors" class="tooltip-trigger"
        d="M118.737,386.057c-0.022-8.016,3.674-42.408,4.146-49.646c0.472-7.24-0.133-46.079-0.133-46.079 c-9.875-6-16.542-28.542-20.542-35.167c-1.757-2.91-7.375-8.5-9.297-9.965c-1.125-0.857-2.88-1.892-3.661-2.868 c-1.667-2.083-3.542-8.001-3.542-8.001c-2,2.168-1.198,4.34,0.5,13.168c0.833,4.333,1,7.666,2.333,9.166 c16.057,18.062,18.121,36.818,20.667,47c1.5,6,4.094,30.086,5.875,43.583c0.583,4.417,1.458,13.416,1.512,23.641 c-0.22,14.775-3.696,17.311-4.092,18.604c-0.417,1.361-1.642,8.703-0.308,14.121c1.335,5.418,3.311,6.23,3.311,6.23 S118.747,389.809,118.737,386.057z M134.071,386.057c0.022-8.016-3.674-42.408-4.146-49.646c-0.472-7.24,0.133-46.079,0.133-46.079 c9.875-6,16.542-28.542,20.542-35.167c1.757-2.91,7.375-8.5,9.297-9.965c1.125-0.857,2.88-1.892,3.661-2.868 c1.667-2.083,3.542-8.001,3.542-8.001c2,2.168,1.198,4.34-0.5,13.168c-0.833,4.333-1,7.666-2.333,9.166 c-16.057,18.062-18.121,36.818-20.667,47c-1.5,6-4.094,30.086-5.875,43.583c-0.583,4.417-1.458,13.416-1.512,23.641 c0.22,14.775,3.696,17.311,4.092,18.604c0.417,1.361,1.642,8.703,0.308,14.121c-1.335,5.418-3.311,6.23-3.311,6.23 S134.061,389.809,134.071,386.057z"
        fill="url(#SVGID_20_)" id="muscle-20" style=""></path>
    </g>
    <g id="sternocleidomastoid" class="muscle">
      <linearGradient gradientUnits="userSpaceOnUse" id="SVGID_17_" x1="107.229" x2="125.7188" y1="84.0508"
        y2="84.0508">
        <stop offset="0" style="stop-color: rgb(171,104,149);"></stop>
        <stop offset="1" style="stop-color: rgb(176,36,134);"></stop>
      </linearGradient>
      <path data-tooltip-text="Sternocleidomastoid" class="tooltip-trigger"
        d="M107.229,62.772c0,0,0.946,17.958,1.198,19.943c0.252,1.986,0.757,17.605-0.504,19.458 c0,0,4.12-1.5,7.062-1.588c1.008-0.03,4.666,0.397,8.448,3.972c0,0,1.892,0.992,2.27,0.728c0.378-0.265-5.758-14.847-6.62-17.804 c-2.815-9.656-3.173-15.354-3.93-16.545C114.396,69.744,107.733,64.228,107.229,62.772z M145.579,62.772c0,0-0.946,17.958-1.198,19.943c-0.252,1.986-0.757,17.605,0.504,19.458 c0,0-4.12-1.5-7.062-1.588c-1.008-0.03-4.666,0.397-8.448,3.972c0,0-1.892,0.992-2.27,0.728c-0.378-0.265,5.758-14.847,6.62-17.804 c2.815-9.656,3.173-15.354,3.93-16.545C138.412,69.744,145.074,64.228,145.579,62.772z"
        fill="url(#SVGID_17_)" id="muscle-17"></path>
    </g>
    <g id="quadriceps" class="muscle">
      <linearGradient gradientTransform="matrix(-1 0 0 1 -332.0254 0)" gradientUnits="userSpaceOnUse" id="SVGID_43_"
        x1="-508.4536" x2="-469.5288" y1="324.6465" y2="324.6465">
        <stop offset="0" style="stop-color: rgb(126,155,181);"></stop>
        <stop offset="1" style="stop-color: rgb(101,142,185);"></stop>
      </linearGradient>
      <path data-tooltip-text="Quadriceps" class="tooltip-trigger"
        d="M143.933,309.498c0,0-3.208,28.333-4.542,38.333c-1.047,7.852-6.027,41.003,6.206,42.962 c7.664-1.539,10.169-7.795,11.169-10.129c1-2.332,4.333-6.166,4.333-6.166c6.167-4.334,7.564-9.09,7.564-9.09 c5.13-12.164,9.891-40.885,6.769-77.473c0,0-1.377-5.721-2.667-8.435c-3.828-8.061-6.833-18.166-7.833-21 C164.933,258.5,152.266,266.495,143.933,309.498z M108.875,309.498c0,0,3.208,28.333,4.542,38.333c1.047,7.852,6.027,41.003-6.206,42.962 c-7.664-1.539-10.169-7.795-11.169-10.129c-1-2.332-4.333-6.166-4.333-6.166c-6.167-4.334-7.564-9.09-7.564-9.09 c-5.13-12.164-9.891-40.885-6.769-77.473c0,0,1.377-5.721,2.667-8.435c3.828-8.061,6.833-18.166,7.833-21 C87.875,258.5,100.542,266.495,108.875,309.498z"
        fill="url(#SVGID_43_)" id="muscle-43"></path>
    </g>
    <g id="brachioradialis" class="muscle">
      <linearGradient gradientTransform="matrix(-1 0 0 1 -332.0254 0)" gradientUnits="userSpaceOnUse" id="SVGID_44_"
        x1="-545.25" x2="-532.6807" y1="231.106" y2="231.106">
        <stop offset="0" style="stop-color: rgb(66, 186, 191);"></stop>
        <stop offset="1" style="stop-color: rgb(149, 206, 189);"></stop>
      </linearGradient>
      <path data-tooltip-text="Brachioradialis" class="tooltip-trigger"
        d="M200.725,209.415c3.165-4.747,4.96-9.754,5.893-12.992c0.062,0.813,0.138,1.412,0.232,1.742 c0.692,2.422,2.343,3.895,5.449,15.839c0.186,2.286,0.242,4.169,0.176,5.286c-0.25,4.25,0.75,46.5,0.75,46.5 c-0.875-6.625-8.125-26.125-10.625-37.5S200.725,209.415,200.725,209.415z M52.083,209.415c-3.165-4.747-4.96-9.754-5.893-12.992c-0.062,0.813-0.138,1.412-0.232,1.742 c-0.692,2.422-2.343,3.895-5.449,15.839c-0.186,2.286-0.242,4.169-0.176,5.286c0.25,4.25-0.75,46.5-0.75,46.5 c0.875-6.625,8.125-26.125,10.625-37.5S52.083,209.415,52.083,209.415z"
        fill="url(#SVGID_44_)" id="muscle-44" style=""></path>
    </g>
    <g id="trapezius" class="muscle">
      <linearGradient gradientUnits="userSpaceOnUse" id="SVGID_18_" x1="72.917" x2="107.5298" y1="91.4072" y2="91.4072">
        <stop offset="0" style="stop-color: rgb(124,67,89);"></stop>
        <stop offset="1" style="stop-color: rgb(78,46,54);"></stop>
      </linearGradient>
      <path data-tooltip-text="Trapezius" class="tooltip-trigger"
        d="M106.809,79.04c0.307,3.086,0.532,6.221,0.682,9.322c0.12,2.486-0.062,4.957-0.126,7.441 c-0.045,1.741,0.361,4.069-0.817,5.529c-2.239,2.774-8.049,2.271-11.148,2.293c-3.904,0.028-7.811,0.089-11.714,0.149 c-3.684,0.056-7.068-2.442-10.768-2.442c0,0,2.916-1.625,6.083-3.375c3.167-1.75,8.402-6.125,9.917-7.375 S103.917,80.665,106.809,79.04z M145.999,79.04c-0.307,3.086-0.532,6.221-0.682,9.322c-0.12,2.486,0.062,4.957,0.126,7.441 c0.045,1.741-0.361,4.069,0.817,5.529c2.239,2.774,8.049,2.271,11.148,2.293c3.904,0.028,7.811,0.089,11.714,0.149 c3.684,0.056,7.068-2.442,10.768-2.442c0,0-2.916-1.625-6.083-3.375c-3.167-1.75-8.402-6.125-9.917-7.375 S148.891,80.665,145.999,79.04z"
        fill="url(#SVGID_18_)" id="muscle-18"></path>
    </g>
    <g id="biceps" class="muscle">
      <linearGradient gradientUnits="userSpaceOnUse" id="SVGID_19_" x1="48.3745" x2="77.793" y1="175.6011"
        y2="175.6011">
        <stop offset="0" style="stop-color: rgb(203,174,104);"></stop>
        <stop offset="1" style="stop-color: rgb(208,168,70);"></stop>
      </linearGradient>
      <path data-tooltip-text="Biceps" class="tooltip-trigger"
        d="M76.792,175.328c1.583-7.583,1.416-27.409-1.417-36.496c0,0-0.255-0.076-0.851,0.568l0.018-0.069 c0,0-1.5,2-3.583,3.917s-11.25,12.833-18.833,29.25c0,0-2.667,12.247-3.75,27.33c0,0,1.021,3.273,4.417,8.916 c0,0,5.166-4.582,6.583-5.666c0,0,0.651-0.329,1.207-0.097c2.048,4.42,10.71,9.392,10.71,9.392l0.25-8.463 c0,0-5.834-4.833-5.167-8.75C67.042,191.245,75.208,182.911,76.792,175.328z M176.016,175.328c-1.583-7.583-1.416-27.409,1.417-36.496c0,0,0.255-0.076,0.851,0.568 l-0.018-0.069c0,0,1.5,2,3.583,3.917s11.25,12.833,18.833,29.25c0,0,2.667,12.247,3.75,27.33c0,0-1.021,3.273-4.417,8.916 c0,0-5.166-4.582-6.583-5.666c0,0-0.651-0.329-1.207-0.097c-2.048,4.42-10.71,9.392-10.71,9.392l-0.25-8.463 c0,0,5.834-4.833,5.167-8.75C185.766,191.245,177.599,182.911,176.016,175.328z"
        fill="url(#SVGID_19_)" id="muscle-19" style=""></path>
    </g>
    <g id="peroneus_longus" class="muscle">
      <linearGradient gradientUnits="userSpaceOnUse" id="SVGID_16_" x1="85.0171" x2="105.689" y1="465.7764"
        y2="465.7764">
        <stop offset="0" style="stop-color: rgb(150,106,132);"></stop>
        <stop offset="1" style="stop-color: rgb(145,86,123);"></stop>
      </linearGradient>
      <path data-tooltip-text="Peroneus Longus" class="tooltip-trigger"
        d="M102.597,500.615c0,0,5.181,18.668,2.129,20.324c-3.052,1.658-4.125-4.127-5.926-10.686 s-5.309-22.674-5.309-22.674s-7.516-32.244-8.105-37.514c-0.589-5.271-0.612-29.033,0.967-39.74c0,0-0.646,29.244,2.486,41.346 C91.97,463.773,102.597,500.615,102.597,500.615z M150.21,500.615c0,0-5.181,18.668-2.129,20.324c3.052,1.658,4.125-4.127,5.926-10.686 s5.309-22.674,5.309-22.674s7.516-32.244,8.105-37.514c0.589-5.271,0.612-29.033-0.967-39.74c0,0,0.646,29.244-2.486,41.346 C160.838,463.773,150.21,500.615,150.21,500.615z"
        fill="url(#SVGID_16_)" id="muscle-16" style=""></path>
    </g>
    <g id="external_oblique" class="muscle">
      <linearGradient gradientTransform="matrix(-1 0 0 1 -332.0254 0)" gradientUnits="userSpaceOnUse" id="SVGID_29_"
        x1="-506.6226" x2="-486.9468" y1="166.9961" y2="166.9961">
        <stop offset="0" style="stop-color: rgb(124,111,80);"></stop>
        <stop offset="1" style="stop-color: rgb(127,113,51);"></stop>
      </linearGradient>
      <path data-tooltip-text="External Oblique" class="tooltip-trigger"
        d="M173.225,144.332c0,0-0.875,13.634-17.75,17.581l0.875,1.436c0,0-2.375,5.621-1,9.209 s2.875,3.828,2.875,3.828s-3,3.826-3.125,7.176c-0.125,3.349,0.5,5.382,2.125,6.1c0,0,8.5-1.076,12.5-7.296 c0,0,0.75-2.751,0.75-4.903c0,0,2.875-2.273,2.875-12.559c0,0,0.375-0.718,0.625-2.393 C174.225,160.836,175.6,152.943,173.225,144.332z M169.35,184.278c0,0-3.75,4.307-11.75,6.459c0,0-3.5,2.87-3.5,6.817 c0,3.946,0.875,5.741,1.625,5.979c0,0-2.625,3.708-2.5,6.697c0.125,2.99,1,5.383,3.125,5.742c0,0,5.75-1.316,8-4.307 c0,0,0.5-9.568,1.75-13.754C166.1,197.913,168.975,192.411,169.35,184.278z M164.808,213.665c0,0-1.333,1.983-10.208,4.75c0,0-2.625,1.509-2.5,6.162 c0.125,4.652-0.625,19.186-2.5,23.713c0,0,11.917-9.576,17.292-17.875c0,0-0.917-11.948-1.167-13.583 S165.641,215.165,164.808,213.665z M79.583,144.332c0,0,0.875,13.634,17.75,17.581l-0.875,1.436c0,0,2.375,5.621,1,9.209 s-2.875,3.828-2.875,3.828s3,3.826,3.125,7.176c0.125,3.349-0.5,5.382-2.125,6.1c0,0-8.5-1.076-12.5-7.296 c0,0-0.75-2.751-0.75-4.903c0,0-2.875-2.273-2.875-12.559c0,0-0.375-0.718-0.625-2.393 C78.583,160.836,77.208,152.943,79.583,144.332z M83.458,184.278c0,0,3.75,4.307,11.75,6.459c0,0,3.5,2.87,3.5,6.817 c0,3.946-0.875,5.741-1.625,5.979c0,0,2.625,3.708,2.5,6.697c-0.125,2.99-1,5.383-3.125,5.742c0,0-5.75-1.316-8-4.307 c0,0-0.5-9.568-1.75-13.754C86.708,197.913,83.833,192.411,83.458,184.278z M88,213.665c0,0,1.333,1.983,10.208,4.75c0,0,2.625,1.509,2.5,6.162 c-0.125,4.652,0.625,19.186,2.5,23.713c0,0-11.917-9.576-17.292-17.875c0,0,0.917-11.948,1.167-13.583S87.167,215.165,88,213.665z"
        fill="url(#SVGID_29_)" id="muscle-29" style=""></path>
    </g>
    <g id="abductors" class="muscle">
      <linearGradient gradientTransform="matrix(-1 0 0 1 -332.0254 0)" gradientUnits="userSpaceOnUse" id="SVGID_45_"
        x1="-513.9658" x2="-497.4053" y1="313.543" y2="313.543">
        <stop offset="0" style="stop-color: rgb(153,128,164);"></stop>
        <stop offset="1" style="stop-color: rgb(154,103,172);"></stop>
      </linearGradient>
      <path data-tooltip-text="Absuctors" class="tooltip-trigger"
        d="M169.866,238.603c0,0-2.129,14.196-2.135,18.074c-0.006,3.876,0.4,6.928,1.082,8.783 c0.683,1.855,6.962,17.045,8.384,22.629s4.466,69.605-11.803,88.277c0,0-0.26,7.846,1.502,10.959 c1.763,3.115,1.33-0.945,1.495-1.826c0.5-2.667,0.983-5.839,1.833-9.167c1-3.916,15.708-37.958,10.667-86.583 C176.642,248.768,169.866,238.603,169.866,238.603z M82.941,238.603c0,0,2.129,14.196,2.135,18.074c0.006,3.876-0.4,6.928-1.082,8.783 c-0.683,1.855-6.962,17.045-8.384,22.629s-4.466,69.605,11.803,88.277c0,0,0.26,7.846-1.502,10.959 c-1.763,3.115-1.33-0.945-1.495-1.826c-0.5-2.667-0.983-5.839-1.833-9.167c-1-3.916-15.708-37.958-10.667-86.583 C76.166,248.768,82.941,238.603,82.941,238.603z"
        fill="url(#SVGID_45_)" id="muscle-45"></path>
    </g>
    <g id="tibialis_anterior" class="muscle">
      <linearGradient gradientUnits="userSpaceOnUse" id="SVGID_15_" x1="87.9873" x2="113.6328" y1="461.4883"
        y2="461.4883">
        <stop offset="0" style="stop-color: rgb(207,116,69);"></stop>
        <stop offset="1" style="stop-color: rgb(215,88,19);"></stop>
      </linearGradient>
      <path data-tooltip-text="Tibialis Anterior" class="tooltip-trigger"
        d="M89.717,406.646c0,0,5.616,6.643,7.991,16.518c1.553,6.459,15.925,92.766,15.925,92.766 s-1.59,2.953-5.533-7.172c-3.942-10.125-11.454-34.367-12.822-38.66c-1.37-4.295-5.258-16.17-6.086-29.951 S86.711,406.805,89.717,406.646z M163.09,406.646c0,0-5.616,6.643-7.991,16.518c-1.553,6.459-15.925,92.766-15.925,92.766 s1.59,2.953,5.533-7.172c3.942-10.125,11.454-34.367,12.822-38.66c1.37-4.295,5.258-16.17,6.086-29.951 S166.097,406.805,163.09,406.646z"
        fill="url(#SVGID_15_)" id="muscle-15" style=""></path>
    </g>
  </g>
  <g id="tooltip" visibility="hidden" transform="translate(191.51311670301138 152.78347925929975)">
    <rect x="2" y="2" width="60.59040832519531" height="24" fill="black" opacity="0.4" rx="2" ry="2"></rect>
    <rect width="60.59040832519531" height="24" fill="white" rx="2" ry="2"></rect>
    <polygon points="7,0 12,-10 17,0" fill="black" opacity="0.4"></polygon>
    <polygon points="5,0 10,-10 15,0" fill="white"></polygon>
    <text x="4" y="6">Deltoid</text>
  </g>
  <script type="text/ecmascript">
    (function () {
                              var svg = document.getElementById('rd-map');
                              var tooltip = svg.getElementById('tooltip');
                              var tooltipText = tooltip.getElementsByTagName('text')[0];
                              var tooltipRects = tooltip.getElementsByTagName('rect');
                              var triggers = svg.getElementsByClassName('tooltip-trigger');

                              for (var i = 0; i &lt; triggers.length; i++) {
                                triggers[i].addEventListener('mousemove', showTooltip);
                                triggers[i].addEventListener('mouseout', hideTooltip);
                              }

                              function showTooltip(evt) {
                                var CTM = svg.getScreenCTM();
                                var x = (evt.clientX - CTM.e + 6) / CTM.a;
                                var y = (evt.clientY - CTM.f + 20) / CTM.d;
                                tooltip.setAttributeNS(null, "transform", "translate(" + x + " " + y + ")");
                                tooltip.setAttributeNS(null, "visibility", "visible");

                                tooltipText.firstChild.data = evt.target.getAttributeNS(null, "data-tooltip-text");
                                var length = tooltipText.getComputedTextLength();
                                for (var i = 0; i &lt; tooltipRects.length; i++) {
                                  tooltipRects[i].setAttributeNS(null, "width", length + 8);
                                }
                              }

                              function hideTooltip(evt) {
                                tooltip.setAttributeNS(null, "visibility", "hidden");
                              }
                            })()
  </script>
</svg>