<svg version="1.1" xmlns="http://www.w3.org/2000/svg" x="0px" y="0px" width="248.333px" height="557.994px"
  viewBox="0 0 248.333 557.994" enable-background="new 0 0 248.333 557.994">
  <g id="Body_x5F_base">
    <linearGradient id="SVGID_1_" gradientUnits="userSpaceOnUse" x1="11.5801" y1="277.9492" x2="241.1274" y2="277.9492">
      <stop offset="0" style="stop-color: rgb(66, 186, 191);"></stop>
      <stop offset="1" style="stop-color: rgb(149, 206, 189);"></stop>
    </linearGradient>
    <linearGradient id="grad" gradientTransform="rotate(90)">
      <stop offset="5%" stop-color="#C70D6C"></stop>
      <stop offset="95%" stop-color="#BB1817"></stop>
    </linearGradient>
    <path fill="#FFFFFF" stroke="url(#SVGID_1_)" stroke-miterlimit="10" d="M202.103,152.582c0.303,1.112,3.78,33.957,4.329,37.677
 c0.047,3.624,0.172,6.366,0.421,7.24c0.692,2.422,2.343,3.895,5.449,15.839c0.186,2.286,0.242,4.168,0.176,5.286
 c-0.216,3.675,0.502,35.751,0.701,44.371c0,0,0.002,1.364,0.018,1.723c0,0,0.656,9.906,1.781,11.906c0,0,5.625,4,7.125,5.125
 s7.25,6,7.625,6.625s1.5,5,2.5,6.75s6.375,7.875,8.375,8.875c0,0-0.125,1.625-1.125,2.375s-3.875,0.5-6-0.25s-4.875-3.875-5-4.875
 s-2.25-4.625-3.25-5.25s-1.625,0.625-1.625,0.625l0.625,10.5v22.125c0,0-0.75,2.25-1.375,2.5s-2.25,1-3.875-1.375
 c0,0-0.125,4.125-0.375,5.25s-1.5,1.75-2.5,1.75s-2.125-0.625-2.375-1.75s-0.875-5.5-0.875-5.5s0.125,4-0.25,4.375
 s-3.125,1.625-4.375-2s-3.125-16.625-3.125-16.625l-0.375-1.75l0.375,11.75c0,0-0.625,2-1.625,2.25s-2.25,0.125-2.875-4.25
 s-1.75-11.125-1.75-11.125l-1.625-6.25c0,0-0.875-7.25-1.125-9.875s-0.375-11-0.125-12.75s0.875-5.375,0.875-6
 c0,0,0.083-4.708-0.406-7.641c0,0-8.469-28.859-11.719-35.234s-3-21.781-3-21.781c-0.063-0.625-0.208-1.51-0.208-1.51l-0.25-8.462
 v-1.333c-0.1-0.697-0.553-3.751-1.104-5.789c-0.625-2.313-4.5-18.75-4.5-18.75s-1.396-4.125-1.479-8.125
 c-0.032-1.514-0.445-1.856-0.947-1.699c-0.528,7.47-2.761,9.245-2.761,9.245c0,2.153-0.75,4.904-0.75,4.904
 c-0.042,0.065-0.091,0.121-0.134,0.185c-0.062,0.521-0.151,1.24-0.26,2.016c-0.429,7.972-3.231,13.347-3.231,13.347
 c-1.25,4.186-1.75,13.754-1.75,13.754c1.5,3.404,1.844,7.466,1.844,7.466c0.229,1.42,0.98,9.173,1,11c0,0,1.549,4.269,2.134,6.994
 c1.232,2.686,6.798,16.267,10.963,50.552c6,49.395-8.423,84.298-9.66,87.502c-1.236,3.206-1.941,7.397-2.249,8.24
 c-0.071,0.195-0.138,0.572-0.219,0.993c-0.098,3.282-0.23,7.849-0.23,8.583c0,1.167-1.333,18.167-1.333,18.167l0.007,0.283
 c1.423,11.159,1.383,33.524,0.814,38.618c-0.589,5.271-8.105,37.515-8.105,37.515s-1.788,8.211-3.465,15.297
 c-0.867,5.154-1.626,10.25-1.626,12.287c0,4.75,0,10.375-0.625,12.375c0,0-0.5,6.625,0.625,9.125s4.75,7.625,4.25,11
 s-1.625,3.625-1.625,3.625s-0.375,0.75-1.75,0.75s-3-0.25-3-0.25s-2.75,0.625-3.875,0.125c0,0-2.5,0.375-3.875-0.375
 c0,0-2.875,1.125-5.375,0.125c0,0-2.75,1.75-9.25,0.375c0,0-1.125-0.625-1.625-2.75c0,0-1.125-0.625-0.875-3.375
 s4.25-8.25,4.875-15.25s1.5-12.25,1.5-12.25s1.125-3.75,1.625-5.375s1.579-8.785,1.727-12.518c0,0-2.721-31.682-3.67-38.156
 c-0.949-6.474-0.873-28.486,3.786-47.888c0.227-1.593,0.233-4.635,0.233-4.635s-3.24-20.035-3.23-23.787
 c0.022-8.016-3.674-42.407-4.146-49.646c-0.472-7.239-0.361-45.337-0.361-45.337c-0.412-0.104-0.401-0.533-2.151-0.971
 c-1.209-0.167-2.124,0-2.124,0c-1.75,0.438-1.739,0.867-2.151,0.971c0,0,0.111,38.098-0.361,45.337
 c-0.472,7.239-4.168,41.631-4.146,49.646c0.01,3.752-3.23,23.787-3.23,23.787s-0.047,3.198,0.233,4.635
 c4.658,19.401,4.734,41.414,3.786,47.888c-0.949,6.475-3.67,38.156-3.67,38.156c0.148,3.732,1.227,10.893,1.727,12.518
 s1.625,5.375,1.625,5.375s0.875,5.25,1.5,12.25s4.625,12.5,4.875,15.25s-0.875,3.375-0.875,3.375c-0.5,2.125-1.625,2.75-1.625,2.75
 c-6.5,1.375-9.25-0.375-9.25-0.375c-2.5,1-5.375-0.125-5.375-0.125c-1.375,0.75-3.875,0.375-3.875,0.375
 c-1.125,0.5-3.875-0.125-3.875-0.125s-1.625,0.25-3,0.25s-1.75-0.75-1.75-0.75s-1.125-0.25-1.625-3.625s3.125-8.5,4.25-11
 s0.625-9.125,0.625-9.125c-0.625-2-0.625-7.625-0.625-12.375c0-2.037-0.759-7.133-1.626-12.287
 c-1.678-7.086-3.465-15.297-3.465-15.297s-7.516-32.244-8.105-37.515c-0.569-5.094-0.609-27.459,0.814-38.618l0.007-0.283
 c0,0-1.333-17-1.333-18.167c0-0.734-0.132-5.301-0.23-8.583c-0.081-0.421-0.148-0.798-0.219-0.993
 c-0.308-0.843-1.013-5.034-2.249-8.24c-1.236-3.204-15.66-38.107-9.66-87.502c4.165-34.285,9.73-47.866,10.963-50.552
 c0.585-2.725,2.134-6.994,2.134-6.994c0.02-1.827,0.771-9.58,1-11c0,0,0.344-4.063,1.844-7.466c0,0-0.5-9.568-1.75-13.754
 c0,0-2.802-5.375-3.231-13.347c-0.109-0.776-0.199-1.496-0.26-2.016c-0.043-0.064-0.092-0.12-0.134-0.185
 c0,0-0.75-2.751-0.75-4.904c0,0-2.233-1.775-2.761-9.245c-0.502-0.157-0.916,0.185-0.947,1.699c-0.083,4-1.479,8.125-1.479,8.125
 s-3.875,16.438-4.5,18.75c-0.551,2.038-1.004,5.092-1.104,5.789v1.333l-0.25,8.462c0,0-0.146,0.885-0.208,1.51
 c0,0,0.25,15.406-3,21.781s-11.719,35.234-11.719,35.234c-0.489,2.932-0.406,7.641-0.406,7.641c0,0.625,0.625,4.25,0.875,6
 s0.125,10.125-0.125,12.75s-1.125,9.875-1.125,9.875l-1.625,6.25c0,0-1.125,6.75-1.75,11.125s-1.875,4.5-2.875,4.25
 s-1.625-2.25-1.625-2.25l0.375-11.75l-0.375,1.75c0,0-1.875,13-3.125,16.625s-4,2.375-4.375,2s-0.25-4.375-0.25-4.375
 s-0.625,4.375-0.875,5.5s-1.375,1.75-2.375,1.75s-2.25-0.625-2.5-1.75s-0.375-5.25-0.375-5.25c-1.625,2.375-3.25,1.625-3.875,1.375
 s-1.375-2.5-1.375-2.5v-22.125l0.625-10.5c0,0-0.625-1.25-1.625-0.625s-3.125,4.25-3.25,5.25s-2.875,4.125-5,4.875s-5,1-6,0.25
 s-1.125-2.375-1.125-2.375c2-1,7.375-7.125,8.375-8.875s2.125-6.125,2.5-6.75s6.125-5.5,7.625-6.625s7.125-5.125,7.125-5.125
 c1.125-2,1.781-11.906,1.781-11.906c0.016-0.359,0.018-1.723,0.018-1.723c0.199-8.62,0.917-40.696,0.701-44.371
 c-0.066-1.118-0.009-3,0.176-5.286c3.105-11.944,4.757-13.417,5.449-15.839c0.25-0.874,0.375-3.616,0.421-7.24
 c0.549-3.72,4.025-36.565,4.329-37.677c0.104-0.354,0.583-2.864,0.583-2.864c-0.398-5.504-0.652-18.646,0.25-24.057
 c0.88-5.277,6.167-17.667,13.833-20.25c0,0,0.16-0.042,0.445-0.098c3.208-3.555,7.389-4.439,7.389-4.439s2.875-1.625,5.75-3.375
 s7.974-5.939,9.5-7c8.85-6.151,14.032-8.67,17.354-10.402c0.618-0.784,1.163-1.704,1.438-2.723
 c0.875-3.25-0.375-14.625-0.375-14.625c-0.75-1.375-1.25-7.625-1.25-7.625s-0.563-6.25-1-8.375
 c-0.767-3.724-1.275-7.435-1.375-8.563c-0.438-4.938-0.563-8.875-0.375-11.938c0.183-2.995,1.375-9.125,8-15.75
 c6.29-6.29,14.706-6.495,15.542-6.5c0,0,0.03,0,0.042,0s0.042,0,0.042,0c0.835,0.005,9.251,0.209,15.542,6.5
 c6.625,6.625,7.817,12.755,8,15.75c0.188,3.063,0.063,7-0.375,11.938c-0.1,1.127-0.608,4.839-1.375,8.563
 c-0.438,2.125-1,8.375-1,8.375s-0.5,6.25-1.25,7.625c0,0-1.25,11.375-0.375,14.625c0.238,0.883,0.681,1.688,1.196,2.398
 c3.476,2.045,9.207,5.134,17.594,10.727c1.546,1.031,6.625,5.25,9.5,7s5.75,3.375,5.75,3.375s4.181,0.884,7.389,4.439
 c0.285,0.057,0.445,0.098,0.445,0.098c7.667,2.583,12.953,14.973,13.833,20.25c0.902,5.411,0.648,18.553,0.25,24.057
 C201.52,149.717,201.769,151.665,202.103,152.582z"></path>
  </g>
  <g id="Body_male_front" class="body_diagram">
    <linearGradient id="SVGID_2_" gradientUnits="userSpaceOnUse" x1="77.5273" y1="133.0034" x2="124.5156" y2="133.0034">
      <stop offset="0" style="stop-color: rgb(66, 186, 191);"></stop>
      <stop offset="1" style="stop-color: rgb(149, 206, 189);"></stop>
    </linearGradient>
    <path id="muscle-0" fill="url(#SVGID_2_)" d="M78.042,136.525c6,25.647,24.167,21.4,24.167,21.4c13.833-1.595,19.667-5.427,19.667-5.427
 c6.333-3.834-0.5-35-2.167-39.058c-0.367-0.894-1-2.404-1.85-3.709c-0.888-1.362-1.012-1.378-3.024-1.695
 c-1.389-0.218-2.768-0.236-4.173-0.207c-6.632,0.145-14.23,0.646-19.838,4.125c-2.681,1.662-5.348,3.706-7.419,6.056
 c-1.64,1.861-2.822,3.355-4.112,5.45C79.291,123.46,76.375,131.395,78.042,136.525z"></path>
    <linearGradient id="SVGID_3_" gradientUnits="userSpaceOnUse" x1="50.9287" y1="137.3198" x2="98.958" y2="137.3198">
      <stop offset="0" style="stop-color: rgb(66, 186, 191);"></stop>
      <stop offset="1" style="stop-color: rgb(149, 206, 189);"></stop>
    </linearGradient>
    <path id="muscle-3" fill="red" d="M65.375,106.077c0,0,4.083-1.083,8.75,0.255c0,0,21.5-0.25,24.833-0.667
 c0,0-21.333,6.5-24.333,26.667c0,0-0.833,5.916-2,7.833s-10.208,8.062-19.792,28.813c0,0-0.792-14.15-1.292-16.317
 c-0.5-2.167-1.083-19.833,0-26.333C52.421,121.05,57.708,108.66,65.375,106.077z"></path>
    <linearGradient id="SVGID_4_" gradientUnits="userSpaceOnUse" x1="46.2803" y1="175.665" x2="52.0415" y2="175.665">
      <stop offset="0" style="stop-color: rgb(66, 186, 191);"></stop>
      <stop offset="1" style="stop-color: rgb(149, 206, 189);"></stop>
    </linearGradient>
    <path id="muscle-4" fill="url(#SVGID_4_)" d="M50.708,153.249c0,0,1.083,16.499,1.333,17.582c0,0-0.875,0.959-1,1.793
 c-0.125,0.833-2.333,13.334-3.333,25.458c0,0-1.75-4.917-1.375-6.854S50.396,154.394,50.708,153.249z"></path>
    <linearGradient id="SVGID_5_" gradientUnits="userSpaceOnUse" x1="67.1748" y1="190.3833" x2="77.1455" y2="190.3833">
      <stop offset="0" style="stop-color: rgb(66, 186, 191);"></stop>
      <stop offset="1" style="stop-color: rgb(149, 206, 189);"></stop>
    </linearGradient>
    <path id="muscle-5" fill="url(#SVGID_5_)" d="M71.521,202.727c0,0-4.5-4.188-4.313-7.125c0,0-0.25-0.563,0.625-1.875s8.563-13.375,9.313-15.688
 c0,0-3.875,16.438-4.5,18.75S71.521,202.727,71.521,202.727z"></path>
    <linearGradient id="SVGID_6_" gradientUnits="userSpaceOnUse" x1="39.958" y1="238.0996" x2="71.0874" y2="238.0996">
      <stop offset="0" style="stop-color: rgb(66, 186, 191);"></stop>
      <stop offset="1" style="stop-color: rgb(149, 206, 189);"></stop>
    </linearGradient>
    <path id="muscle-6" fill="url(#SVGID_6_)" d="M52.708,210.727c0,0,0.459-1.699,2-2.5c1.563-0.813,5-4.188,5-4.188s3.75,5.5,11.375,9.375
 c0,0,0.25,15.875-3,22.25s-11.729,35.25-11.729,35.25s-7.082,1.615-11.563,1.167c-3.333-0.333-4.833-1.167-4.833-1.167
 s2-12.5,3.5-17S54.833,225.477,52.708,210.727z"></path>
    <linearGradient id="SVGID_7_" gradientUnits="userSpaceOnUse" x1="78.2104" y1="166.9961" x2="97.8862" y2="166.9961">
      <stop offset="0" style="stop-color: rgb(66, 186, 191);"></stop>
      <stop offset="1" style="stop-color: rgb(149, 206, 189);"></stop>
    </linearGradient>
    <path id="muscle-7" fill="url(#SVGID_7_)" d="M79.583,144.332c0,0,0.875,13.634,17.75,17.581l-0.875,1.436c0,0,2.375,5.621,1,9.209
 s-2.875,3.828-2.875,3.828s3,3.826,3.125,7.176c0.125,3.349-0.5,5.382-2.125,6.1c0,0-8.5-1.076-12.5-7.296
 c0,0-0.75-2.751-0.75-4.903c0,0-2.875-2.273-2.875-12.559c0,0-0.375-0.718-0.625-2.393
 C78.583,160.836,77.208,152.943,79.583,144.332z"></path>
    <linearGradient id="SVGID_8_" gradientUnits="userSpaceOnUse" x1="83.458" y1="200.1255" x2="99.5874" y2="200.1255">
      <stop offset="0" style="stop-color: rgb(66, 186, 191);"></stop>
      <stop offset="1" style="stop-color: rgb(149, 206, 189);"></stop>
    </linearGradient>
    <path id="muscle-8" fill="url(#SVGID_8_)" d="M83.458,184.278c0,0,3.75,4.307,11.75,6.459c0,0,3.5,2.87,3.5,6.817
 c0,3.946-0.875,5.741-1.625,5.979c0,0,2.625,3.708,2.5,6.697c-0.125,2.99-1,5.383-3.125,5.742c0,0-5.75-1.316-8-4.307
 c0,0-0.5-9.568-1.75-13.754C86.708,197.913,83.833,192.411,83.458,184.278z"></path>
    <linearGradient id="SVGID_9_" gradientUnits="userSpaceOnUse" x1="85.9165" y1="230.9771" x2="103.208" y2="230.9771">
      <stop offset="0" style="stop-color: rgb(66, 186, 191);"></stop>
      <stop offset="1" style="stop-color: rgb(149, 206, 189);"></stop>
    </linearGradient>
    <path id="muscle-9" fill="url(#SVGID_9_)"
      d="M88,213.665c0,0,1.333,1.983,10.208,4.75c0,0,2.625,1.509,2.5,6.162
 c-0.125,4.652,0.625,19.186,2.5,23.713c0,0-11.917-9.576-17.292-17.875c0,0,0.917-11.948,1.167-13.583S87.167,215.165,88,213.665z"></path>
    <linearGradient id="SVGID_10_" gradientUnits="userSpaceOnUse" x1="99.6724" y1="171.4102" x2="125.583" y2="171.4102">
      <stop offset="0" style="stop-color: rgb(66, 186, 191);"></stop>
      <stop offset="1" style="stop-color: rgb(149, 206, 189);"></stop>
    </linearGradient>
    <path id="muscle-10" fill="url(#SVGID_10_)" d="M124.208,158.922c0,0,1.375,2.033,1.375,3.35c0,1.315,0,9.09,0,9.09s-0.125,1.913-2.25,3.229
 c-2.125,1.316-17.25,7.774-18.25,8.73c-1,0.957-3.125,1.675-3.875,0.838c-0.75-0.838-1.5-2.631-1.5-5.98
 c0-3.349-0.75-11.84,4.625-16.146S121.708,157.846,124.208,158.922z"></path>
    <linearGradient id="SVGID_11_" gradientUnits="userSpaceOnUse" x1="101.5688" y1="187.3574" x2="125.1157"
      y2="187.3574">
      <stop offset="0" style="stop-color: rgb(66, 186, 191);"></stop>
      <stop offset="1" style="stop-color: rgb(149, 206, 189);"></stop>
    </linearGradient>
    <path id="muscle-11" fill="url(#SVGID_11_)" d="M124.458,179.853c0,0-0.375-2.153-2.375-2.512s-6.5,2.392-6.5,2.392l-12.125,6.698
 c0,0-1,0.358-1.5,0.358s-0.375,5.143-0.375,5.861c0,0.717,0,3.229,0.875,4.425s4.875-1.196,6.5-1.794s9.625-2.393,13-2.033
 c3.375,0.358,3.125-2.751,3.125-2.751S125.333,182.125,124.458,179.853z"></path>
    <linearGradient id="SVGID_12_" gradientUnits="userSpaceOnUse" x1="102.6572" y1="204.0698" x2="125.4341"
      y2="204.0698">
      <stop offset="0" style="stop-color: rgb(66, 186, 191);"></stop>
      <stop offset="1" style="stop-color: rgb(149, 206, 189);"></stop>
    </linearGradient>
    <path id="muscle-12" fill="url(#SVGID_12_)" d="M120.083,194.922c0,0,4.375-0.358,5,2.033c0.625,2.393,0.25,8.253,0.125,9.329
 c-0.125,1.077-2.5,4.784-5,5.741s-8.875,0-14.125,1.076c0,0-2.75,0.838-2.875-1.674s-1-10.166-0.25-11.123
 S113.458,195.401,120.083,194.922z"></path>
    <linearGradient id="SVGID_13_" gradientUnits="userSpaceOnUse" x1="102.8213" y1="247.0522" x2="124.9067"
      y2="247.0522">
      <stop offset="0" style="stop-color: rgb(66, 186, 191);"></stop>
      <stop offset="1" style="stop-color: rgb(149, 206, 189);"></stop>
    </linearGradient>
    <path id="muscle-13" fill="url(#SVGID_13_)" d="M119.458,213.94c0,0,4.875,2.832,5,5.225s0.25,22.555,0.25,29.125c0,5,0.583,30.6-0.25,31.875
 c0,0-3.5-0.479-5-0.797c-1.5-0.32-4.159-3.979-4.625-4.953c-1.375-2.875-7.25-16.375-9.875-28.5
 c-0.739-3.416-2.875-20.497-1.875-24.324s1.667-7.017,3.5-7.176S117.5,214.581,119.458,213.94z"></path>
    <linearGradient id="SVGID_14_" gradientUnits="userSpaceOnUse" x1="105.1758" y1="457.5" x2="120.0073" y2="457.5">
      <stop offset="0" style="stop-color: rgb(66, 186, 191);"></stop>
      <stop offset="1" style="stop-color: rgb(149, 206, 189);"></stop>
    </linearGradient>
    <path id="muscle-14" fill="url(#SVGID_14_)"
      d="M115.74,414.479c0,0-0.176,5.746-3.032,9.16c-2.856,3.414-6.375,7.025-7.375,15.275
 c-1.065,8.789,3.375,42.875,10.523,61.607c0,0,2.721-31.682,3.67-38.156C120.475,455.893,120.398,433.879,115.74,414.479z"></path>
    <linearGradient id="SVGID_15_" gradientUnits="userSpaceOnUse" x1="87.9873" y1="461.4883" x2="113.6328"
      y2="461.4883">
      <stop offset="0" style="stop-color: rgb(66, 186, 191);"></stop>
      <stop offset="1" style="stop-color: rgb(149, 206, 189);"></stop>
    </linearGradient>
    <path id="muscle-15" fill="url(#SVGID_15_)" d="M89.717,406.646c0,0,5.616,6.643,7.991,16.518c1.553,6.459,15.925,92.766,15.925,92.766
 s-1.59,2.953-5.533-7.172c-3.942-10.125-11.454-34.367-12.822-38.66c-1.37-4.295-5.258-16.17-6.086-29.951
 S86.711,406.805,89.717,406.646z"></path>
    <linearGradient id="SVGID_16_" gradientUnits="userSpaceOnUse" x1="85.0171" y1="465.7764" x2="105.689" y2="465.7764">
      <stop offset="0" style="stop-color: rgb(66, 186, 191);"></stop>
      <stop offset="1" style="stop-color: rgb(149, 206, 189);"></stop>
    </linearGradient>
    <path id="muscle-16" fill="url(#SVGID_16_)" d="M102.597,500.615c0,0,5.181,18.668,2.129,20.324c-3.052,1.658-4.125-4.127-5.926-10.686
 s-5.309-22.674-5.309-22.674s-7.516-32.244-8.105-37.514c-0.589-5.271-0.612-29.033,0.967-39.74c0,0-0.646,29.244,2.486,41.346
 C91.97,463.773,102.597,500.615,102.597,500.615z"></path>
    <linearGradient id="SVGID_17_" gradientUnits="userSpaceOnUse" x1="107.229" y1="84.0508" x2="125.7188" y2="84.0508">
      <stop offset="0" style="stop-color: rgb(66, 186, 191);"></stop>
      <stop offset="1" style="stop-color: rgb(149, 206, 189);"></stop>
    </linearGradient>
    <path id="muscle-17" fill="url(#SVGID_17_)" d="M107.229,62.772c0,0,0.946,17.958,1.198,19.943c0.252,1.986,0.757,17.605-0.504,19.458
 c0,0,4.12-1.5,7.062-1.588c1.008-0.03,4.666,0.397,8.448,3.972c0,0,1.892,0.992,2.27,0.728c0.378-0.265-5.758-14.847-6.62-17.804
 c-2.815-9.656-3.173-15.354-3.93-16.545C114.396,69.744,107.733,64.228,107.229,62.772z"></path>
    <linearGradient id="SVGID_18_" gradientUnits="userSpaceOnUse" x1="72.917" y1="91.4072" x2="107.5298" y2="91.4072">
      <stop offset="0" style="stop-color: rgb(66, 186, 191);"></stop>
      <stop offset="1" style="stop-color: rgb(149, 206, 189);"></stop>
    </linearGradient>
    <path id="muscle-18" fill="url(#SVGID_18_)" d="M106.809,79.04c0.307,3.086,0.532,6.221,0.682,9.322c0.12,2.486-0.062,4.957-0.126,7.441
 c-0.045,1.741,0.361,4.069-0.817,5.529c-2.239,2.774-8.049,2.271-11.148,2.293c-3.904,0.028-7.811,0.089-11.714,0.149
 c-3.684,0.056-7.068-2.442-10.768-2.442c0,0,2.916-1.625,6.083-3.375c3.167-1.75,8.402-6.125,9.917-7.375
 S103.917,80.665,106.809,79.04z"></path>
    <linearGradient id="SVGID_19_" gradientUnits="userSpaceOnUse" x1="48.3745" y1="175.6011" x2="77.793" y2="175.6011">
      <stop offset="0" style="stop-color: rgb(66, 186, 191);"></stop>
      <stop offset="1" style="stop-color: rgb(149, 206, 189);"></stop>
    </linearGradient>
    <path id="muscle-19" fill="url(#SVGID_19_)" d="M76.792,175.328c1.583-7.583,1.416-27.409-1.417-36.496c0,0-0.255-0.076-0.851,0.568l0.018-0.069
 c0,0-1.5,2-3.583,3.917s-11.25,12.833-18.833,29.25c0,0-2.667,12.247-3.75,27.33c0,0,1.021,3.273,4.417,8.916
 c0,0,5.166-4.582,6.583-5.666c0,0,0.651-0.329,1.207-0.097c2.048,4.42,10.71,9.392,10.71,9.392l0.25-8.463
 c0,0-5.834-4.833-5.167-8.75C67.042,191.245,75.208,182.911,76.792,175.328z"></path>
    <linearGradient id="SVGID_20_" gradientUnits="userSpaceOnUse" x1="84.5298" y1="322.0869" x2="123.063" y2="322.0869">
      <stop offset="0" style="stop-color: rgb(66, 186, 191);"></stop>
      <stop offset="1" style="stop-color: rgb(149, 206, 189);"></stop>
    </linearGradient>
    <path id="muscle-20" fill="url(#SVGID_20_)" d="M118.737,386.057c-0.022-8.016,3.674-42.408,4.146-49.646c0.472-7.24-0.133-46.079-0.133-46.079
 c-9.875-6-16.542-28.542-20.542-35.167c-1.757-2.91-7.375-8.5-9.297-9.965c-1.125-0.857-2.88-1.892-3.661-2.868
 c-1.667-2.083-3.542-8.001-3.542-8.001c-2,2.168-1.198,4.34,0.5,13.168c0.833,4.333,1,7.666,2.333,9.166
 c16.057,18.062,18.121,36.818,20.667,47c1.5,6,4.094,30.086,5.875,43.583c0.583,4.417,1.458,13.416,1.512,23.641
 c-0.22,14.775-3.696,17.311-4.092,18.604c-0.417,1.361-1.642,8.703-0.308,14.121c1.335,5.418,3.311,6.23,3.311,6.23
 S118.747,389.809,118.737,386.057z"></path>
    <linearGradient id="SVGID_21_" gradientUnits="userSpaceOnUse" x1="76.3794" y1="324.6465" x2="115.3047"
      y2="324.6465">
      <stop offset="0" style="stop-color: rgb(66, 186, 191);"></stop>
      <stop offset="1" style="stop-color: rgb(149, 206, 189);"></stop>
    </linearGradient>
    <path id="muscle-21" fill="url(#SVGID_21_)" d="M108.875,309.498c0,0,3.208,28.333,4.542,38.333c1.047,7.852,6.027,41.003-6.206,42.962
 c-7.664-1.539-10.169-7.795-11.169-10.129c-1-2.332-4.333-6.166-4.333-6.166c-6.167-4.334-7.564-9.09-7.564-9.09
 c-5.13-12.164-9.891-40.885-6.769-77.473c0,0,1.377-5.721,2.667-8.435c3.828-8.061,6.833-18.166,7.833-21
 C87.875,258.5,100.542,266.495,108.875,309.498z"></path>
    <linearGradient id="SVGID_22_" gradientUnits="userSpaceOnUse" x1="39.583" y1="231.106" x2="52.1523" y2="231.106">
      <stop offset="0" style="stop-color: rgb(66, 186, 191);"></stop>
      <stop offset="1" style="stop-color: rgb(149, 206, 189);"></stop>
    </linearGradient>
    <path id="muscle-22" fill="url(#SVGID_22_)" d="M52.083,209.415c-3.165-4.747-4.96-9.754-5.893-12.992c-0.062,0.813-0.138,1.412-0.232,1.742
 c-0.692,2.422-2.343,3.895-5.449,15.839c-0.186,2.286-0.242,4.169-0.176,5.286c0.25,4.25-0.75,46.5-0.75,46.5
 c0.875-6.625,8.125-26.125,10.625-37.5S52.083,209.415,52.083,209.415z"></path>
    <linearGradient id="SVGID_23_" gradientUnits="userSpaceOnUse" x1="70.8677" y1="313.543" x2="87.4277" y2="313.543">
      <stop offset="0" style="stop-color: rgb(66, 186, 191);"></stop>
      <stop offset="1" style="stop-color: rgb(149, 206, 189);"></stop>
    </linearGradient>
    <path id="muscle-23" fill="url(#SVGID_23_)" d="M82.941,238.603c0,0,2.129,14.196,2.135,18.074c0.006,3.876-0.4,6.928-1.082,8.783
 c-0.683,1.855-6.962,17.045-8.384,22.629s-4.466,69.605,11.803,88.277c0,0,0.26,7.846-1.502,10.959
 c-1.763,3.115-1.33-0.945-1.495-1.826c-0.5-2.667-0.983-5.839-1.833-9.167c-1-3.916-15.708-37.958-10.667-86.583
 C76.166,248.768,82.941,238.603,82.941,238.603z"></path>
    <linearGradient id="SVGID_24_" gradientUnits="userSpaceOnUse" x1="-507.3062" y1="133.0034" x2="-460.3174"
      y2="133.0034" gradientTransform="matrix(-1 0 0 1 -332.0254 0)">
      <stop offset="0" style="stop-color: rgb(66, 186, 191);"></stop>
      <stop offset="1" style="stop-color: rgb(149, 206, 189);"></stop>
    </linearGradient>
    <path id="muscle-24" fill="url(#SVGID_24_)" d="M174.766,136.525c-6,25.647-24.167,21.4-24.167,21.4c-13.833-1.595-19.667-5.427-19.667-5.427
 c-6.333-3.834,0.5-35,2.167-39.058c0.367-0.894,1-2.404,1.85-3.709c0.888-1.362,1.012-1.378,3.024-1.695
 c1.389-0.218,2.768-0.236,4.173-0.207c6.632,0.145,14.23,0.646,19.838,4.125c2.681,1.662,5.348,3.706,7.419,6.056
 c1.64,1.861,2.822,3.355,4.112,5.45C173.517,123.46,176.433,131.395,174.766,136.525z"></path>
    <linearGradient id="SVGID_25_" gradientUnits="userSpaceOnUse" x1="-533.9043" y1="137.3198" x2="-485.875"
      y2="137.3198" gradientTransform="matrix(-1 0 0 1 -332.0254 0)">
      <stop offset="0" style="stop-color: rgb(66, 186, 191);"></stop>
      <stop offset="1" style="stop-color: rgb(149, 206, 189);"></stop>
    </linearGradient>
    <path id="muscle-25" fill="url(#SVGID_25_)" d="M187.433,106.077c0,0-4.083-1.083-8.75,0.255c0,0-21.5-0.25-24.833-0.667
 c0,0,21.333,6.5,24.333,26.667c0,0,0.833,5.916,2,7.833s10.208,8.062,19.792,28.813c0,0,0.792-14.15,1.292-16.317
 c0.5-2.167,1.083-19.833,0-26.333C200.386,121.05,195.1,108.66,187.433,106.077z"></path>
    <linearGradient id="SVGID_26_" gradientUnits="userSpaceOnUse" x1="-538.5527" y1="175.665" x2="-532.7915"
      y2="175.665" gradientTransform="matrix(-1 0 0 1 -332.0254 0)">
      <stop offset="0" style="stop-color: rgb(66, 186, 191);"></stop>
      <stop offset="1" style="stop-color: rgb(149, 206, 189);"></stop>
    </linearGradient>
    <path id="muscle-26" fill="url(#SVGID_26_)" d="M202.1,153.249c0,0-1.083,16.499-1.333,17.582c0,0,0.875,0.959,1,1.793
 c0.125,0.833,2.333,13.334,3.333,25.458c0,0,1.75-4.917,1.375-6.854S202.412,154.394,202.1,153.249z"></path>
    <linearGradient id="SVGID_27_" gradientUnits="userSpaceOnUse" x1="-517.6577" y1="190.3833" x2="-507.6875"
      y2="190.3833" gradientTransform="matrix(-1 0 0 1 -332.0254 0)">
      <stop offset="0" style="stop-color: rgb(66, 186, 191);"></stop>
      <stop offset="1" style="stop-color: rgb(149, 206, 189);"></stop>
    </linearGradient>
    <path id="muscle-27" fill="url(#SVGID_27_)" d="M181.287,202.727c0,0,4.5-4.188,4.313-7.125c0,0,0.25-0.563-0.625-1.875
 s-8.563-13.375-9.313-15.688c0,0,3.875,16.438,4.5,18.75S181.287,202.727,181.287,202.727z"></path>
    <linearGradient id="SVGID_28_" gradientUnits="userSpaceOnUse" x1="-544.875" y1="238.0996" x2="-513.7456"
      y2="238.0996" gradientTransform="matrix(-1 0 0 1 -332.0254 0)">
      <stop offset="0" style="stop-color: rgb(66, 186, 191);"></stop>
      <stop offset="1" style="stop-color: rgb(149, 206, 189);"></stop>
    </linearGradient>
    <path id="muscle-28" fill="url(#SVGID_28_)" d="M200.1,210.727c0,0-0.459-1.699-2-2.5c-1.563-0.813-5-4.188-5-4.188s-3.75,5.5-11.375,9.375
 c0,0-0.25,15.875,3,22.25s11.729,35.25,11.729,35.25s7.082,1.615,11.563,1.167c3.333-0.333,4.833-1.167,4.833-1.167s-2-12.5-3.5-17
 S197.975,225.477,200.1,210.727z"></path>
    <linearGradient id="SVGID_29_" gradientUnits="userSpaceOnUse" x1="-506.6226" y1="166.9961" x2="-486.9468"
      y2="166.9961" gradientTransform="matrix(-1 0 0 1 -332.0254 0)">
      <stop offset="0" style="stop-color: rgb(66, 186, 191);"></stop>
      <stop offset="1" style="stop-color: rgb(149, 206, 189);"></stop>
    </linearGradient>
    <path id="muscle-29" fill="url(#SVGID_29_)" d="M173.225,144.332c0,0-0.875,13.634-17.75,17.581l0.875,1.436c0,0-2.375,5.621-1,9.209
 s2.875,3.828,2.875,3.828s-3,3.826-3.125,7.176c-0.125,3.349,0.5,5.382,2.125,6.1c0,0,8.5-1.076,12.5-7.296
 c0,0,0.75-2.751,0.75-4.903c0,0,2.875-2.273,2.875-12.559c0,0,0.375-0.718,0.625-2.393
 C174.225,160.836,175.6,152.943,173.225,144.332z"></path>
    <linearGradient id="SVGID_30_" gradientUnits="userSpaceOnUse" x1="-501.375" y1="200.1255" x2="-485.2456"
      y2="200.1255" gradientTransform="matrix(-1 0 0 1 -332.0254 0)">
      <stop offset="0" style="stop-color: rgb(66, 186, 191);"></stop>
      <stop offset="1" style="stop-color: rgb(149, 206, 189);"></stop>
    </linearGradient>
    <path id="muscle-30" fill="url(#SVGID_30_)" d="M169.35,184.278c0,0-3.75,4.307-11.75,6.459c0,0-3.5,2.87-3.5,6.817
 c0,3.946,0.875,5.741,1.625,5.979c0,0-2.625,3.708-2.5,6.697c0.125,2.99,1,5.383,3.125,5.742c0,0,5.75-1.316,8-4.307
 c0,0,0.5-9.568,1.75-13.754C166.1,197.913,168.975,192.411,169.35,184.278z"></path>
    <linearGradient id="SVGID_31_" gradientUnits="userSpaceOnUse" x1="-498.9165" y1="230.9771" x2="-481.625"
      y2="230.9771" gradientTransform="matrix(-1 0 0 1 -332.0254 0)">
      <stop offset="0" style="stop-color: rgb(66, 186, 191);"></stop>
      <stop offset="1" style="stop-color: rgb(149, 206, 189);"></stop>
    </linearGradient>
    <path id="muscle-31" fill="url(#SVGID_31_)" d="M164.808,213.665c0,0-1.333,1.983-10.208,4.75c0,0-2.625,1.509-2.5,6.162
 c0.125,4.652-0.625,19.186-2.5,23.713c0,0,11.917-9.576,17.292-17.875c0,0-0.917-11.948-1.167-13.583
 S165.641,215.165,164.808,213.665z"></path>
    <linearGradient id="SVGID_32_" gradientUnits="userSpaceOnUse" x1="-485.1606" y1="171.4102" x2="-459.25"
      y2="171.4102" gradientTransform="matrix(-1 0 0 1 -332.0254 0)">
      <stop offset="0" style="stop-color: rgb(66, 186, 191);"></stop>
      <stop offset="1" style="stop-color: rgb(149, 206, 189);"></stop>
    </linearGradient>
    <path id="muscle-32" fill="url(#SVGID_32_)" d="M128.6,158.922c0,0-1.375,2.033-1.375,3.35c0,1.315,0,9.09,0,9.09s0.125,1.913,2.25,3.229
 c2.125,1.316,17.25,7.774,18.25,8.73c1,0.957,3.125,1.675,3.875,0.838c0.75-0.838,1.5-2.631,1.5-5.98
 c0-3.349,0.75-11.84-4.625-16.146S131.1,157.846,128.6,158.922z"></path>
    <linearGradient id="SVGID_33_" gradientUnits="userSpaceOnUse" x1="-483.2637" y1="187.3574" x2="-459.7168"
      y2="187.3574" gradientTransform="matrix(-1 0 0 1 -332.0254 0)">
      <stop offset="0" style="stop-color: rgb(66, 186, 191);"></stop>
      <stop offset="1" style="stop-color: rgb(149, 206, 189);"></stop>
    </linearGradient>
    <path id="muscle-33" fill="url(#SVGID_33_)" d="M128.35,179.853c0,0,0.375-2.153,2.375-2.512s6.5,2.392,6.5,2.392l12.125,6.698
 c0,0,1,0.358,1.5,0.358s0.375,5.143,0.375,5.861c0,0.717,0,3.229-0.875,4.425s-4.875-1.196-6.5-1.794s-9.625-2.393-13-2.033
 c-3.375,0.358-3.125-2.751-3.125-2.751S127.475,182.125,128.35,179.853z"></path>
    <linearGradient id="SVGID_34_" gradientUnits="userSpaceOnUse" x1="-482.1753" y1="204.0698" x2="-459.3989"
      y2="204.0698" gradientTransform="matrix(-1 0 0 1 -332.0254 0)">
      <stop offset="0" style="stop-color: rgb(66, 186, 191);"></stop>
      <stop offset="1" style="stop-color: rgb(149, 206, 189);"></stop>
    </linearGradient>
    <path id="muscle-34" fill="url(#SVGID_34_)" d="M132.725,194.922c0,0-4.375-0.358-5,2.033c-0.625,2.393-0.25,8.253-0.125,9.329
 c0.125,1.077,2.5,4.784,5,5.741s8.875,0,14.125,1.076c0,0,2.75,0.838,2.875-1.674s1-10.166,0.25-11.123
 S139.35,195.401,132.725,194.922z"></path>
    <linearGradient id="SVGID_35_" gradientUnits="userSpaceOnUse" x1="-482.0117" y1="247.0522" x2="-459.9263"
      y2="247.0522" gradientTransform="matrix(-1 0 0 1 -332.0254 0)">
      <stop offset="0" style="stop-color: rgb(66, 186, 191);"></stop>
      <stop offset="1" style="stop-color: rgb(149, 206, 189);"></stop>
    </linearGradient>
    <path id="muscle-35" fill="url(#SVGID_35_)" d="M133.35,213.94c0,0-4.875,2.832-5,5.225s-0.25,22.555-0.25,29.125c0,5-0.583,30.6,0.25,31.875
 c0,0,3.5-0.479,5-0.797c1.5-0.32,4.159-3.979,4.625-4.953c1.375-2.875,7.25-16.375,9.875-28.5
 c0.739-3.416,2.875-20.497,1.875-24.324s-1.667-7.017-3.5-7.176S135.308,214.581,133.35,213.94z"></path>
    <linearGradient id="SVGID_36_" gradientUnits="userSpaceOnUse" x1="-479.6572" y1="457.5" x2="-464.8262" y2="457.5"
      gradientTransform="matrix(-1 0 0 1 -332.0254 0)">
      <stop offset="0" style="stop-color: rgb(66, 186, 191);"></stop>
      <stop offset="1" style="stop-color: rgb(149, 206, 189);"></stop>
    </linearGradient>
    <path id="muscle-36" fill="url(#SVGID_36_)"
      d="M137.067,414.479c0,0,0.176,5.746,3.032,9.16c2.856,3.414,6.375,7.025,7.375,15.275
 c1.065,8.789-3.375,42.875-10.523,61.607c0,0-2.721-31.682-3.67-38.156C132.333,455.893,132.409,433.879,137.067,414.479z"></path>
    <linearGradient id="SVGID_37_" gradientUnits="userSpaceOnUse" x1="-496.8457" y1="461.4883" x2="-471.2002"
      y2="461.4883" gradientTransform="matrix(-1 0 0 1 -332.0254 0)">
      <stop offset="0" style="stop-color: rgb(66, 186, 191);"></stop>
      <stop offset="1" style="stop-color: rgb(149, 206, 189);"></stop>
    </linearGradient>
    <path id="muscle-37" fill="url(#SVGID_37_)" d="M163.09,406.646c0,0-5.616,6.643-7.991,16.518c-1.553,6.459-15.925,92.766-15.925,92.766
 s1.59,2.953,5.533-7.172c3.942-10.125,11.454-34.367,12.822-38.66c1.37-4.295,5.258-16.17,6.086-29.951
 S166.097,406.805,163.09,406.646z"></path>
    <linearGradient id="SVGID_38_" gradientUnits="userSpaceOnUse" x1="-499.8159" y1="465.7764" x2="-479.144"
      y2="465.7764" gradientTransform="matrix(-1 0 0 1 -332.0254 0)">
      <stop offset="0" style="stop-color: rgb(66, 186, 191);"></stop>
      <stop offset="1" style="stop-color: rgb(149, 206, 189);"></stop>
    </linearGradient>
    <path id="muscle-38" fill="url(#SVGID_38_)" d="M150.21,500.615c0,0-5.181,18.668-2.129,20.324c3.052,1.658,4.125-4.127,5.926-10.686
 s5.309-22.674,5.309-22.674s7.516-32.244,8.105-37.514c0.589-5.271,0.612-29.033-0.967-39.74c0,0,0.646,29.244-2.486,41.346
 C160.838,463.773,150.21,500.615,150.21,500.615z"></path>
    <linearGradient id="SVGID_39_" gradientUnits="userSpaceOnUse" x1="-477.604" y1="84.0508" x2="-459.1143" y2="84.0508"
      gradientTransform="matrix(-1 0 0 1 -332.0254 0)">
      <stop offset="0" style="stop-color: rgb(66, 186, 191);"></stop>
      <stop offset="1" style="stop-color: rgb(149, 206, 189);"></stop>
    </linearGradient>
    <path id="muscle-39" fill="url(#SVGID_39_)" d="M145.579,62.772c0,0-0.946,17.958-1.198,19.943c-0.252,1.986-0.757,17.605,0.504,19.458
 c0,0-4.12-1.5-7.062-1.588c-1.008-0.03-4.666,0.397-8.448,3.972c0,0-1.892,0.992-2.27,0.728c-0.378-0.265,5.758-14.847,6.62-17.804
 c2.815-9.656,3.173-15.354,3.93-16.545C138.412,69.744,145.074,64.228,145.579,62.772z"></path>
    <linearGradient id="SVGID_40_" gradientUnits="userSpaceOnUse" x1="-511.916" y1="91.4072" x2="-477.3027" y2="91.4072"
      gradientTransform="matrix(-1 0 0 1 -332.0254 0)">
      <stop offset="0" style="stop-color: rgb(66, 186, 191);"></stop>
      <stop offset="1" style="stop-color: rgb(149, 206, 189);"></stop>
    </linearGradient>
    <path id="muscle-40" fill="url(#SVGID_40_)" d="M145.999,79.04c-0.307,3.086-0.532,6.221-0.682,9.322c-0.12,2.486,0.062,4.957,0.126,7.441
 c0.045,1.741-0.361,4.069,0.817,5.529c2.239,2.774,8.049,2.271,11.148,2.293c3.904,0.028,7.811,0.089,11.714,0.149
 c3.684,0.056,7.068-2.442,10.768-2.442c0,0-2.916-1.625-6.083-3.375c-3.167-1.75-8.402-6.125-9.917-7.375
 S148.891,80.665,145.999,79.04z"></path>
    <linearGradient id="SVGID_41_" gradientUnits="userSpaceOnUse" x1="-536.4585" y1="175.6011" x2="-507.04"
      y2="175.6011" gradientTransform="matrix(-1 0 0 1 -332.0254 0)">
      <stop offset="0" style="stop-color: rgb(66, 186, 191);"></stop>
      <stop offset="1" style="stop-color: rgb(149, 206, 189);"></stop>
    </linearGradient>
    <path id="muscle-41" fill="url(#SVGID_41_)" d="M176.016,175.328c-1.583-7.583-1.416-27.409,1.417-36.496c0,0,0.255-0.076,0.851,0.568
 l-0.018-0.069c0,0,1.5,2,3.583,3.917s11.25,12.833,18.833,29.25c0,0,2.667,12.247,3.75,27.33c0,0-1.021,3.273-4.417,8.916
 c0,0-5.166-4.582-6.583-5.666c0,0-0.651-0.329-1.207-0.097c-2.048,4.42-10.71,9.392-10.71,9.392l-0.25-8.463
 c0,0,5.834-4.833,5.167-8.75C185.766,191.245,177.599,182.911,176.016,175.328z"></path>
    <linearGradient id="SVGID_42_" gradientUnits="userSpaceOnUse" x1="-500.3032" y1="322.0869" x2="-461.7695"
      y2="322.0869" gradientTransform="matrix(-1 0 0 1 -332.0254 0)">
      <stop offset="0" style="stop-color: rgb(66, 186, 191);"></stop>
      <stop offset="1" style="stop-color: rgb(149, 206, 189);"></stop>
    </linearGradient>
    <path id="muscle-42" fill="url(#SVGID_42_)" d="M134.071,386.057c0.022-8.016-3.674-42.408-4.146-49.646c-0.472-7.24,0.133-46.079,0.133-46.079
 c9.875-6,16.542-28.542,20.542-35.167c1.757-2.91,7.375-8.5,9.297-9.965c1.125-0.857,2.88-1.892,3.661-2.868
 c1.667-2.083,3.542-8.001,3.542-8.001c2,2.168,1.198,4.34-0.5,13.168c-0.833,4.333-1,7.666-2.333,9.166
 c-16.057,18.062-18.121,36.818-20.667,47c-1.5,6-4.094,30.086-5.875,43.583c-0.583,4.417-1.458,13.416-1.512,23.641
 c0.22,14.775,3.696,17.311,4.092,18.604c0.417,1.361,1.642,8.703,0.308,14.121c-1.335,5.418-3.311,6.23-3.311,6.23
 S134.061,389.809,134.071,386.057z"></path>
    <linearGradient id="SVGID_43_" gradientUnits="userSpaceOnUse" x1="-508.4536" y1="324.6465" x2="-469.5288"
      y2="324.6465" gradientTransform="matrix(-1 0 0 1 -332.0254 0)">
      <stop offset="0" style="stop-color: rgb(66, 186, 191);"></stop>
      <stop offset="1" style="stop-color: rgb(149, 206, 189);"></stop>
    </linearGradient>
    <path id="muscle-43" fill="url(#SVGID_43_)" d="M143.933,309.498c0,0-3.208,28.333-4.542,38.333c-1.047,7.852-6.027,41.003,6.206,42.962
 c7.664-1.539,10.169-7.795,11.169-10.129c1-2.332,4.333-6.166,4.333-6.166c6.167-4.334,7.564-9.09,7.564-9.09
 c5.13-12.164,9.891-40.885,6.769-77.473c0,0-1.377-5.721-2.667-8.435c-3.828-8.061-6.833-18.166-7.833-21
 C164.933,258.5,152.266,266.495,143.933,309.498z"></path>
    <linearGradient id="SVGID_44_" gradientUnits="userSpaceOnUse" x1="-545.25" y1="231.106" x2="-532.6807" y2="231.106"
      gradientTransform="matrix(-1 0 0 1 -332.0254 0)">
      <stop offset="0" style="stop-color: rgb(66, 186, 191);"></stop>
      <stop offset="1" style="stop-color: rgb(149, 206, 189);"></stop>
    </linearGradient>
    <path id="muscle-44" fill="url(#SVGID_44_)" d="M200.725,209.415c3.165-4.747,4.96-9.754,5.893-12.992c0.062,0.813,0.138,1.412,0.232,1.742
 c0.692,2.422,2.343,3.895,5.449,15.839c0.186,2.286,0.242,4.169,0.176,5.286c-0.25,4.25,0.75,46.5,0.75,46.5
 c-0.875-6.625-8.125-26.125-10.625-37.5S200.725,209.415,200.725,209.415z"></path>
    <linearGradient id="SVGID_45_" gradientUnits="userSpaceOnUse" x1="-513.9658" y1="313.543" x2="-497.4053"
      y2="313.543" gradientTransform="matrix(-1 0 0 1 -332.0254 0)">
      <stop offset="0" style="stop-color: rgb(66, 186, 191);"></stop>
      <stop offset="1" style="stop-color: rgb(149, 206, 189);"></stop>
    </linearGradient>
    <path id="muscle-45" fill="url(#SVGID_45_)" d="M169.866,238.603c0,0-2.129,14.196-2.135,18.074c-0.006,3.876,0.4,6.928,1.082,8.783
 c0.683,1.855,6.962,17.045,8.384,22.629s4.466,69.605-11.803,88.277c0,0-0.26,7.846,1.502,10.959
 c1.763,3.115,1.33-0.945,1.495-1.826c0.5-2.667,0.983-5.839,1.833-9.167c1-3.916,15.708-37.958,10.667-86.583
 C176.642,248.768,169.866,238.603,169.866,238.603z"></path>
    <path id="dzgpLeysnU0NFEnYuQFV" fill="#FFFFFF" transform="translate(75, 105)" d="M98.516,18.293c-1.291-2.095-2.472-3.589-4.112-5.45c-2.071-2.35-4.738-4.394-7.419-6.056
 C81.376,3.31,73.779,2.808,67.146,2.663c-0.771-0.017-1.534-0.014-2.295,0.023l-0.018-0.022C54.548,3.451,44.399,3.096,39.608,2.842
 c-1.313-0.187-2.619-0.207-3.948-0.179C29.028,2.808,21.43,3.31,15.822,6.788c-2.681,1.662-5.348,3.706-7.419,6.056
 c-1.64,1.861-2.822,3.355-4.112,5.45c0,0-2.916,7.934-1.25,13.064c6,25.647,24.167,21.4,24.167,21.4
 c11.522-1.328,17.478-4.201,19.152-5.126c4.66-1.481,9.156-0.29,10.05-0.021c1.619,0.901,7.576,3.809,19.189,5.147
 c0,0,18.167,4.247,24.167-21.4C101.432,26.228,98.516,18.293,98.516,18.293z" style="opacity: 0;"></path>
    <path id="nckon5q2kCEcRUEM4ARN" fill="#FFFFFF" transform="translate(93, 150)" d="M55.588,12.168c-4.521-3.621-13.706-4.107-18.006-3.532c-4.027,0.407-6.592,0.211-7.264,0.144
 c-3.785-0.775-14.018-0.499-18.872,3.389c-5.375,4.307-4.625,12.797-4.625,16.146s0.75,5.143,1.5,5.98
 c0.122,0.137,0.291,0.219,0.476,0.277c0.336,1.01,0.274,2.354,0.274,2.354c-0.5,0-0.375,5.143-0.375,5.861
 c0,0.717,0,3.229,0.875,4.424c0.169,0.231,0.456,0.326,0.817,0.328c0.248,1.144-0.317,2.902-0.317,2.902
 c-0.75,0.957,0.125,8.611,0.25,11.123c0.081,1.625,1.258,1.846,2.081,1.801c0.553,0.588,0.512,1.271,0.477,1.508
 c-1.242,0.914-1.848,3.658-2.683,6.854c-1,3.826,1.136,20.908,1.875,24.324c2.625,12.125,8.5,25.625,9.875,28.5
 c0.466,0.973,3.125,4.633,4.625,4.953c1.5,0.318,5,0.797,5,0.797c0.005-0.008,0.009-0.025,0.013-0.033
 c1.268,0.279,3.879,0.033,3.879,0.033s3.5-0.479,5-0.797c1.5-0.32,4.159-3.98,4.625-4.953c1.375-2.875,7.25-16.375,9.875-28.5
 c0.739-3.416,2.875-20.498,1.875-24.324c-0.775-2.969-1.354-5.545-2.427-6.631c0.003-1.045,0.351-1.539,0.558-1.728
 c0.775-0.039,1.674-0.393,1.744-1.804c0.123-2.459,0.959-9.824,0.292-11.036c-0.017-1.119,0.052-2.767,0.065-3.055
 c0.16-0.052,0.298-0.133,0.393-0.263c0.875-1.195,0.875-3.707,0.875-4.424c0-0.615,0.09-4.453-0.195-5.557
 c0.115-1.275,0.405-2.482,0.512-2.895c0.018-0.016,0.043-0.023,0.059-0.041c0.75-0.838,1.5-2.631,1.5-5.98
 S60.963,16.475,55.588,12.168z" style="opacity: 0;"></path>
    <path id="Dxp6VSSqZ7a17E29c0z6" transform="translate(29, 89)" fill="#FFFFFF" d="M49.166,11.498c-1.364-0.568-4.902-0.943-8.971-1.189c-0.989,0.631-2.027,1.447-2.98,2.503
 c-0.285,0.057-0.444,0.099-0.444,0.099c-7.667,2.582-12.953,14.973-13.833,20.25c-0.902,5.41-0.648,18.553-0.25,24.057
 c0,0-0.479,2.51-0.584,2.864c-0.303,1.112-3.779,33.956-4.328,37.677c-0.047,3.623-0.172,6.366-0.422,7.24
 c-0.691,2.422-2.343,3.895-5.448,15.838c-0.186,2.287-0.242,4.169-0.177,5.287c0.217,3.674-0.502,35.75-0.7,44.37
 c0,0-0.003,1.364-0.019,1.724c0,0-0.397,6.006-1.105,9.608c7.215,1.562,14.004,0.802,17.489,0.187
 c0.051-1.408,0.155-3.01,0.366-4.279c0,0,5.973-20.352,9.812-30.648c1.58-7.064,3.245-14.537,4.837-21.728
 c0.102-2.739,0.07-4.64,0.07-4.64c0.063-0.625,0.209-1.511,0.209-1.511l0.25-8.462v-1.332c0.1-0.697,0.553-3.752,1.104-5.789
 c0.625-2.313,4.5-18.75,4.5-18.75s1.396-4.125,1.479-8.125c0.002-0.086,0.009-0.154,0.013-0.232
 c-0.492-9.805-1.2-22.685-1.2-22.685l-1.667-12.667c3-22.667,28.667-29,28.667-29S53.166,13.164,49.166,11.498z"
      style="opacity: 0;"></path>
    <path id="Dxp6VSSqZ7a17E29c0z6" transform="translate(28, 89)" fill="#FFFFFF" d="M184.729,172.217c-0.016-0.359-0.019-1.724-0.019-1.724c-0.198-8.62-0.917-40.696-0.7-44.37
 c0.065-1.118,0.009-3-0.177-5.287c-3.105-11.943-4.757-13.416-5.448-15.838c-0.25-0.874-0.375-3.617-0.422-7.24
 c-0.549-3.721-4.025-36.564-4.328-37.677c-0.105-0.354-0.584-2.864-0.584-2.864c0.398-5.504,0.652-18.646-0.25-24.057
 c-0.88-5.277-6.166-17.668-13.833-20.25c0,0-0.159-0.042-0.444-0.099c-0.953-1.056-1.991-1.872-2.98-2.503
 c-4.068,0.246-7.606,0.621-8.971,1.189c-4,1.666-26.667,0.666-26.667,0.666s25.667,6.333,28.667,29l-1.667,12.667
 c0,0-0.708,12.88-1.2,22.685c0.004,0.078,0.011,0.146,0.013,0.232c0.083,4,1.479,8.125,1.479,8.125s3.875,16.438,4.5,18.75
 c0.551,2.037,1.004,5.092,1.104,5.789v1.332l0.25,8.462c0,0,0.146,0.886,0.209,1.511c0,0-0.031,1.9,0.07,4.64
 c1.592,7.19,3.257,14.663,4.837,21.728c3.839,10.297,9.812,30.648,9.812,30.648c0.211,1.27,0.315,2.871,0.366,4.279
 c3.485,0.615,10.274,1.375,17.489-0.187C185.126,178.223,184.729,172.217,184.729,172.217z" style="opacity: 0;"></path>
    <path id="0izG8aeyj8jR5aeTZJfi" transform="translate(127, 398)" fill="#FFFFFF" d="M6.111,62.001c-0.948-6.473-0.872-28.486,3.786-47.887c0,0,0.128,3.982,1.818,7.287
 C25.86,31.204,35.305,7.135,35.305,7.135c3-3.666,3.979,2.827,3.979,2.827c1.05,2.778,1.288,8.771,1.142,15.521
 c0.344,10.149,0.197,20.885-0.175,24.22c-0.589,5.27-8.104,37.514-8.104,37.514s-2.795,12.836-4.676,20.258
 c-0.001,3.093-0.018,8.268-0.333,10.161c-0.243,1.456-2.776,2.379-4.14,2.775c-0.588,0.504-1.264,0.612-2.086,0.165
 c-0.027-0.015-0.049-0.041-0.076-0.059c-9.771-1.042-12.698-8.216-12.698-8.216c0.593-1.778,1.354-8.617,1.745-12.416
 c-0.035,0.089-0.067,0.184-0.102,0.272C9.781,100.157,7.061,68.476,6.111,62.001z" style="opacity: 0;"></path>
    <path fill="#FFFFFF" id="0izG8aeyj8jR5aeTZJfi" transform="translate(79, 398)" d="M40.639,63.501c0.949-6.473,0.873-28.486-3.785-47.887c0,0-0.128,3.982-1.818,7.287
 C20.891,32.704,11.447,8.635,11.447,8.635c-3-3.666-3.98,2.827-3.98,2.827c-1.05,2.778-1.288,8.771-1.143,15.521
 C5.982,37.132,6.127,47.867,6.5,51.202c0.589,5.27,8.105,37.514,8.105,37.514s2.795,12.836,4.675,20.258
 c0.001,3.093,0.018,8.268,0.333,10.161c0.242,1.456,2.775,2.379,4.139,2.775c0.589,0.504,1.265,0.612,2.088,0.165
 c0.027-0.015,0.049-0.041,0.074-0.059c9.772-1.042,12.699-8.216,12.699-8.216c-0.594-1.778-1.354-8.617-1.744-12.416
 c0.033,0.089,0.066,0.184,0.1,0.272C36.969,101.657,39.69,69.976,40.639,63.501z" style="opacity: 0;"></path>
    <path fill="#FFFFFF" id="qxsZ4DGV05xuBaIET2P4" transform="translate(66, 230)" d="M38.723,70.82c0,0,3.208,28.334,4.542,38.334c1.047,7.852,6.026,41.002-6.206,42.961
 c-7.663-1.539-10.169-7.795-11.169-10.129c-1-2.332-4.334-6.166-4.334-6.166c-6.166-4.334-7.564-9.09-7.564-9.09
 c-5.13-12.164-9.891-40.885-6.769-77.473c0,0,1.378-5.721,2.667-8.435c3.828-8.061,6.833-18.166,7.833-21
 C17.723,19.823,30.39,27.817,38.723,70.82z" style="opacity: 0;"></path>
    <path fill="#FFFFFF" id="qxsZ4DGV05xuBaIET2P4" transform="translate(124, 230)" d="M18.414,70.166c0,0-3.208,28.334-4.542,38.334c-1.047,7.852-6.026,41.002,6.206,42.961
 c7.663-1.539,10.169-7.795,11.169-10.129c1-2.332,4.334-6.166,4.334-6.166c6.166-4.334,7.564-9.09,7.564-9.09
 c5.13-12.164,9.891-40.885,6.769-77.473c0,0-1.378-5.721-2.667-8.435c-3.828-8.061-6.833-18.166-7.833-21
 C39.414,19.169,26.747,27.163,18.414,70.166z" style="opacity: 0;"></path>
    <path fill="#FFFFFF" id="nckon5q2kCEcRUEM4ARN" transform="translate(79, 226)" d="M38.585,157.379c-0.022-8.016,3.674-42.408,4.146-49.646c0.471-7.24-0.134-46.078-0.134-46.078
 c-9.875-6-16.542-28.542-20.542-35.167c-1.758-2.91-7.375-8.5-9.297-9.965c-1.125-0.857-2.881-1.892-3.661-2.868
 C7.431,11.57,5.556,5.653,5.556,5.653c-2,2.168-1.197,4.34,0.5,13.168c0.834,4.333,1,7.666,2.334,9.166
 c16.057,18.062,18.121,36.818,20.666,47c1.5,5.999,4.094,30.087,5.875,43.583c0.584,4.418,1.459,13.416,1.512,23.641
 c-0.22,14.775-3.695,17.311-4.092,18.604c-0.416,1.361-1.642,8.703-0.307,14.121c1.334,5.418,3.311,6.23,3.311,6.23
 S38.595,161.131,38.585,157.379z" style="opacity: 0;"></path>
    <path fill="#FFFFFF" id="nckon5q2kCEcRUEM4ARN" transform="translate(120, 226)" d="M15.552,157.725c0.022-8.016-3.674-42.408-4.146-49.646C10.935,100.838,11.539,62,11.539,62
 c9.875-6,16.542-28.542,20.542-35.167c1.758-2.91,7.375-8.5,9.297-9.965c1.125-0.857,2.881-1.892,3.661-2.868
 c1.667-2.084,3.542-8.001,3.542-8.001c2,2.168,1.197,4.34-0.5,13.168c-0.834,4.333-1,7.666-2.334,9.166
 c-16.057,18.062-18.121,36.818-20.666,47c-1.5,5.999-4.094,30.087-5.875,43.583c-0.584,4.418-1.459,13.416-1.512,23.641
 c0.22,14.775,3.695,17.311,4.092,18.604c0.416,1.361,1.642,8.703,0.307,14.121c-1.334,5.418-3.311,6.23-3.311,6.23
 S15.542,161.477,15.552,157.725z" style="opacity: 0;"></path>
    <path fill="#FFFFFF" id="nckon5q2kCEcRUEM4ARN" transform="translate(74, 143)" d="M27.321,82.213c0.108-4.041-1.854-5.709-2.374-6.078c-0.848-1.1-1.876-2.525-1.876-2.525
 c2.125-0.359,3-2.752,3.125-5.742s-2.5-6.697-2.5-6.697c0.75-0.238,1.625-2.033,1.625-5.98c0-3.9-3.411-6.744-3.493-6.811
 c0.051-0.428,0.205-0.823,0.328-1.088c0.012,0.001,0.04,0.006,0.04,0.006c1.625-0.719,2.25-2.752,2.125-6.1
 c-0.125-3.35-3.125-7.176-3.125-7.176s1.5-0.24,2.875-3.828s-1-9.209-1-9.209l0.875-1.436C7.071,15.602,6.196,1.967,6.196,1.967
 c-2.375,8.611-1,16.506-0.75,18.18s0.625,2.393,0.625,2.393c0,10.285,2.875,12.559,2.875,12.559c0,1.863,0.562,4.174,0.712,4.76
 c0.123,0.897,0.413,2.057,0.413,2.057c0.375,8.133,3.25,13.635,3.25,13.635c1.146,3.837,1.66,12.178,1.738,13.542
 c-0.179,1.034-0.351,1.848-0.435,2.226c-0.006-0.008-0.012-0.016-0.012-0.016c-0.834,1.5-0.666,1.531-0.916,3.166
 s-1.168,13.584-1.168,13.584c5.375,8.299,17.292,17.875,17.292,17.875C27.946,101.398,27.196,86.865,27.321,82.213z"
      style="opacity: 0;"></path>
    <path fill="#FFFFFF" id="nckon5q2kCEcRUEM4ARN" transform="translate(145, 143)" d="M6.008,84.334c-0.109-4.041,1.854-5.709,2.373-6.078c0.849-1.1,1.877-2.525,1.877-2.525
 c-2.125-0.359-3-2.752-3.125-5.742s2.5-6.697,2.5-6.697c-0.75-0.238-1.625-2.033-1.625-5.98c0-3.9,3.411-6.744,3.492-6.811
 c-0.051-0.428-0.204-0.823-0.327-1.088c-0.012,0.001-0.04,0.006-0.04,0.006c-1.625-0.719-2.25-2.752-2.125-6.1
 c0.125-3.35,3.125-7.176,3.125-7.176s-1.5-0.24-2.875-3.828s1-9.209,1-9.209L9.383,21.67c16.875-3.947,17.75-17.582,17.75-17.582
 c2.375,8.611,1,16.506,0.75,18.18s-0.625,2.393-0.625,2.393c0,10.285-2.875,12.559-2.875,12.559c0,1.863-0.563,4.174-0.713,4.76
 c-0.122,0.897-0.412,2.057-0.412,2.057c-0.375,8.133-3.25,13.635-3.25,13.635c-1.146,3.837-1.66,12.178-1.738,13.542
 c0.179,1.034,0.351,1.848,0.434,2.226c0.006-0.008,0.012-0.016,0.012-0.016c0.834,1.5,0.667,1.531,0.917,3.166
 s1.167,13.584,1.167,13.584c-5.375,8.299-17.291,17.875-17.291,17.875C5.383,103.52,6.133,88.986,6.008,84.334z"
      style="opacity: 0;"></path>
  </g>
</svg>