<svg version="1.1" xmlns="http://www.w3.org/2000/svg" x="0px" y="0px" width="154.342px" height="539.348px" viewBox="0 0 154.342 539.348" enable-background="new 0 0 154.342 539.348"><g id="Body_female_back" class="body_diagram"><path fill="#FFFFFF" d="M154.333,281.432c-0.167-1.833-8-23.667-8-23.667s-0.666-2.667-1.333-29s-6-42.5-7.5-45.5
 s-4.375-57.167-4.375-57.167s-0.375-2.125,0-4.625c0.308-2.052,1.45-4.969,1.093-13.542h0.146
 c-0.078-1.869-0.227-4.001-0.473-6.458c-1.375-13.75-9.5-18.5-11.625-18.875s-3.875-0.625-14.25-1.125s-15.625-4.5-17.75-7
 s-0.875-14.125-0.875-14.125c2.239-1.397,3.969-3.408,4.853-5.905c1.02-2.884,1.861-5.664,2.583-8.634
 c0.622-2.561,1.288-5.113,1.798-7.7c0.251-1.275,0.467-2.556,0.621-3.847c0.046-0.389,0.018-2.943,0.308-3.117
 c-0.029,0.018-0.059,0.036-0.059,0.036c1.375-9.375-0.979-17.083-0.979-17.083c-0.184-0.542-0.493-1.073-0.739-1.59
 c-0.248-0.52-0.502-1.036-0.771-1.545c-0.512-0.973-1.075-1.921-1.727-2.808c-1.187-1.615-2.669-2.966-4.37-4.023
 c-1.509-0.937-3.144-1.662-4.804-2.281c-1.384-0.516-2.798-0.962-4.239-1.286c-1.666-0.375-3.373-0.601-5.083-0.561
 c-0.462,0.011-0.924,0.041-1.383,0.093c-0.628,0.071-1.252,0.176-1.872,0.299c-0.656,0.13-1.307,0.284-1.952,0.455
 c-0.746,0.198-1.486,0.417-2.221,0.658c-0.822,0.27-1.638,0.564-2.438,0.893c-0.862,0.354-1.709,0.75-2.523,1.206
 c-0.854,0.477-1.669,1.021-2.425,1.642c-0.796,0.654-1.521,1.391-2.169,2.191c-0.695,0.859-1.303,1.786-1.852,2.745
 c-0.584,1.021-1.104,2.076-1.611,3.135c-0.12,0.25-0.29,0.514-0.371,0.778c-0.001,0.005-2.354,7.711-0.979,17.083
 c0,0-0.029-0.018-0.059-0.036c0.29,0.174,0.262,2.728,0.308,3.117c0.154,1.291,0.37,2.572,0.621,3.847
 c0.51,2.587,1.176,5.139,1.798,7.7c0.722,2.97,1.563,5.75,2.583,8.634c0.884,2.497,2.613,4.507,4.853,5.905
 c0,0,1.25,11.625-0.875,14.125s-7.375,6.5-17.75,7s-12.125,0.75-14.25,1.125s-10.25,5.125-11.625,18.875
 c-0.051,0.502-0.094,0.982-0.137,1.458h-0.001c-0.003,0.034-0.005,0.064-0.008,0.098c-0.063,0.718-0.118,1.407-0.165,2.066
 c-0.009,0.123-0.015,0.237-0.023,0.357c-0.034,0.515-0.064,1.013-0.09,1.494c-0.01,0.192-0.02,0.382-0.028,0.569
 c-0.006,0.136-0.015,0.281-0.021,0.415h0.005c-0.357,8.572,0.785,11.49,1.093,13.542c0.375,2.5,0,4.625,0,4.625
 s-2.875,54.167-4.375,57.167s-6.833,19.167-7.5,45.5s-1.333,29-1.333,29s-7.833,21.833-8,23.667s2.167,9.333,2.667,10.167
 s0.166,4.833,0.666,5.667c0.5,0.832,9.667,8.166,10.167,8.332c0.5,0.168,2.834,1.168,3.167,1.834s1.832,0.334,2.166-0.5
 s0-3.334,0-3.334l-2.833-2.832c0,0,0-0.668,0-2.168s-1.333-3.5-2.333-4s-2-2.667-2-2.667s2.999,1.667,4.166,0.333s1.5-3.5,1.5-3.5
 l0.834-13.5c0,0,1.5-3.5,2-5.5s0.166-11-0.167-13.833s2.667-15.667,4.167-19.833s10.333-28.333,10.833-30.5s1.499-8,2.333-20
 c0,0,3-34,3.75-42c0,0,1.5,23.25,2,29.75s-0.25,21.25-1,24.75s-4.75,9.5-6.5,15.25c0,0-4,10.75-4.25,12.75s-8.75,26.75-7.5,48.5
 c1.25,21.75,8.75,52.25,10,59.25s8.75,47.25,8.75,47.25l0.75,54.75c1.25,15,6.75,35.25,8,40.25s7.5,35.75,5.75,45.75
 c0,0-1.25,6-2.25,7.5s-2.25,3-3,4s-0.75,4.5-0.75,4.5s-0.75,1,2.25,0.75s6.75-0.5,6.75-0.5s5.5,1.25,7.75,1.25s6.5,0,8-1.75
 s1-13.5-0.75-19c0,0-0.25-2.5-0.25-3.5s0-2.75-1-8s-1.75-18-1.75-20s1-27,1.5-30.5s2.75-35.5-2.25-54.75c0,0-0.75-4.5-0.25-8.25
 s2.25-10,1.5-40c-0.305-12.18-0.444-26.709-0.503-39.671c1.103-5.771,4.482-23.437,5.316-27.328c0,0,4.833,29.833,4.835,29.827
 c-0.064,12.309-0.205,25.769-0.49,37.172c-0.75,30,1,36.25,1.5,40s-0.25,8.25-0.25,8.25c-5,19.25-2.75,51.25-2.25,54.75
 s1.5,28.5,1.5,30.5s-0.75,14.75-1.75,20s-1,7-1,8s-0.25,3.5-0.25,3.5c-1.75,5.5-2.25,17.25-0.75,19s5.75,1.75,8,1.75
 s7.75-1.25,7.75-1.25s3.75,0.25,6.75,0.5s2.25-0.75,2.25-0.75s0-3.5-0.75-4.5s-2-2.5-3-4s-2.25-7.5-2.25-7.5
 c-1.75-10,4.5-40.75,5.75-45.75s6.75-25.25,8-40.25s0.5-40.5,0.5-41.5s0.25-13.25,0.25-13.25s7.5-40.25,8.75-47.25
 s8.75-37.5,10-59.25c1.25-21.75-7.25-46.5-7.5-48.5s-4.25-12.75-4.25-12.75c-1.75-5.75-5.75-11.75-6.5-15.25s-1.5-18.25-1-24.75
 s2-29.75,2-29.75c0.75,8,3.75,42,3.75,42c0.834,12,1.833,17.833,2.333,20s9.333,26.333,10.833,30.5s4.5,17,4.167,19.833
 s-0.667,11.833-0.167,13.833s2,5.5,2,5.5l0.834,13.5c0,0,0.333,2.167,1.5,3.5s4.166-0.333,4.166-0.333s-1,2.167-2,2.667
 s-2.333,2.5-2.333,4s0,2.168,0,2.168l-2.833,2.832c0,0-0.334,2.5,0,3.334s1.833,1.166,2.166,0.5s2.667-1.666,3.167-1.834
 c0.5-0.166,9.667-7.5,10.167-8.332c0.5-0.834,0.166-4.834,0.666-5.667S154.5,283.265,154.333,281.432z" id=""></path><linearGradient id="grad" gradientTransform="rotate(90)"><stop offset="5%" stop-color="#C70D6C"></stop><stop offset="95%" stop-color="#BB1817"></stop></linearGradient><linearGradient id="SVGID_1_" gradientUnits="userSpaceOnUse" x1="40.0713" y1="213.0981" x2="40.0713" y2="236.9316"><stop offset="0" style="stop-color: rgb(66, 186, 191);"></stop><stop offset="1" style="stop-color: rgb(149, 206, 189);"></stop></linearGradient><path id="bMuscle-1" fill="url(#SVGID_1_)" d="M35.404,213.098c0,0-4.499,14.333-4.666,23.833c0,0,3.333-4.667,8.333-8s10.333-7,10.333-7
 S39.07,214.431,35.404,213.098z"></path><linearGradient id="SVGID_2_" gradientUnits="userSpaceOnUse" x1="53.749" y1="223.0981" x2="53.749" y2="283.7651"><stop offset="0" style="stop-color: rgb(66, 186, 191);"></stop><stop offset="1" style="stop-color: rgb(149, 206, 189);"></stop></linearGradient><path id="bMuscle-0" fill="url(#SVGID_2_)" d="M50.071,223.098c0,0-6.499,4.5-10.833,7s-7.834,8.667-7.834,8.667s-3.152,20.01,1.167,29.167
 c4.167,8.833,11.833,15.833,22.167,15.833c10.345,0,18.667-8,20-11.5c0,0,2.625-6.125,2.458-12.708
 c-0.135-5.324-1.396-10.271-2.625-12.958C69.858,236.291,55.071,224.765,50.071,223.098z"></path><linearGradient id="SVGID_3_" gradientUnits="userSpaceOnUse" x1="40.2715" y1="142.7002" x2="40.3213" y2="142.7002"><stop offset="0" style="stop-color: rgb(66, 186, 191);"></stop><stop offset="1" style="stop-color: rgb(149, 206, 189);"></stop></linearGradient><path id="bMuscle-3" fill="url(#SVGID_3_)" d="M40.321,142.432c-0.018,0.125-0.034,0.31-0.05,0.537
 C40.288,142.785,40.306,142.595,40.321,142.432z"></path><linearGradient id="SVGID_4_" gradientUnits="userSpaceOnUse" x1="40.2959" y1="142.4316" x2="40.2959" y2="142.9688"><stop offset="0" style="stop-color: rgb(66, 186, 191);"></stop><stop offset="1" style="stop-color: rgb(102, 193, 191); stop-opacity: 0;"></stop></linearGradient><path id="bMuscle-4" fill="url(#SVGID_4_)" d="M40.321,142.432c-0.018,0.125-0.034,0.31-0.05,0.537
 C40.288,142.785,40.306,142.595,40.321,142.432z"></path><linearGradient id="SVGID_5_" gradientUnits="userSpaceOnUse" x1="26.8623" y1="313.626" x2="41.5137" y2="313.626" gradientTransform="matrix(0.9999 -0.011 0.011 0.9999 -4.0986 0.4138)"><stop offset="0" style="stop-color: rgb(66, 186, 191);"></stop><stop offset="1" style="stop-color: rgb(149, 206, 189);"></stop></linearGradient><path id="bMuscle-5" fill="url(#SVGID_5_)" d="M34.869,331.836c0.696,3.943,3.557,19.542,5.616,30.761c1.358-4.672,0.571-13.233,0.734-15.109
 c0.187-2.156-2.087-17.775-3.201-23.657c-1.114-5.883-1.982-15.164-2.888-23.886c-0.235-2.266,0.955-8.476,1.153-9.688
 c0.907-5.593-1.268-10.037-1.268-10.037c-3.6-2.681-6.682-15.57-6.682-15.57c-1.275,2.994-2.053,7.528-2.529,12.178
 c0.021,0.46,0.041,0.92,0.071,1.377C27.145,297.914,33.749,325.502,34.869,331.836z"></path><linearGradient id="SVGID_6_" gradientUnits="userSpaceOnUse" x1="20.0488" y1="103.5498" x2="50.9043" y2="103.5498"><stop offset="0" style="stop-color: rgb(66, 186, 191);"></stop><stop offset="1" style="stop-color: rgb(149, 206, 189);"></stop></linearGradient><path id="bMuscle-6" fill="url(#SVGID_6_)" d="M50.904,92.932c0,0-16.333-2.333-19.666-3.5c-2.465-0.863-3.288-2.999-3.55-4.054
 c-2.954,2.751-6.264,7.764-7.097,16.096c-1.375,13.75,0.25,17.5,0.625,20c0.013,0.084,0.019,0.165,0.029,0.249
 c2.764-7.031,9.638-18.251,16.658-20.123C45.404,99.599,50.904,92.932,50.904,92.932z"></path><linearGradient id="SVGID_7_" gradientUnits="userSpaceOnUse" x1="9.5615" y1="201.6309" x2="21.9043" y2="201.6309"><stop offset="0" style="stop-color: rgb(66, 186, 191);"></stop><stop offset="1" style="stop-color: rgb(149, 206, 189);"></stop></linearGradient><path id="bMuscle-7" fill="url(#SVGID_7_)" d="M21.904,188.599c0-3.719-3.052-7.133-4.462-8.514c-0.215,1.689-0.418,2.816-0.601,3.181
 c-1.391,2.781-6.073,16.887-7.28,39.913C14.639,207.783,21.904,188.599,21.904,188.599z"></path><linearGradient id="SVGID_8_" gradientUnits="userSpaceOnUse" x1="8.3027" y1="221.937" x2="30.1377" y2="221.937"><stop offset="0" style="stop-color: rgb(66, 186, 191);"></stop><stop offset="1" style="stop-color: rgb(149, 206, 189);"></stop></linearGradient><path id="bMuscle-8" fill="url(#SVGID_8_)" d="M25.288,195.671c-0.693-1.139-1.193-2.42-1.474-3.152c-0.469-1.221-0.74-2.607-0.888-3.562v0
 c0,0-8.684,25.979-13.485,36.811c-0.039,0.986-0.074,1.982-0.1,2.999c-0.392,15.461-0.782,22.758-1.039,26.153
 c2.44-0.048,8.509-0.277,11.818-1.339c0.573-4.766,2.821-14.053,4.055-17.48c0.768-2.131,3.453-9.497,5.962-16.474
 c-0.178-1.35-0.674-3.884-2.066-7.525C26.368,207.646,24.881,199.917,25.288,195.671z"></path><linearGradient id="SVGID_9_" gradientUnits="userSpaceOnUse" x1="17.6709" y1="151.2686" x2="40.1572" y2="151.2686"><stop offset="0" style="stop-color: rgb(66, 186, 191);"></stop><stop offset="1" style="stop-color: rgb(149, 206, 189);"></stop></linearGradient><path id="bMuscle-9" fill="url(#SVGID_9_)" d="M29.018,184.678c0.233,1.094,0.66,3.528,1.447,4.927c2.235-1.607,5.239-2.851,6.837-3.448
 c0.013-0.188,0.026-0.367,0.04-0.559c0,0,1.656-18.77,2.815-31.7c-0.178-8.275-0.586-22.133-0.586-22.133s-3.499-9-4.333-10
 s-0.292-8.833-0.292-8.833c-8.5,2.667-12.061,8.781-13.571,10.321c0.053,1.651-0.158,2.845-0.158,2.845s-2.01,37.873-3.546,52.033
 c1.271,1.088,3.601,4.491,5.4,9.301c1.083-10.833,2.788-24.991,3.333-27.167c0.571-2.285,1.801-2.864,1.801-2.864
 C31.988,158.265,27.988,179.848,29.018,184.678z"></path><linearGradient id="SVGID_10_" gradientUnits="userSpaceOnUse" x1="26.5576" y1="202.7061" x2="37.208" y2="202.7061"><stop offset="0" style="stop-color: rgb(66, 186, 191);"></stop><stop offset="1" style="stop-color: rgb(149, 206, 189);"></stop></linearGradient><path id="bMuscle-10" fill="url(#SVGID_10_)" d="M26.904,203.765c0.539,1.752,2.932,10.807,3.827,14.207c2.158-6.021,4.054-11.403,4.277-12.374
 c0.474-2.052,1.395-7.403,2.199-18.158c-1.39,0.497-3.958,1.543-6.255,3.178c0.463,1.759-0.032,5.394-0.331,6.211
 c-0.339,0.934-1.767,1.79-3.479,0.849c-0.179-0.098-0.347-0.229-0.513-0.367C26.532,199.254,26.465,202.338,26.904,203.765z"></path><linearGradient id="SVGID_11_" gradientUnits="userSpaceOnUse" x1="24.5713" y1="112.9043" x2="58.585" y2="112.9043"><stop offset="0" style="stop-color: rgb(66, 186, 191);"></stop><stop offset="1" style="stop-color: rgb(149, 206, 189);"></stop></linearGradient><path id="bMuscle-11" fill="url(#SVGID_11_)" d="M58.404,132.432c0,0-14.5-1.167-18.5-2.5c0,0-3.166-7.5-3.666-9.5s-0.167-8.667-0.167-8.667
 s-7.667,0.333-11.5,5.667c0,0,4.414-11.691,14.084-15.167c10.667-3.833,11.75-7.417,12.916-9c0,0,2.779,4.327,3.833,10
 c1.109,5.968,1.734,19.56,2.834,26.167C58.904,133.432,58.404,132.432,58.404,132.432z"></path><linearGradient id="SVGID_12_" gradientUnits="userSpaceOnUse" x1="32.6943" y1="103.1543" x2="75.6074" y2="103.1543"><stop offset="0" style="stop-color: rgb(66, 186, 191);"></stop><stop offset="1" style="stop-color: rgb(149, 206, 189);"></stop></linearGradient><path id="bMuscle-12" fill="url(#SVGID_12_)" d="M59.904,126.765c0.209,3.51,1,5.5,1,5.5l12.334,21.167c-0.478-13.896-0.57-26.97-0.792-40.875
 c-0.063-3.988,0.452-6.137,0.375-10.125c-0.088-4.531-2.054-11.646-2.25-16.167c-0.167-3.833,3.5-12,4.167-14.667
 s1.166-14,0.666-17s-4.833-1.167-4.833-1.167c-1.667,3.167-2.167,10.667-3.833,14.167c0,0-0.3,1.352-1.444,3.225
 c-0.172,1.612-0.499,2.97-1.077,3.65c-2.125,2.5-7.375,6.5-17.75,7c-9.595,0.462-11.813,0.711-13.772,1.042
 c0.826,1.989,2.044,4.083,2.044,4.083c2.208,1.083,4.826,1.351,7.208,1.833c3.685,0.747,8.118,0.683,14,1.375
 c4.25,0.5,4.597,1.513,5.875,3.75c1,1.75-0.625,4.625-1.125,10c-0.457,4.911-0.98,9.011-1.125,15.25
 C59.53,120.592,59.571,121.182,59.904,126.765z"></path><linearGradient id="SVGID_13_" gradientUnits="userSpaceOnUse" x1="37.1768" y1="205.7031" x2="45.2402" y2="205.7031"><stop offset="0" style="stop-color: rgb(66, 186, 191);"></stop><stop offset="1" style="stop-color: rgb(149, 206, 189);"></stop></linearGradient><path id="bMuscle-13" fill="url(#SVGID_13_)" d="M43.238,198.182c-0.201-0.459-0.562-0.9-0.945-1.29c-0.066,0.482-0.134,0.892-0.201,1.207
 c-0.569,2.655-3.007,6.75-4.915,11.082c3.063,1.951,7.978,5.335,7.978,5.335C45.654,210.265,43.821,199.515,43.238,198.182z"></path><linearGradient id="SVGID_14_" gradientUnits="userSpaceOnUse" x1="41.0088" y1="182.2754" x2="75.4971" y2="182.2754"><stop offset="0" style="stop-color: rgb(66, 186, 191);"></stop><stop offset="1" style="stop-color: rgb(149, 206, 189);"></stop></linearGradient><path id="bMuscle-14" fill="url(#SVGID_14_)" d="M41.092,143.598c0,0,1.5,23.25,2,29.75c0.411,5.342-0.022,16.253-0.606,21.915
 c0.812,0.649,1.942,1.862,2.253,3.752c0.62,3.773,2.292,11.833,1.542,16.583l1.291,0.919c0,0.013,0,0.039,0,0.039
 c5.125,3.75,22,16.375,22,16.375c-2.625-6.25-6.835-17.373-6.75-33.125c0.027-5.027,0.797-11.021,4.683-14.664
 c1.716-1.609,3.558-2.751,4.909-4.764c1.716-2.555,2.462-5.531,2.838-8.55c0.693-5.582-0.004-10.984-3.07-15.709l-12-22.25
 c0,0-8.922-0.5-19.172-2.25L41.092,143.598z"></path><linearGradient id="SVGID_15_" gradientUnits="userSpaceOnUse" x1="60.501" y1="426.4219" x2="74.5273" y2="426.4219"><stop offset="0" style="stop-color: rgb(66, 186, 191);"></stop><stop offset="1" style="stop-color: rgb(149, 206, 189);"></stop></linearGradient><path id="bMuscle-15" fill="url(#SVGID_15_)" d="M63.501,391.219l-3,2.832c0,0,1.834,29.5,2.168,30.834c0.332,1.334,3.166,22.166,3.166,23
 c0,0.68,2.545,9.768,7.366,13.741c0.144-2.411,0.279-4.251,0.391-5.028c0.418-2.927,2.057-25.775-0.34-44.439
 c-0.43-1.477-0.813-2.72-1.108-3.652C71.724,407.764,65.831,397.32,63.501,391.219z"></path><linearGradient id="SVGID_16_" gradientUnits="userSpaceOnUse" x1="42.875" y1="422.5039" x2="64.8193" y2="422.5039"><stop offset="0" style="stop-color: rgb(66, 186, 191);"></stop><stop offset="1" style="stop-color: rgb(149, 206, 189);"></stop></linearGradient><path id="bMuscle-16" fill="url(#SVGID_16_)" d="M64.669,444.885c-0.5-3.666-3.334-18.666-3.334-20.166s-2.334-30.834-2.334-30.834
 s-7-11.334-8.5-9.834c0,0-3.047,9.687-7.626,17.716l0.467,34.081c0.537,6.441,1.857,13.849,3.289,20.603
 c1.269,2.019,2.598,3.539,3.87,3.935c4.834,1.5,8,0.5,11-1.834C64.501,456.219,65.169,448.551,64.669,444.885z"></path><linearGradient id="SVGID_17_" gradientUnits="userSpaceOnUse" x1="47.2012" y1="483.4316" x2="67.5889" y2="483.4316"><stop offset="0" style="stop-color: rgb(66, 186, 191);"></stop><stop offset="1" style="stop-color: rgb(149, 206, 189);"></stop></linearGradient><path id="bMuscle-17" fill="url(#SVGID_17_)" d="M66.688,502.511c-0.174-0.699-0.377-1.533-0.525-2.215c-0.453-2.066-0.912-4.131-1.393-6.191
 c-0.85-3.65-1.758-7.287-2.783-10.891c-1.219-4.283-2.553-8.586-4.379-12.654c-0.416-0.928-0.902-1.813-1.357-2.721
 c-1.449-2.898-4.316-4.24-6.672-6.229c-0.888-0.748-1.664-1.61-2.378-2.523c0.751,3.397,1.507,6.558,2.176,9.262
 c0.268,0.254,0.523,0.503,0.749,0.74c2.5,2.625,7.625,14.75,8.75,17.375c0.398,0.926,0.746,1.875,1.104,2.816
 c0.598,1.57,1.186,3.143,1.77,4.717c0.668,1.795,1.332,3.59,1.994,5.387c0.59,1.604,1.18,3.209,1.768,4.814
 c0.377,1.029,0.758,2.057,1.131,3.086c0.297,0.824,1.152,0.596,0.902-0.57C67.251,505.136,67.063,504.011,66.688,502.511z"></path><linearGradient id="SVGID_18_" gradientUnits="userSpaceOnUse" x1="49.377" y1="491.9219" x2="65.0088" y2="491.9219"><stop offset="0" style="stop-color: rgb(66, 186, 191);"></stop><stop offset="1" style="stop-color: rgb(149, 206, 189);"></stop></linearGradient><path id="bMuscle-18" fill="url(#SVGID_18_)" d="M64.181,515.069c0.842,1.039,0.977,0.004,0.695-1.23c-0.592-2.615-1.504-5.445-2.375-8.084
 c-0.906-2.748-1.58-5.475-2.184-8.299c-0.238-1.119-0.48-2.24-0.691-3.367c-0.451-2.41-1.129-6.539-1.625-9.664
 c-1.896-4.389-5.793-13.15-7.875-15.336c-0.226-0.237-0.481-0.486-0.749-0.74c0.875,3.537,1.601,6.293,1.965,7.749
 c0.499,1.995,1.793,8.093,3.059,15.332c0.692,1.599,1.284,3.193,1.601,4.409c1.32,5.061,3.723,10.045,5.941,14.758
 C62.653,512.106,63.411,513.591,64.181,515.069z"></path><linearGradient id="SVGID_19_" gradientUnits="userSpaceOnUse" x1="36.7227" y1="345.7578" x2="72.7764" y2="345.7578"><stop offset="0" style="stop-color: rgb(66, 186, 191);"></stop><stop offset="1" style="stop-color: rgb(149, 206, 189);"></stop></linearGradient><path id="bMuscle-19" fill="url(#SVGID_19_)" d="M52.884,375.994c1.168-3.171,2.086-3.873,2.989-2.978c1.548,3.384,10.214,22.316,11.011,23.853
 c0.746,1.438,3.441,7.178,5.537,9.929c-0.316-1.718-0.671-3.38-1.079-4.95c0,0-0.75-4.5-0.25-8.25
 c0.164-1.228,0.461-2.729,0.761-5.237c0.058-0.479,0.115-0.997,0.174-1.58c0.053-0.516,0.104-1.068,0.153-1.659
 c0.009-0.103,0.018-0.206,0.026-0.312c0.013-0.161,0.026-0.323,0.039-0.49c0.019-0.243,0.037-0.492,0.056-0.748
 c0.01-0.134,0.019-0.273,0.028-0.411c0.013-0.192,0.026-0.388,0.039-0.587c0.008-0.132,0.017-0.264,0.025-0.398
 c0.019-0.313,0.037-0.635,0.056-0.966c0.006-0.104,0.011-0.215,0.017-0.321c0.015-0.279,0.029-0.563,0.043-0.855
 c0.006-0.11,0.011-0.22,0.016-0.333c0.019-0.387,0.035-0.783,0.052-1.192c0.003-0.071,0.005-0.145,0.008-0.216
 c0.015-0.365,0.028-0.741,0.041-1.125c0.003-0.104,0.007-0.207,0.01-0.312c0.015-0.456,0.028-0.922,0.041-1.404
 c0.001-0.048,0.002-0.097,0.004-0.145c0.011-0.451,0.021-0.916,0.031-1.391c0.002-0.097,0.004-0.193,0.006-0.291
 c0.01-0.53,0.02-1.072,0.027-1.632c0-0.021,0-0.043,0.001-0.064c0.007-0.541,0.013-1.1,0.018-1.671
 c0.001-0.095,0.002-0.19,0.002-0.286c0.005-0.605,0.009-1.223,0.01-1.869c0.002-0.62,0.002-1.261,0-1.913
 c0-0.115,0-0.229-0.001-0.346c-0.002-0.673-0.005-1.358-0.011-2.071c-0.005-0.686-0.012-1.393-0.021-2.111
 c-0.002-0.15-0.004-0.302-0.006-0.455c-0.018-1.455-0.043-2.98-0.076-4.578c-0.004-0.188-0.008-0.377-0.012-0.566
 c-0.018-0.805-0.035-1.621-0.057-2.463c-0.037-1.482-0.071-3.003-0.104-4.549c-0.01-0.461-0.019-0.938-0.027-1.404
 c-0.021-1.085-0.043-2.17-0.063-3.277c-0.012-0.646-0.021-1.305-0.032-1.958c-0.015-0.936-0.03-1.867-0.044-2.813
 c-0.012-0.787-0.022-1.579-0.032-2.372c-0.012-0.816-0.022-1.63-0.032-2.45c-0.012-0.896-0.021-1.79-0.031-2.688
 c-0.008-0.717-0.016-1.431-0.022-2.148c-0.01-0.953-0.019-1.902-0.027-2.854c-0.006-0.679-0.012-1.354-0.018-2.03
 c-0.008-0.965-0.015-1.922-0.021-2.881c-0.005-0.655-0.01-1.308-0.014-1.96c-0.006-0.945-0.012-1.882-0.017-2.817
 c-0.002-0.306,0.341-5.659,0.339-5.964c-0.167-3.416-1.436-8.452-4.583-11.25c-6.75-6-9.248-15.07-9.25-15.083
 c0.002,0.01-3.786,0.195-4.13,0.195c-2.527,0-5.002-0.758-7.519-0.534c-2.456,0.218-4.794,1.391-6.448,3.245
 c-1.327,1.488-2.24,3.695-2.778,5.594c-2.9,10.228,1.333,29.833,1.333,29.833s4,21.5,3.75,34.25
 c-0.131,6.649-0.871,12.359-1.551,16.318c0.727,3.903,1.226,6.586,1.308,7.026c0.009,0.043,0.014,0.071,0.014,0.071l0.25,18.23
 C47.644,389.718,51.279,380.349,52.884,375.994z"></path><linearGradient id="SVGID_20_" gradientUnits="userSpaceOnUse" x1="-28.7837" y1="213.0986" x2="-28.7837" y2="236.9321" gradientTransform="matrix(-1 0 0 1 85.5059 0)"><stop offset="0" style="stop-color: rgb(66, 186, 191);"></stop><stop offset="1" style="stop-color: rgb(149, 206, 189);"></stop></linearGradient><path id="bMuscle-20" fill="url(#SVGID_20_)" d="M118.956,213.098c0,0,4.499,14.333,4.666,23.833c0,0-3.333-4.667-8.333-8s-10.333-7-10.333-7
 S115.29,214.431,118.956,213.098z"></path><linearGradient id="SVGID_21_" gradientUnits="userSpaceOnUse" x1="-15.106" y1="223.0986" x2="-15.106" y2="283.7656" gradientTransform="matrix(-1 0 0 1 85.5059 0)"><stop offset="0" style="stop-color: rgb(66, 186, 191);"></stop><stop offset="1" style="stop-color: rgb(149, 206, 189);"></stop></linearGradient><path id="bMuscle-21" fill="url(#SVGID_21_)" d="M104.289,223.098c0,0,6.499,4.5,10.833,7s7.834,8.667,7.834,8.667s3.152,20.01-1.167,29.167
 c-4.167,8.833-11.833,15.833-22.167,15.833c-10.345,0-18.667-8-20-11.5c0,0-2.625-6.125-2.458-12.708
 c0.135-5.324,1.396-10.271,2.625-12.958C84.502,236.291,99.289,224.765,104.289,223.098z"></path><linearGradient id="SVGID_22_" gradientUnits="userSpaceOnUse" x1="-28.583" y1="142.7002" x2="-28.5332" y2="142.7002" gradientTransform="matrix(-1 0 0 1 85.5059 0)"><stop offset="0" style="stop-color: rgb(66, 186, 191);"></stop><stop offset="1" style="stop-color: rgb(149, 206, 189);"></stop></linearGradient><path id="bMuscle-22" fill="url(#SVGID_22_)" d="M114.039,142.432c0.018,0.125,0.034,0.31,0.05,0.537
 C114.072,142.785,114.055,142.595,114.039,142.432z"></path><linearGradient id="SVGID_23_" gradientUnits="userSpaceOnUse" x1="-28.5586" y1="142.4321" x2="-28.5586" y2="142.9692" gradientTransform="matrix(-1 0 0 1 85.5059 0)"><stop offset="0" style="stop-color: rgb(66, 186, 191);"></stop><stop offset="1" style="stop-color: rgb(102, 193, 191); stop-opacity: 0;"></stop></linearGradient><path id="bMuscle-23" fill="url(#SVGID_23_)" d="M114.039,142.432c0.018,0.125,0.034,0.31,0.05,0.537
 C114.072,142.785,114.055,142.595,114.039,142.432z"></path><linearGradient id="SVGID_24_" gradientUnits="userSpaceOnUse" x1="-48.8057" y1="103.5498" x2="-17.9502" y2="103.5498" gradientTransform="matrix(-1 0 0 1 85.5059 0)"><stop offset="0" style="stop-color: rgb(66, 186, 191);"></stop><stop offset="1" style="stop-color: rgb(149, 206, 189);"></stop></linearGradient><path id="bMuscle-24" fill="url(#SVGID_24_)" d="M103.456,92.932c0,0,16.333-2.333,19.666-3.5c2.465-0.863,3.288-2.999,3.55-4.054
 c2.954,2.751,6.264,7.764,7.097,16.096c1.375,13.75-0.25,17.5-0.625,20c-0.013,0.084-0.019,0.165-0.029,0.249
 c-2.764-7.031-9.638-18.251-16.658-20.123C108.956,99.599,103.456,92.932,103.456,92.932z"></path><linearGradient id="SVGID_25_" gradientUnits="userSpaceOnUse" x1="-59.293" y1="201.6309" x2="-46.9502" y2="201.6309" gradientTransform="matrix(-1 0 0 1 85.5059 0)"><stop offset="0" style="stop-color: rgb(66, 186, 191);"></stop><stop offset="1" style="stop-color: rgb(149, 206, 189);"></stop></linearGradient><path id="bMuscle-25" fill="url(#SVGID_25_)" d="M132.456,188.599c0-3.719,3.052-7.133,4.462-8.514c0.215,1.689,0.418,2.816,0.601,3.181
 c1.391,2.781,6.073,16.887,7.28,39.913C139.722,207.783,132.456,188.599,132.456,188.599z"></path><linearGradient id="SVGID_26_" gradientUnits="userSpaceOnUse" x1="-60.5518" y1="221.937" x2="-38.7168" y2="221.937" gradientTransform="matrix(-1 0 0 1 85.5059 0)"><stop offset="0" style="stop-color: rgb(66, 186, 191);"></stop><stop offset="1" style="stop-color: rgb(149, 206, 189);"></stop></linearGradient><path id="bMuscle-26" fill="url(#SVGID_26_)" d="M129.072,195.671c0.693-1.139,1.193-2.42,1.474-3.152c0.469-1.221,0.74-2.607,0.888-3.562v0
 c0,0,8.684,25.979,13.485,36.811c0.039,0.986,0.074,1.982,0.1,2.999c0.392,15.461,0.782,22.758,1.039,26.153
 c-2.44-0.048-8.509-0.277-11.818-1.339c-0.573-4.766-2.821-14.053-4.055-17.48c-0.768-2.131-3.453-9.497-5.962-16.474
 c0.178-1.35,0.674-3.884,2.066-7.525C127.992,207.646,129.479,199.917,129.072,195.671z"></path><linearGradient id="SVGID_27_" gradientUnits="userSpaceOnUse" x1="-51.1836" y1="151.2686" x2="-28.6973" y2="151.2686" gradientTransform="matrix(-1 0 0 1 85.5059 0)"><stop offset="0" style="stop-color: rgb(66, 186, 191);"></stop><stop offset="1" style="stop-color: rgb(149, 206, 189);"></stop></linearGradient><path id="bMuscle-27" fill="url(#SVGID_27_)" d="M125.343,184.678c-0.233,1.094-0.66,3.528-1.447,4.927c-2.235-1.607-5.239-2.851-6.837-3.448
 c-0.013-0.188-0.026-0.367-0.04-0.559c0,0-1.656-18.77-2.815-31.7c0.178-8.275,0.586-22.133,0.586-22.133s3.499-9,4.333-10
 s0.292-8.833,0.292-8.833c8.5,2.667,12.061,8.781,13.571,10.321c-0.053,1.651,0.158,2.845,0.158,2.845s2.01,37.873,3.546,52.033
 c-1.271,1.088-3.601,4.491-5.4,9.301c-1.083-10.833-2.788-24.991-3.333-27.167c-0.571-2.285-1.801-2.864-1.801-2.864
 C122.372,158.265,126.372,179.848,125.343,184.678z"></path><linearGradient id="SVGID_28_" gradientUnits="userSpaceOnUse" x1="-42.2969" y1="202.7061" x2="-31.6465" y2="202.7061" gradientTransform="matrix(-1 0 0 1 85.5059 0)"><stop offset="0" style="stop-color: rgb(66, 186, 191);"></stop><stop offset="1" style="stop-color: rgb(149, 206, 189);"></stop></linearGradient><path id="bMuscle-28" fill="url(#SVGID_28_)" d="M127.456,203.765c-0.539,1.752-2.932,10.807-3.827,14.207c-2.158-6.021-4.054-11.403-4.277-12.374
 c-0.474-2.052-1.395-7.403-2.199-18.158c1.39,0.497,3.958,1.543,6.255,3.178c-0.463,1.759,0.032,5.394,0.331,6.211
 c0.339,0.934,1.767,1.79,3.479,0.849c0.179-0.098,0.347-0.229,0.513-0.367C127.828,199.254,127.896,202.338,127.456,203.765z"></path><linearGradient id="SVGID_29_" gradientUnits="userSpaceOnUse" x1="-44.2832" y1="112.9043" x2="-10.27" y2="112.9043" gradientTransform="matrix(-1 0 0 1 85.5059 0)"><stop offset="0" style="stop-color: rgb(66, 186, 191);"></stop><stop offset="1" style="stop-color: rgb(149, 206, 189);"></stop></linearGradient><path id="bMuscle-29" fill="url(#SVGID_29_)" d="M95.956,132.432c0,0,14.5-1.167,18.5-2.5c0,0,3.166-7.5,3.666-9.5s0.167-8.667,0.167-8.667
 s7.667,0.333,11.5,5.667c0,0-4.414-11.691-14.084-15.167c-10.667-3.833-11.75-7.417-12.916-9c0,0-2.779,4.327-3.833,10
 c-1.109,5.968-1.734,19.56-2.834,26.167C95.456,133.432,95.956,132.432,95.956,132.432z"></path><linearGradient id="SVGID_30_" gradientUnits="userSpaceOnUse" x1="-36.1602" y1="103.1543" x2="6.7529" y2="103.1543" gradientTransform="matrix(-1 0 0 1 85.5059 0)"><stop offset="0" style="stop-color: rgb(66, 186, 191);"></stop><stop offset="1" style="stop-color: rgb(149, 206, 189);"></stop></linearGradient><path id="bMuscle-30" fill="url(#SVGID_30_)" d="M94.456,126.765c-0.209,3.51-1,5.5-1,5.5l-12.334,21.167c0.478-13.896,0.57-26.97,0.792-40.875
 c0.063-3.988-0.452-6.137-0.375-10.125c0.088-4.531,2.054-11.646,2.25-16.167c0.167-3.833-3.5-12-4.167-14.667s-1.166-14-0.666-17
 s4.833-1.167,4.833-1.167c1.667,3.167,2.167,10.667,3.833,14.167c0,0,0.3,1.352,1.444,3.225c0.172,1.612,0.499,2.97,1.077,3.65
 c2.125,2.5,7.375,6.5,17.75,7c9.595,0.462,11.813,0.711,13.772,1.042c-0.826,1.989-2.044,4.083-2.044,4.083
 c-2.208,1.083-4.826,1.351-7.208,1.833c-3.685,0.747-8.118,0.683-14,1.375c-4.25,0.5-4.597,1.513-5.875,3.75
 c-1,1.75,0.625,4.625,1.125,10c0.457,4.911,0.98,9.011,1.125,15.25C94.83,120.592,94.789,121.182,94.456,126.765z"></path><linearGradient id="SVGID_31_" gradientUnits="userSpaceOnUse" x1="-31.6777" y1="205.7031" x2="-23.6147" y2="205.7031" gradientTransform="matrix(-1 0 0 1 85.5059 0)"><stop offset="0" style="stop-color: rgb(66, 186, 191);"></stop><stop offset="1" style="stop-color: rgb(149, 206, 189);"></stop></linearGradient><path id="bMuscle-31" fill="url(#SVGID_31_)" d="M111.122,198.182c0.201-0.459,0.562-0.9,0.945-1.29c0.066,0.482,0.134,0.892,0.201,1.207
 c0.569,2.655,3.007,6.75,4.915,11.082c-3.063,1.951-7.978,5.335-7.978,5.335C108.706,210.265,110.539,199.515,111.122,198.182z"></path><linearGradient id="SVGID_32_" gradientUnits="userSpaceOnUse" x1="-27.8457" y1="182.2754" x2="6.6426" y2="182.2754" gradientTransform="matrix(-1 0 0 1 85.5059 0)"><stop offset="0" style="stop-color: rgb(66, 186, 191);"></stop><stop offset="1" style="stop-color: rgb(149, 206, 189);"></stop></linearGradient><path id="bMuscle-32" fill="url(#SVGID_32_)" d="M113.269,143.598c0,0-1.5,23.25-2,29.75c-0.411,5.342,0.022,16.253,0.606,21.915
 c-0.812,0.649-1.942,1.862-2.253,3.752c-0.62,3.773-2.292,11.833-1.542,16.583l-1.291,0.919c0,0.013,0,0.039,0,0.039
 c-5.125,3.75-22,16.375-22,16.375c2.625-6.25,6.835-17.373,6.75-33.125c-0.027-5.027-0.797-11.021-4.683-14.664
 c-1.716-1.609-3.558-2.751-4.909-4.764c-1.716-2.555-2.462-5.531-2.838-8.55c-0.693-5.582,0.004-10.984,3.07-15.709l12-22.25
 c0,0,8.922-0.5,19.172-2.25L113.269,143.598z"></path><linearGradient id="SVGID_33_" gradientUnits="userSpaceOnUse" x1="-8.3535" y1="426.4219" x2="5.6729" y2="426.4219" gradientTransform="matrix(-1 0 0 1 85.5059 0)"><stop offset="0" style="stop-color: rgb(66, 186, 191);"></stop><stop offset="1" style="stop-color: rgb(149, 206, 189);"></stop></linearGradient><path id="bMuscle-33" fill="url(#SVGID_33_)" d="M90.859,391.219l3,2.832c0,0-1.834,29.5-2.168,30.834c-0.332,1.334-3.166,22.166-3.166,23
 c0,0.68-2.545,9.768-7.366,13.741c-0.144-2.411-0.279-4.251-0.391-5.028c-0.418-2.927-2.057-25.775,0.34-44.439
 c0.43-1.477,0.813-2.72,1.108-3.652C82.637,407.764,88.529,397.32,90.859,391.219z"></path><linearGradient id="SVGID_34_" gradientUnits="userSpaceOnUse" x1="-25.9795" y1="422.5039" x2="-4.0352" y2="422.5039" gradientTransform="matrix(-1 0 0 1 85.5059 0)"><stop offset="0" style="stop-color: rgb(66, 186, 191);"></stop><stop offset="1" style="stop-color: rgb(149, 206, 189);"></stop></linearGradient><path id="bMuscle-34" fill="url(#SVGID_34_)" d="M89.691,444.885c0.5-3.666,3.334-18.666,3.334-20.166s2.334-30.834,2.334-30.834
 s7-11.334,8.5-9.834c0,0,3.047,9.687,7.626,17.716l-0.467,34.081c-0.537,6.441-1.857,13.849-3.289,20.603
 c-1.269,2.019-2.598,3.539-3.87,3.935c-4.834,1.5-8,0.5-11-1.834C89.859,456.219,89.191,448.551,89.691,444.885z"></path><linearGradient id="SVGID_35_" gradientUnits="userSpaceOnUse" x1="-21.6533" y1="483.4316" x2="-1.2656" y2="483.4316" gradientTransform="matrix(-1 0 0 1 85.5059 0)"><stop offset="0" style="stop-color: rgb(66, 186, 191);"></stop><stop offset="1" style="stop-color: rgb(149, 206, 189);"></stop></linearGradient><path id="bMuscle-35" fill="url(#SVGID_35_)" d="M87.672,502.511c0.174-0.699,0.377-1.533,0.525-2.215c0.453-2.066,0.912-4.131,1.393-6.191
 c0.85-3.65,1.758-7.287,2.783-10.891c1.219-4.283,2.553-8.586,4.379-12.654c0.416-0.928,0.902-1.813,1.357-2.721
 c1.449-2.898,4.316-4.24,6.672-6.229c0.888-0.748,1.664-1.61,2.378-2.523c-0.751,3.397-1.507,6.558-2.176,9.262
 c-0.268,0.254-0.523,0.503-0.749,0.74c-2.5,2.625-7.625,14.75-8.75,17.375c-0.398,0.926-0.746,1.875-1.104,2.816
 c-0.598,1.57-1.186,3.143-1.77,4.717c-0.668,1.795-1.332,3.59-1.994,5.387c-0.59,1.604-1.18,3.209-1.768,4.814
 c-0.377,1.029-0.758,2.057-1.131,3.086c-0.297,0.824-1.152,0.596-0.902-0.57C87.109,505.136,87.297,504.011,87.672,502.511z"></path><linearGradient id="SVGID_36_" gradientUnits="userSpaceOnUse" x1="-19.4775" y1="491.9219" x2="-3.8457" y2="491.9219" gradientTransform="matrix(-1 0 0 1 85.5059 0)"><stop offset="0" style="stop-color: rgb(66, 186, 191);"></stop><stop offset="1" style="stop-color: rgb(149, 206, 189);"></stop></linearGradient><path id="bMuscle-36" fill="url(#SVGID_36_)" d="M90.18,515.069c-0.842,1.039-0.977,0.004-0.695-1.23c0.592-2.615,1.504-5.445,2.375-8.084
 c0.906-2.748,1.58-5.475,2.184-8.299c0.238-1.119,0.48-2.24,0.691-3.367c0.451-2.41,1.129-6.539,1.625-9.664
 c1.896-4.389,5.793-13.15,7.875-15.336c0.226-0.237,0.481-0.486,0.749-0.74c-0.875,3.537-1.601,6.293-1.965,7.749
 c-0.499,1.995-1.793,8.093-3.059,15.332c-0.692,1.599-1.284,3.193-1.601,4.409c-1.32,5.061-3.723,10.045-5.941,14.758
 C91.707,512.106,90.949,513.591,90.18,515.069z"></path><linearGradient id="SVGID_37_" gradientUnits="userSpaceOnUse" x1="-32.1318" y1="345.7578" x2="3.9209" y2="345.7578" gradientTransform="matrix(-1 0 0 1 85.5059 0)"><stop offset="0" style="stop-color: rgb(66, 186, 191);"></stop><stop offset="1" style="stop-color: rgb(149, 206, 189);"></stop></linearGradient><path id="bMuscle-37" fill="url(#SVGID_37_)" d="M101.477,375.994c-1.168-3.171-2.086-3.873-2.989-2.978c-1.548,3.384-10.214,22.316-11.011,23.853
 c-0.746,1.438-3.441,7.178-5.537,9.929c0.316-1.718,0.671-3.38,1.079-4.95c0,0,0.75-4.5,0.25-8.25
 c-0.164-1.228-0.461-2.729-0.761-5.237c-0.058-0.479-0.115-0.997-0.174-1.58c-0.053-0.516-0.104-1.068-0.153-1.659
 c-0.009-0.103-0.018-0.206-0.026-0.312c-0.013-0.161-0.026-0.323-0.039-0.49c-0.019-0.243-0.037-0.492-0.056-0.748
 c-0.01-0.134-0.019-0.273-0.028-0.411c-0.013-0.192-0.026-0.388-0.039-0.587c-0.008-0.132-0.017-0.264-0.025-0.398
 c-0.019-0.313-0.037-0.635-0.056-0.966c-0.006-0.104-0.011-0.215-0.017-0.321c-0.015-0.279-0.029-0.563-0.043-0.855
 c-0.006-0.11-0.011-0.22-0.016-0.333c-0.019-0.387-0.035-0.783-0.052-1.192c-0.003-0.071-0.005-0.145-0.008-0.216
 c-0.015-0.365-0.028-0.741-0.041-1.125c-0.003-0.104-0.007-0.207-0.01-0.312c-0.015-0.456-0.028-0.922-0.041-1.404
 c-0.001-0.048-0.002-0.097-0.004-0.145c-0.011-0.451-0.021-0.916-0.031-1.391c-0.002-0.097-0.004-0.193-0.006-0.291
 c-0.01-0.53-0.02-1.072-0.027-1.632c0-0.021,0-0.043-0.001-0.064c-0.007-0.541-0.013-1.1-0.018-1.671
 c-0.001-0.095-0.002-0.19-0.002-0.286c-0.005-0.605-0.009-1.223-0.01-1.869c-0.002-0.62-0.002-1.261,0-1.913
 c0-0.115,0-0.229,0.001-0.346c0.002-0.673,0.005-1.358,0.011-2.071c0.005-0.686,0.012-1.393,0.021-2.111
 c0.002-0.15,0.004-0.302,0.006-0.455c0.018-1.455,0.043-2.98,0.076-4.578c0.004-0.188,0.008-0.377,0.012-0.566
 c0.018-0.805,0.035-1.621,0.057-2.463c0.037-1.482,0.071-3.003,0.104-4.549c0.01-0.461,0.019-0.938,0.027-1.404
 c0.021-1.085,0.043-2.17,0.063-3.277c0.012-0.646,0.021-1.305,0.032-1.958c0.015-0.936,0.03-1.867,0.044-2.813
 c0.012-0.787,0.022-1.579,0.032-2.372c0.012-0.816,0.022-1.63,0.032-2.45c0.012-0.896,0.021-1.79,0.031-2.688
 c0.008-0.717,0.016-1.431,0.022-2.148c0.01-0.953,0.019-1.902,0.027-2.854c0.006-0.679,0.012-1.354,0.018-2.03
 c0.008-0.965,0.015-1.922,0.021-2.881c0.005-0.655,0.01-1.308,0.014-1.96c0.006-0.945,0.012-1.882,0.017-2.817
 c0.002-0.306-0.341-5.659-0.339-5.964c0.167-3.416,1.436-8.452,4.583-11.25c6.75-6,9.248-15.07,9.25-15.083
 c-0.002,0.01,3.786,0.195,4.13,0.195c2.527,0,5.002-0.758,7.519-0.534c2.456,0.218,4.794,1.391,6.448,3.245
 c1.327,1.488,2.24,3.695,2.778,5.594c2.9,10.228-1.333,29.833-1.333,29.833s-4,21.5-3.75,34.25
 c0.131,6.649,0.871,12.359,1.551,16.318c-0.727,3.903-1.226,6.586-1.308,7.026c-0.009,0.043-0.014,0.071-0.014,0.071l-0.25,18.23
 C106.717,389.718,103.081,380.349,101.477,375.994z"></path><linearGradient id="SVGID_38_" gradientUnits="userSpaceOnUse" x1="94.7148" y1="290.2212" x2="59.6455" y2="290.2212"><stop offset="0" style="stop-color: rgb(66, 186, 191);"></stop><stop offset="1" style="stop-color: rgb(149, 206, 189);"></stop></linearGradient><path id="bMuscle-38" fill="url(#SVGID_38_)" d="M77.289,273.682c0,0-0.124-0.203-0.218,0c0,0-5.936,8.462-17.426,11.07
 c0.924,2.297,3.593,8.222,5.801,11.055c1.551,1.99,5.292,3.584,7.967,11.044c1.283-6.484,2.934-14.777,3.639-18.644
 c0.07-0.02,0.159-0.01,0.266,0.048c0.71,3.887,2.352,12.137,3.63,18.596c2.675-7.46,6.416-9.054,7.967-11.044
 c2.208-2.833,4.877-8.758,5.801-11.055C83.225,282.144,77.289,273.682,77.289,273.682z"></path><linearGradient id="SVGID_39_" gradientUnits="userSpaceOnUse" x1="-60.3857" y1="312.666" x2="-45.7344" y2="312.666" gradientTransform="matrix(-0.9999 -0.011 -0.011 0.9999 71.2055 0.4138)"><stop offset="0" style="stop-color: rgb(66, 186, 191);"></stop><stop offset="1" style="stop-color: rgb(149, 206, 189);"></stop></linearGradient><path id="bMuscle-39" fill="url(#SVGID_39_)" d="M119.488,331.836c-0.696,3.943-3.557,19.542-5.616,30.761c-1.358-4.672-0.571-13.233-0.734-15.109
 c-0.187-2.156,2.087-17.775,3.201-23.657c1.114-5.883,1.982-15.164,2.888-23.886c0.235-2.266-0.955-8.476-1.153-9.688
 c-0.907-5.593,1.268-10.037,1.268-10.037c3.6-2.681,6.682-15.57,6.682-15.57c1.275,2.994,2.053,7.528,2.529,12.178
 c-0.021,0.46-0.041,0.92-0.071,1.377C127.213,297.914,120.608,325.502,119.488,331.836z"></path><path id="EurZy47xETbgGrUKzoCg" fill="#FFFFFF" transform="translate(28, 44)" d="M79.322,36.714c-10.375-0.5-15.625-4.5-17.75-7c-0.578-0.68-0.905-2.038-1.077-3.65
 c-1.145-1.874-1.444-3.225-1.444-3.225c-1.666-3.5-2.166-11-3.833-14.167c0,0-1.694-0.717-3.087-0.521
 c-3.183-0.419-6.391-0.084-7.074-0.002C43.67,7.967,42,8.672,42,8.672c-1.667,3.167-2.167,10.667-3.833,14.167
 c0,0-0.3,1.352-1.444,3.225c-0.172,1.612-0.499,2.97-1.077,3.65c-2.125,2.5-7.375,6.5-17.75,7
 c-9.595,0.462-11.813,0.711-13.772,1.042c0.826,1.989,2.044,4.083,2.044,4.083c2.208,1.083,4.826,1.351,7.208,1.833
 c3.685,0.747,8.118,0.683,14,1.375c4.25,0.5,4.597,1.513,5.875,3.75c1,1.75-0.625,4.625-1.125,10
 c-0.457,4.911-0.98,9.011-1.125,15.25c-0.041,1.785,0,2.375,0.333,7.958c0.209,3.51,1,5.5,1,5.5l12.334,21.167h7.884l12.334-21.167
 c0,0,0.791-1.99,1-5.5c0.333-5.583,0.374-6.173,0.333-7.958c-0.145-6.239-0.668-10.339-1.125-15.25c-0.5-5.375-2.125-8.25-1.125-10
 c1.278-2.237,1.625-3.25,5.875-3.75c5.882-0.692,10.315-0.628,14-1.375c2.382-0.482,5-0.75,7.208-1.833c0,0,1.218-2.093,2.044-4.083
 C91.135,37.425,88.917,37.176,79.322,36.714z" style="opacity: 0;"></path><path id="EurZy47xETbgGrUKzoCg" transform="translate(34, 125)" fill="#FFFFFF" d="M83.612,83.42c-1.908-4.332-4.346-8.426-4.915-11.081c-0.067-0.315-0.135-0.724-0.201-1.206
 c-0.017,0.017-0.032,0.035-0.048,0.052c-0.008-0.801-0.145-1.681-0.145-1.681c-0.584-5.662-1.018-16.572-0.606-21.915
 c0.5-6.5,2-29.75,2-29.75L79.78,5.86C69.53,7.61,60.608,8.11,60.608,8.11L48.855,29.9c-4.897,1.648-8.877,0.792-10.294,0.37
 L26.609,8.11c0,0-8.922-0.5-19.172-2.25l0.083,11.979c0,0,1.5,23.25,2,29.75c0.411,5.343-0.022,16.253-0.606,21.915l-0.192,1.629
 c-0.066,0.482-0.134,0.891-0.201,1.206c-0.569,2.655-3.007,6.749-4.915,11.081c3.063,1.951,7.978,5.336,7.978,5.336l1.126,1.083
 L14,90.758c0,0.014,0,0.039,0,0.039c5.125,3.75,22,16.375,22,16.375h15.218l14.793-11.039c2.956-2.2,5.635-4.186,7.207-5.336
 c0,0,0-0.025,0-0.039l1.291-0.919c-0.004-0.022-0.005-0.047-0.009-0.069l1.135-1.014C75.635,88.756,80.55,85.371,83.612,83.42z" style="opacity: 0;"></path><path id="cP1DwK9pbI9XckQJFF8Z" fill="#FFFFFF" transform="translate(73, 206)" d="M6.196,40.84c4.713-10.309,19.5-21.834,24.5-23.501l0.667-1.167c0,0,10.334-7.5,14-8.833
 c0,0,4.499,14.333,4.666,23.833c0,0-0.353,0.943-0.621,2.136c0.366,2.496,2.801,20.358-1.212,28.864
 c-4.167,8.834-11.833,15.834-22.167,15.834c-10.345,0-18.667-8-20-11.5c0,0-2.625-6.125-2.458-12.709
 C3.706,48.473,4.968,43.526,6.196,40.84z" style="opacity: 0;"></path><path id="cP1DwK9pbI9XckQJFF8Z" fill="#FFFFFF" transform="translate(69, 278)" d="M32.884,97.234c-1.168-3.17-2.086-3.873-2.989-2.977c-1.548,3.383-10.214,22.316-11.011,23.852
 c-0.746,1.439-3.441,7.178-5.537,9.93c0.316-1.719,0.671-3.381,1.079-4.951c0,0,0.75-4.5,0.25-8.25
 c-0.164-1.227-0.461-2.729-0.761-5.236c-0.058-0.48-0.115-0.998-0.174-1.58c-0.053-0.516-0.104-1.068-0.153-1.66
 c-0.009-0.102-0.018-0.205-0.026-0.311c-0.013-0.162-0.026-0.324-0.039-0.49c-0.019-0.244-0.037-0.492-0.056-0.748
 c-0.01-0.135-0.019-0.273-0.028-0.412c-0.013-0.191-0.026-0.387-0.039-0.586c-0.008-0.133-0.017-0.264-0.025-0.398
 c-0.019-0.314-0.037-0.635-0.056-0.967c-0.006-0.104-0.011-0.215-0.017-0.32c-0.015-0.279-0.029-0.564-0.043-0.855
 c-0.006-0.111-0.011-0.221-0.016-0.334c-0.019-0.387-0.035-0.783-0.052-1.191c-0.003-0.072-0.005-0.145-0.008-0.217
 c-0.015-0.365-0.028-0.74-0.041-1.125c-0.003-0.104-0.007-0.207-0.01-0.311c-0.015-0.457-0.028-0.922-0.041-1.404
 c-0.001-0.049-0.002-0.098-0.004-0.145c-0.011-0.451-0.021-0.916-0.031-1.391c-0.002-0.098-0.004-0.193-0.006-0.291
 c-0.01-0.531-0.02-1.072-0.027-1.633c0-0.021,0-0.043-0.001-0.064c-0.007-0.541-0.013-1.1-0.018-1.67
 c-0.001-0.096-0.002-0.191-0.002-0.287c-0.005-0.605-0.009-1.223-0.01-1.869c-0.002-0.619-0.002-1.26,0-1.912
 c0-0.115,0-0.23,0.001-0.346c0.002-0.674,0.005-1.359,0.011-2.072c0.005-0.686,0.012-1.393,0.021-2.111
 c0.002-0.15,0.004-0.301,0.006-0.455c0.018-1.455,0.043-2.98,0.076-4.578c0.004-0.188,0.008-0.377,0.012-0.566
 c0.018-0.805,0.035-1.621,0.057-2.463c0.037-1.482,0.071-3.002,0.104-4.549c0.01-0.461,0.019-0.938,0.027-1.404
 c0.021-1.084,0.043-2.17,0.063-3.277c0.012-0.646,0.021-1.305,0.032-1.957c0.015-0.936,0.03-1.867,0.044-2.813
 c0.012-0.787,0.022-1.58,0.032-2.373c0.012-0.816,0.022-1.629,0.032-2.449c0.012-0.896,0.021-1.791,0.031-2.689
 c0.008-0.717,0.016-1.43,0.022-2.148c0.01-0.953,0.019-1.902,0.027-2.854c0.006-0.678,0.012-1.354,0.018-2.029
 c0.008-0.965,0.015-1.922,0.021-2.881c0.005-0.656,0.01-1.309,0.014-1.961c0.006-0.945,0.012-1.881,0.017-2.816
 c0.002-0.307-0.341-5.66-0.339-5.965c0.167-3.416,1.436-8.451,4.583-11.25c6.75-6,9.248-15.069,9.25-15.082
 c-0.002,0.01,3.786,0.195,4.13,0.195c2.527,0,5.002-0.759,7.519-0.535c2.456,0.219,4.794,1.392,6.448,3.245
 c1.327,1.487,2.24,3.695,2.778,5.595c2.9,10.227-1.333,29.832-1.333,29.832s-4,21.5-3.75,34.25
 c0.131,6.65,0.871,12.359,1.551,16.318c-0.727,3.904-1.226,6.586-1.308,7.027c-0.009,0.043-0.014,0.07-0.014,0.07l-0.25,18.23
 C38.124,110.959,34.488,101.59,32.884,97.234z" style="opacity: 0;"></path><path id="cP1DwK9pbI9XckQJFF8Z" transform="translate(26, 208)" fill="#FFFFFF" d="M49,39.84c-4.713-10.309-19.5-21.834-24.5-23.501l-0.667-1.167c0,0-10.334-7.5-14-8.833
 c0,0-4.499,14.333-4.666,23.833c0,0,0.353,0.943,0.621,2.136C5.422,34.804,2.987,52.666,7,61.172
 c4.167,8.834,11.833,15.834,22.167,15.834c10.345,0,18.667-8,20-11.5c0,0,2.625-6.125,2.458-12.709
 C51.49,47.473,50.229,42.526,49,39.84z" style="opacity: 0;"></path><path id="cP1DwK9pbI9XckQJFF8Z" transform="translate(29, 278)" fill="#FFFFFF" d="M23.313,97.234c1.168-3.17,2.086-3.873,2.989-2.977c1.548,3.383,10.214,22.316,11.011,23.852
 c0.746,1.439,3.441,7.178,5.537,9.93c-0.316-1.719-0.671-3.381-1.079-4.951c0,0-0.75-4.5-0.25-8.25
 c0.164-1.227,0.461-2.729,0.761-5.236c0.058-0.48,0.115-0.998,0.174-1.58c0.053-0.516,0.104-1.068,0.153-1.66
 c0.009-0.102,0.018-0.205,0.026-0.311c0.013-0.162,0.026-0.324,0.039-0.49c0.019-0.244,0.037-0.492,0.056-0.748
 c0.01-0.135,0.019-0.273,0.028-0.412c0.013-0.191,0.026-0.387,0.039-0.586c0.008-0.133,0.017-0.264,0.025-0.398
 c0.019-0.314,0.037-0.635,0.056-0.967c0.006-0.104,0.011-0.215,0.017-0.32c0.015-0.279,0.029-0.564,0.043-0.855
 c0.006-0.111,0.011-0.221,0.016-0.334c0.019-0.387,0.035-0.783,0.052-1.191c0.003-0.072,0.005-0.145,0.008-0.217
 c0.015-0.365,0.028-0.74,0.041-1.125c0.003-0.104,0.007-0.207,0.01-0.311c0.015-0.457,0.028-0.922,0.041-1.404
 c0.001-0.049,0.002-0.098,0.004-0.145c0.011-0.451,0.021-0.916,0.031-1.391c0.002-0.098,0.004-0.193,0.006-0.291
 c0.01-0.531,0.02-1.072,0.027-1.633c0-0.021,0-0.043,0.001-0.064c0.007-0.541,0.013-1.1,0.018-1.67
 c0.001-0.096,0.002-0.191,0.002-0.287c0.005-0.605,0.009-1.223,0.01-1.869c0.002-0.619,0.002-1.26,0-1.912
 c0-0.115,0-0.23-0.001-0.346c-0.002-0.674-0.005-1.359-0.011-2.072c-0.005-0.686-0.012-1.393-0.021-2.111
 c-0.002-0.15-0.004-0.301-0.006-0.455c-0.018-1.455-0.043-2.98-0.076-4.578c-0.004-0.188-0.008-0.377-0.012-0.566
 c-0.018-0.805-0.035-1.621-0.057-2.463c-0.037-1.482-0.071-3.002-0.104-4.549c-0.01-0.461-0.019-0.938-0.027-1.404
 c-0.021-1.084-0.043-2.17-0.063-3.277c-0.012-0.646-0.021-1.305-0.032-1.957c-0.015-0.936-0.03-1.867-0.044-2.813
 c-0.012-0.787-0.022-1.58-0.032-2.373c-0.012-0.816-0.022-1.629-0.032-2.449c-0.012-0.896-0.021-1.791-0.031-2.689
 c-0.008-0.717-0.016-1.43-0.022-2.148c-0.01-0.953-0.019-1.902-0.027-2.854c-0.006-0.678-0.012-1.354-0.018-2.029
 c-0.008-0.965-0.015-1.922-0.021-2.881c-0.005-0.656-0.01-1.309-0.014-1.961c-0.006-0.945-0.012-1.881-0.017-2.816
 c-0.002-0.307,0.341-5.66,0.339-5.965c-0.167-3.416-1.436-8.451-4.583-11.25c-6.75-6-9.248-15.069-9.25-15.082
 c0.002,0.01-3.786,0.195-4.13,0.195c-2.527,0-5.002-0.759-7.519-0.535c-2.456,0.219-4.794,1.392-6.448,3.245
 c-1.327,1.487-2.24,3.695-2.778,5.595C5.267,25.066,9.5,44.672,9.5,44.672s4,21.5,3.75,34.25c-0.131,6.65-0.871,12.359-1.551,16.318
 c0.727,3.904,1.226,6.586,1.308,7.027c0.009,0.043,0.014,0.07,0.014,0.07l0.25,18.23C18.072,110.959,21.708,101.59,23.313,97.234z" style="opacity: 0;"></path><path id="0izG8aeyj8jR5aeTZJfi" transform="translate(36, 380)" fill="#FFFFFF" d="M36.681,32.398c-0.43-1.477-0.813-2.719-1.108-3.652c-0.42-0.742-6.313-11.186-8.643-17.287
 l-3,2.832l-1.535-0.222c-0.506-0.814-7.023-11.22-8.465-9.778c0,0-3.047,9.688-7.626,17.717l0.467,34.08
 c0.537,6.441,1.857,13.85,3.289,20.604c1.269,2.018,2.598,3.539,3.87,3.934c4.834,1.5,8,0.5,11-1.834
 c2.35-1.827,3.265-6.923,3.313-10.81c0.368-0.243,0.743-0.099,1.02,0.103c0,0.012,0.002,0.033,0.002,0.041
 c0,0.68,2.545,9.768,7.366,13.742c0.144-2.412,0.279-4.252,0.391-5.029C37.438,73.912,39.077,51.063,36.681,32.398z" style="opacity: 0;"></path><path id="0izG8aeyj8jR5aeTZJfi" transform="translate(75, 380)" fill="#FFFFFF" d="M6.516,32.398c0.43-1.477,0.813-2.719,1.108-3.652c0.42-0.742,6.313-11.186,8.643-17.287
 l3,2.832l1.535-0.222c0.506-0.814,7.023-11.22,8.465-9.778c0,0,3.047,9.688,7.626,17.717l-0.467,34.08
 c-0.537,6.441-1.857,13.85-3.289,20.604c-1.269,2.018-2.598,3.539-3.87,3.934c-4.834,1.5-8,0.5-11-1.834
 c-2.35-1.827-3.265-6.923-3.313-10.81c-0.368-0.243-0.743-0.099-1.02,0.103c0,0.012-0.002,0.033-0.002,0.041
 c0,0.68-2.545,9.768-7.366,13.742c-0.144-2.412-0.279-4.252-0.391-5.029C5.758,73.912,4.119,51.063,6.516,32.398z" style="opacity: 0;"></path><path id="0izG8aeyj8jR5aeTZJfi" transform="translate(42, 452)" fill="#FFFFFF" d="M23.96,51.69c0.063-0.177,0.081-0.418,0.013-0.735c-0.293-1.578-0.48-2.703-0.855-4.203
 c-0.174-0.699-0.377-1.533-0.525-2.215c-0.453-2.066-0.912-4.131-1.393-6.191c-0.85-3.65-1.758-7.287-2.783-10.891
 c-1.219-4.283-2.553-8.586-4.379-12.654c-0.416-0.928-0.902-1.813-1.357-2.721C11.23,9.182,8.363,7.84,6.008,5.852
 C5.12,5.104,4.344,4.24,3.63,3.328c0.751,3.396,1.507,6.557,2.176,9.262c0.875,3.537,1.601,6.293,1.965,7.748
 c0.499,1.996,1.793,8.094,3.059,15.332c0.692,1.6,1.284,3.193,1.601,4.41c1.32,5.061,3.723,10.045,5.941,14.758
 c0.711,1.51,1.469,2.994,2.238,4.473c0.253,0.312,0.435,0.42,0.568,0.409l0.01,0.03c0.013-0.013,0.022-0.025,0.035-0.038
 c0.067-0.023,0.122-0.074,0.156-0.17C24.262,56.525,24.053,52.582,23.96,51.69z M7.718,14.909c-0.063-0.099-0.126-0.198-0.188-0.291
 C7.592,14.712,7.654,14.811,7.718,14.909z M7.175,14.104c-0.053-0.072-0.106-0.151-0.157-0.218
 C7.068,13.954,7.122,14.032,7.175,14.104z" style="opacity: 0;"></path><path id="0izG8aeyj8jR5aeTZJfi" transform="translate(84, 452)" fill="#FFFFFF" d="M6.817,57.542c0.034,0.096,0.089,0.146,0.156,0.17c0.013,0.013,0.022,0.025,0.035,0.038
 l0.01-0.03c0.134,0.011,0.315-0.098,0.568-0.409c0.77-1.479,1.527-2.963,2.238-4.473c2.219-4.713,4.621-9.697,5.941-14.758
 c0.316-1.217,0.908-2.811,1.601-4.41c1.266-7.238,2.56-13.336,3.059-15.332c0.364-1.455,1.09-4.211,1.965-7.748
 c0.669-2.705,1.425-5.865,2.176-9.262c-0.714,0.912-1.49,1.775-2.378,2.523c-2.355,1.988-5.223,3.33-6.672,6.229
 c-0.455,0.908-0.941,1.793-1.357,2.721c-1.826,4.068-3.16,8.371-4.379,12.654c-1.025,3.604-1.934,7.24-2.783,10.891
 c-0.48,2.061-0.939,4.125-1.393,6.191c-0.148,0.682-0.352,1.516-0.525,2.215c-0.375,1.5-0.563,2.625-0.855,4.203
 c-0.068,0.317-0.05,0.559,0.013,0.735C4.144,50.582,3.935,54.525,6.817,57.542z M20.667,12.618
 c-0.063,0.093-0.125,0.192-0.188,0.291C20.542,12.811,20.604,12.712,20.667,12.618z M21.179,11.887
 c-0.051,0.066-0.104,0.146-0.157,0.218C21.074,12.032,21.128,11.954,21.179,11.887z" style="opacity: 0;"></path><path id="Dxp6VSSqZ7a17E29c0z6" fill="#FFFFFF" transform="translate(0, 79)" d="M56.667,48.672c-1.1-6.607-1.725-20.198-2.834-26.167c-1.054-5.673-3.833-10-3.833-10
 s-0.203-0.266-0.691-0.305c0.007-0.007,0.024-0.028,0.024-0.028S33,9.839,29.667,8.672c-2.465-0.863-3.288-2.999-3.55-4.054
 c-2.954,2.751-6.264,7.764-7.097,16.096c-1.375,13.75,0.25,17.5,0.625,20c0.013,0.084,0.019,0.165,0.029,0.249
 c0,0,0.036,0.879,0.129,1.531c0.001,0.035,0.001,0.067,0.001,0.102c-0.003,0.272-0.038,1.082-0.1,2.317
 c-0.032,0.27-0.06,0.427-0.06,0.427s-2.01,37.872-3.546,52.032l-0.18,2.003c-0.016-0.016-0.033-0.034-0.049-0.049
 c-0.215,1.688-0.418,2.815-0.601,3.181c-1.391,2.781-6.073,16.887-7.28,39.912c0,0-0.118,1.586-0.108,2.563
 c-0.004,0.009-0.008,0.018-0.012,0.027c-0.039,0.986-0.074,1.981-0.1,2.998c-0.392,15.461-0.782,22.758-1.039,26.152
 c2.44-0.047,8.509-0.276,11.818-1.339c0.573-4.767,2.821-14.054,4.055-17.48c0.768-2.132,3.453-9.497,5.962-16.474l0.583-1.694
 c0.003,0.013,0.008,0.029,0.011,0.042c2.158-6.021,4.054-11.404,4.277-12.374c0.474-2.052,1.395-7.403,2.199-18.158l0.094-1.282
 c0.013-0.189,0.026-0.367,0.04-0.56c0,0,1.656-18.771,2.815-31.7C38.408,64.863,38,51.006,38,51.006s-0.047-1.469,0.42-1.807
 c4.111,1.322,18.413,2.473,18.413,2.473S57.333,52.672,56.667,48.672z" style="opacity: 0;"></path><path id="Dxp6VSSqZ7a17E29c0z6" transform="translate(3, 79)" fill="#FFFFFF" d="M94.529,48.672c1.1-6.607,1.725-20.198,2.834-26.167c1.054-5.673,3.833-10,3.833-10
 s0.203-0.266,0.691-0.305c-0.007-0.007-0.024-0.028-0.024-0.028s16.333-2.333,19.666-3.5c2.465-0.863,3.288-2.999,3.55-4.054
 c2.954,2.751,6.264,7.764,7.097,16.096c1.375,13.75-0.25,17.5-0.625,20c-0.013,0.084-0.019,0.165-0.029,0.249
 c0,0-0.036,0.879-0.129,1.531c-0.001,0.035-0.001,0.067-0.001,0.102c0.003,0.272,0.038,1.082,0.1,2.317
 c0.032,0.27,0.06,0.427,0.06,0.427s2.01,37.872,3.546,52.032l0.18,2.003c0.016-0.016,0.033-0.034,0.049-0.049
 c0.215,1.688,0.418,2.815,0.601,3.181c1.391,2.781,6.073,16.887,7.28,39.912c0,0,0.118,1.586,0.108,2.563
 c0.004,0.009,0.008,0.018,0.012,0.027c0.039,0.986,0.074,1.981,0.1,2.998c0.392,15.461,0.782,22.758,1.039,26.152
 c-2.44-0.047-8.509-0.276-11.818-1.339c-0.573-4.767-2.821-14.054-4.055-17.48c-0.768-2.132-3.453-9.497-5.962-16.474l-0.583-1.694
 c-0.003,0.013-0.008,0.029-0.011,0.042c-2.158-6.021-4.054-11.404-4.277-12.374c-0.474-2.052-1.395-7.403-2.199-18.158l-0.094-1.282
 c-0.013-0.189-0.026-0.367-0.04-0.56c0,0-1.656-18.771-2.815-31.7c0.178-8.275,0.586-22.133,0.586-22.133s0.047-1.469-0.42-1.807
 c-4.111,1.322-18.413,2.473-18.413,2.473S93.863,52.672,94.529,48.672z" style="opacity: 0;"></path></g><g id="top_lines"><linearGradient id="SVGID_40_" gradientUnits="userSpaceOnUse" x1="-0.5" y1="269.6738" x2="154.8418" y2="269.6738"><stop offset="0" style="stop-color: rgb(66, 186, 191);"></stop><stop offset="1" style="stop-color: rgb(149, 206, 189);"></stop></linearGradient><path fill="none" stroke="url(#SVGID_40_)" stroke-miterlimit="10" d="M154.333,281.432c-0.167-1.833-8-23.667-8-23.667
 s-0.666-2.667-1.333-29s-6-42.5-7.5-45.5s-4.375-57.167-4.375-57.167s-0.375-2.125,0-4.625c0.308-2.052,1.45-4.969,1.093-13.542
 h0.146c-0.078-1.869-0.227-4.001-0.473-6.458c-1.375-13.75-9.5-18.5-11.625-18.875s-3.875-0.625-14.25-1.125s-15.625-4.5-17.75-7
 s-0.875-14.125-0.875-14.125c2.239-1.397,3.969-3.408,4.853-5.905c1.02-2.884,1.861-5.664,2.583-8.634
 c0.622-2.561,1.288-5.113,1.798-7.7c0.251-1.275,0.467-2.556,0.621-3.847c0.046-0.389,0.018-2.943,0.308-3.117
 c-0.029,0.018-0.059,0.036-0.059,0.036c1.375-9.375-0.979-17.083-0.979-17.083c-0.184-0.542-0.493-1.073-0.739-1.59
 c-0.248-0.52-0.502-1.036-0.771-1.545c-0.512-0.973-1.075-1.921-1.727-2.808c-1.187-1.615-2.669-2.966-4.37-4.023
 c-1.509-0.937-3.144-1.662-4.804-2.281c-1.384-0.516-2.798-0.962-4.239-1.286c-1.666-0.375-3.373-0.601-5.083-0.561
 c-0.462,0.011-0.924,0.041-1.383,0.093c-0.628,0.071-1.252,0.176-1.872,0.299c-0.656,0.13-1.307,0.284-1.952,0.455
 c-0.746,0.198-1.486,0.417-2.221,0.658c-0.822,0.27-1.638,0.564-2.438,0.893c-0.862,0.354-1.709,0.75-2.523,1.206
 c-0.854,0.477-1.669,1.021-2.425,1.642c-0.796,0.654-1.521,1.391-2.169,2.191c-0.695,0.859-1.303,1.786-1.852,2.745
 c-0.584,1.021-1.104,2.076-1.611,3.135c-0.12,0.25-0.29,0.514-0.371,0.778c-0.001,0.005-2.354,7.711-0.979,17.083
 c0,0-0.029-0.018-0.059-0.036c0.29,0.174,0.262,2.728,0.308,3.117c0.154,1.291,0.37,2.572,0.621,3.847
 c0.51,2.587,1.176,5.139,1.798,7.7c0.722,2.97,1.563,5.75,2.583,8.634c0.884,2.497,2.613,4.507,4.853,5.905
 c0,0,1.25,11.625-0.875,14.125s-7.375,6.5-17.75,7s-12.125,0.75-14.25,1.125s-10.25,5.125-11.625,18.875
 c-0.051,0.502-0.094,0.982-0.137,1.458h-0.001c-0.003,0.034-0.005,0.064-0.008,0.098c-0.063,0.718-0.118,1.407-0.165,2.066
 c-0.009,0.123-0.015,0.237-0.023,0.357c-0.034,0.515-0.064,1.013-0.09,1.494c-0.01,0.192-0.02,0.382-0.028,0.569
 c-0.006,0.136-0.015,0.281-0.021,0.415h0.005c-0.357,8.572,0.785,11.49,1.093,13.542c0.375,2.5,0,4.625,0,4.625
 s-2.875,54.167-4.375,57.167s-6.833,19.167-7.5,45.5s-1.333,29-1.333,29s-7.833,21.833-8,23.667s2.167,9.333,2.667,10.167
 s0.166,4.833,0.666,5.667c0.5,0.832,9.667,8.166,10.167,8.332c0.5,0.168,2.834,1.168,3.167,1.834s1.832,0.334,2.166-0.5
 s0-3.334,0-3.334l-2.833-2.832c0,0,0-0.668,0-2.168s-1.333-3.5-2.333-4s-2-2.667-2-2.667s2.999,1.667,4.166,0.333s1.5-3.5,1.5-3.5
 l0.834-13.5c0,0,1.5-3.5,2-5.5s0.166-11-0.167-13.833s2.667-15.667,4.167-19.833s10.333-28.333,10.833-30.5s1.499-8,2.333-20
 c0,0,3-34,3.75-42c0,0,1.5,23.25,2,29.75s-0.25,21.25-1,24.75s-4.75,9.5-6.5,15.25c0,0-4,10.75-4.25,12.75s-8.75,26.75-7.5,48.5
 c1.25,21.75,8.75,52.25,10,59.25s8.75,47.25,8.75,47.25l0.75,54.75c1.25,15,6.75,35.25,8,40.25s7.5,35.75,5.75,45.75
 c0,0-1.25,6-2.25,7.5s-2.25,3-3,4s-0.75,4.5-0.75,4.5s-0.75,1,2.25,0.75s6.75-0.5,6.75-0.5s5.5,1.25,7.75,1.25s6.5,0,8-1.75
 s1-13.5-0.75-19c0,0-0.25-2.5-0.25-3.5s0-2.75-1-8s-1.75-18-1.75-20s1-27,1.5-30.5s2.75-35.5-2.25-54.75c0,0-0.75-4.5-0.25-8.25
 s2.25-10,1.5-40c-0.305-12.18-0.444-26.709-0.503-39.671c1.103-5.771,4.482-23.437,5.316-27.328c0,0,4.833,29.833,4.835,29.827
 c-0.064,12.309-0.205,25.769-0.49,37.172c-0.75,30,1,36.25,1.5,40s-0.25,8.25-0.25,8.25c-5,19.25-2.75,51.25-2.25,54.75
 s1.5,28.5,1.5,30.5s-0.75,14.75-1.75,20s-1,7-1,8s-0.25,3.5-0.25,3.5c-1.75,5.5-2.25,17.25-0.75,19s5.75,1.75,8,1.75
 s7.75-1.25,7.75-1.25s3.75,0.25,6.75,0.5s2.25-0.75,2.25-0.75s0-3.5-0.75-4.5s-2-2.5-3-4s-2.25-7.5-2.25-7.5
 c-1.75-10,4.5-40.75,5.75-45.75s6.75-25.25,8-40.25s0.5-40.5,0.5-41.5s0.25-13.25,0.25-13.25s7.5-40.25,8.75-47.25
 s8.75-37.5,10-59.25c1.25-21.75-7.25-46.5-7.5-48.5s-4.25-12.75-4.25-12.75c-1.75-5.75-5.75-11.75-6.5-15.25s-1.5-18.25-1-24.75
 s2-29.75,2-29.75c0.75,8,3.75,42,3.75,42c0.834,12,1.833,17.833,2.333,20s9.333,26.333,10.833,30.5s4.5,17,4.167,19.833
 s-0.667,11.833-0.167,13.833s2,5.5,2,5.5l0.834,13.5c0,0,0.333,2.167,1.5,3.5s4.166-0.333,4.166-0.333s-1,2.167-2,2.667
 s-2.333,2.5-2.333,4s0,2.168,0,2.168l-2.833,2.832c0,0-0.334,2.5,0,3.334s1.833,1.166,2.166,0.5s2.667-1.666,3.167-1.834
 c0.5-0.166,9.667-7.5,10.167-8.332c0.5-0.834,0.166-4.834,0.666-5.667S154.5,283.265,154.333,281.432z"></path></g></svg>
